<?xml version="1.0" encoding="UTF-8" standalone="no"?><svg width="720" height="864.645" xmlns="http://www.w3.org/2000/svg" stroke-linejoin="round" stroke-linecap="round" fill-rule="evenodd" fill="none"><rect x="0" y="0" width="720" height="864.645" fill="#FCF5E5"/><style><![CDATA[@import url("https://fonts.googleapis.com/css?family=IM+Fell+Great+Primer");]]></style><defs/><g><path d=" M 0,0"/><g transform="translate(309.673 451.483) scale(7.774 7.774)"><path d=" M 0,0"/><g><path d=" M 0,0"/><path d=" M -5.711,-9.791 L -4.406,-10.21 L 12.49,-2.174 L 12.894,-0.719 L 4.809,11.478 L 3.307,11.669 L -3.03,5.978 L -2.677,6.183 L -11.568,3.226 L -12.127,1.792 L -5.711,-9.791" fill="#FFFFFF"/></g><g><path d=" M 0,0"/><path d=" M -8.601,-13.728 L -27.683,-10.297 L -36.547,-10.878 L -41.231,-11.212 L -44.691,-11.493 L -47.911,-11.786 L -50.892,-12.091 L -53.961,-12.429 L -57.118,-12.801 L -60.364,-13.206 L -63.699,-13.644 L -66.804,-13.955 L -69.681,-14.138 L -72.33,-14.194 L -74.75,-14.123 L -76.941,-13.925 L -78.903,-13.6 L -80.637,-13.147 L -82.142,-12.567 L -83.891,-12.094 L -85.884,-11.728 L -88.122,-11.469 L -90.604,-11.317 L -93.762,-11.306 L -97.596,-11.436 L -103.404,-11.811 L -115.076,-12.741" stroke="#888888" stroke-width="2.206" stroke-linejoin="round" stroke-linecap="butt"/><path d=" M -12.37,4.295 L -4.836,-9.307 L -8.601,-13.728 L -27.683,-10.297 L -36.547,-10.878 L -41.231,-11.212 L -44.691,-11.493 L -47.911,-11.786 L -50.892,-12.091 L -53.961,-12.429 L -57.118,-12.801 L -60.364,-13.206 L -63.699,-13.644 L -66.804,-13.955 L -69.681,-14.138 L -72.33,-14.194 L -74.75,-14.123 L -76.941,-13.925 L -78.903,-13.6 L -80.637,-13.147 L -82.142,-12.567 L -83.891,-12.094 L -85.884,-11.728 L -88.122,-11.469 L -90.604,-11.317 L -93.762,-11.306 L -97.596,-11.436 L -103.404,-11.811 L -115.076,-12.741" stroke="#FFFFFF" stroke-width="1.794" stroke-linejoin="round" stroke-linecap="butt"/></g><g><path d=" M 0,0"/><path d=" M 12.061,-1.271 L 26.174,6.971 L 40.662,20.109 L 47.727,21.195 L 51.34,21.596 L 53.855,21.673 L 56.057,21.549 L 57.947,21.221 L 59.786,20.732 L 61.574,20.08 L 63.312,19.267 L 64.998,18.291 L 66.819,17.323 L 68.774,16.365 L 70.863,15.415 L 73.086,14.474 L 75.444,13.542 L 77.936,12.619 L 80.561,11.704 L 83.322,10.798 L 85.974,10.154 L 88.518,9.772 L 90.954,9.652 L 93.283,9.793 L 95.503,10.196 L 97.616,10.861 L 99.62,11.788 L 101.517,12.976 L 103.486,14.306 L 105.528,15.776 L 107.643,17.388 L 109.83,19.14 L 112.4,21.323 L 115.353,23.937 L 119.617,27.85 L 127.98,35.668" stroke="#888888" stroke-width="2.206" stroke-linejoin="round" stroke-linecap="butt"/><path d=" M 12.061,-1.271 L 26.174,6.971 L 40.662,20.109 L 47.727,21.195 L 51.34,21.596 L 53.855,21.673 L 56.057,21.549 L 57.947,21.221 L 59.786,20.732 L 61.574,20.08 L 63.312,19.267 L 64.998,18.291 L 66.819,17.323 L 68.774,16.365 L 70.863,15.415 L 73.086,14.474 L 75.444,13.542 L 77.936,12.619 L 80.561,11.704 L 83.322,10.798 L 85.974,10.154 L 88.518,9.772 L 90.954,9.652 L 93.283,9.793 L 95.503,10.196 L 97.616,10.861 L 99.62,11.788 L 101.517,12.976 L 103.486,14.306 L 105.528,15.776 L 107.643,17.388 L 109.83,19.14 L 112.4,21.323 L 115.353,23.937 L 119.617,27.85 L 127.98,35.668" stroke="#FFFFFF" stroke-width="1.794" stroke-linejoin="round" stroke-linecap="butt"/></g><g><path d=" M 0,0"/><path d=" M 87.438,64.789 L 80.107,69.404 L 76.338,71.667 L 73.688,73.117 L 71.341,74.267 L 69.299,75.116 L 67.29,75.836 L 65.313,76.426 L 63.369,76.886 L 61.457,77.217 L 59.625,77.38 L 57.873,77.375 L 56.2,77.202 L 54.608,76.86 L 53.095,76.351 L 51.662,75.674 L 50.308,74.828 L 49.035,73.815 L 47.783,72.8 L 46.554,71.784 L 45.347,70.766 L 44.162,69.747 L 43,68.727 L 41.859,67.705 L 40.741,66.682 L 39.645,65.658 L 38.582,64.582 L 37.552,63.454 L 36.555,62.274 L 35.59,61.043 L 34.659,59.76 L 33.76,58.425 L 32.895,57.039 L 32.062,55.601 L 31.228,54.187 L 30.391,52.798 L 29.552,51.433 L 28.712,50.093 L 27.763,48.622 L 26.706,47.02 L 25.223,44.822 L 22.36,40.629 L 20.117,36.094 L 18.967,33.803 L 18.162,32.245 L 17.452,30.915 L 16.839,29.814 L 16.167,28.666 L 15.438,27.471 L 14.44,25.908 L 12.539,23.009 L 10.648,20.729 L 9.654,19.557 L 8.926,18.732 L 8.255,18.002 L 7.641,17.366 L 7.013,16.74 L 6.372,16.124 L 5.717,15.518 L 5.048,14.922 L 4.366,14.313 L 3.67,13.691 L 2.96,13.056 L 2.236,12.408 L 1.498,11.747 L 0.747,11.073 L -0.019,10.386 L -0.798,9.686 L -1.618,9.028 L -2.479,8.411 L -3.381,7.836 L -4.323,7.302 L -5.444,6.764 L -6.745,6.221 L -8.639,5.536 L -12.37,4.295 L -15.345,5.145 L -16.933,5.663 L -18.125,6.132 L -19.251,6.647 L -20.311,7.208 L -21.417,7.846 L -22.567,8.561 L -23.762,9.353 L -25.001,10.222 L -26.232,11.051 L -27.454,11.839 L -28.667,12.587 L -29.871,13.294 L -31.067,13.961 L -32.253,14.588 L -33.431,15.174 L -34.6,15.719 L -35.759,16.143 L -36.907,16.445 L -38.045,16.625 L -39.173,16.684 L -40.291,16.621 L -41.399,16.437 L -42.496,16.13 L -43.583,15.702 L -44.587,15.153 L -45.509,14.482 L -46.347,13.69 L -47.102,12.777 L -47.775,11.742 L -48.364,10.586 L -48.87,9.308 L -49.294,7.909 L -49.632,6.456 L -49.885,4.948 L -50.052,3.385 L -50.133,1.768 L -50.097,-0.134 L -49.942,-2.319 L -49.572,-5.477 L -48.693,-11.673 L -47.026,-17.77 L -46.213,-20.88 L -45.699,-23.033 L -45.299,-24.908 L -45.013,-26.504 L -44.779,-28.048 L -44.596,-29.539 L -44.466,-30.978 L -44.387,-32.364 L -44.39,-33.701 L -44.473,-34.989 L -44.638,-36.229 L -44.884,-37.419 L -45.211,-38.56 L -45.619,-39.653 L -46.109,-40.696 L -46.679,-41.69 L -47.329,-42.586 L -48.059,-43.383 L -48.868,-44.081 L -49.757,-44.681 L -50.726,-45.181 L -51.774,-45.583 L -52.901,-45.887 L -54.109,-46.091 L -55.315,-46.246 L -56.519,-46.351 L -57.722,-46.406 L -58.923,-46.411 L -60.123,-46.367 L -61.321,-46.273 L -62.518,-46.129 L -63.714,-45.935 L -64.89,-45.747 L -66.048,-45.564 L -67.188,-45.387 L -68.309,-45.215 L -69.412,-45.049 L -70.496,-44.888 L -71.561,-44.732 L -72.608,-44.582 L -73.638,-44.488 L -74.651,-44.448 L -75.647,-44.464 L -76.626,-44.535 L -77.587,-44.662 L -78.532,-44.843 L -79.46,-45.08 L -80.371,-45.372 L -81.264,-45.719 L -82.141,-46.122 L -83.001,-46.58 L -83.843,-47.093 L -84.765,-47.753 L -85.768,-48.56 L -87.14,-49.79 L -89.754,-52.267" stroke="#000000" stroke-width="4.535" stroke-linejoin="round" stroke-linecap="butt"/><path d=" M 87.438,64.789 L 80.107,69.404 L 76.338,71.667 L 73.688,73.117 L 71.341,74.267 L 69.299,75.116 L 67.29,75.836 L 65.313,76.426 L 63.369,76.886 L 61.457,77.217 L 59.625,77.38 L 57.873,77.375 L 56.2,77.202 L 54.608,76.86 L 53.095,76.351 L 51.662,75.674 L 50.308,74.828 L 49.035,73.815 L 47.783,72.8 L 46.554,71.784 L 45.347,70.766 L 44.162,69.747 L 43,68.727 L 41.859,67.705 L 40.741,66.682 L 39.645,65.658 L 38.582,64.582 L 37.552,63.454 L 36.555,62.274 L 35.59,61.043 L 34.659,59.76 L 33.76,58.425 L 32.895,57.039 L 32.062,55.601 L 31.228,54.187 L 30.391,52.798 L 29.552,51.433 L 28.712,50.093 L 27.763,48.622 L 26.706,47.02 L 25.223,44.822 L 22.36,40.629 L 20.117,36.094 L 18.967,33.803 L 18.162,32.245 L 17.452,30.915 L 16.839,29.814 L 16.167,28.666 L 15.438,27.471 L 14.44,25.908 L 12.539,23.009 L 10.648,20.729 L 9.654,19.557 L 8.926,18.732 L 8.255,18.002 L 7.641,17.366 L 7.013,16.74 L 6.372,16.124 L 5.717,15.518 L 5.048,14.922 L 4.366,14.313 L 3.67,13.691 L 2.96,13.056 L 2.236,12.408 L 1.498,11.747 L 0.747,11.073 L -0.019,10.386 L -0.798,9.686 L -1.618,9.028 L -2.479,8.411 L -3.381,7.836 L -4.323,7.302 L -5.444,6.764 L -6.745,6.221 L -8.639,5.536 L -12.37,4.295 L -15.345,5.145 L -16.933,5.663 L -18.125,6.132 L -19.251,6.647 L -20.311,7.208 L -21.417,7.846 L -22.567,8.561 L -23.762,9.353 L -25.001,10.222 L -26.232,11.051 L -27.454,11.839 L -28.667,12.587 L -29.871,13.294 L -31.067,13.961 L -32.253,14.588 L -33.431,15.174 L -34.6,15.719 L -35.759,16.143 L -36.907,16.445 L -38.045,16.625 L -39.173,16.684 L -40.291,16.621 L -41.399,16.437 L -42.496,16.13 L -43.583,15.702 L -44.587,15.153 L -45.509,14.482 L -46.347,13.69 L -47.102,12.777 L -47.775,11.742 L -48.364,10.586 L -48.87,9.308 L -49.294,7.909 L -49.632,6.456 L -49.885,4.948 L -50.052,3.385 L -50.133,1.768 L -50.097,-0.134 L -49.942,-2.319 L -49.572,-5.477 L -48.693,-11.673 L -47.026,-17.77 L -46.213,-20.88 L -45.699,-23.033 L -45.299,-24.908 L -45.013,-26.504 L -44.779,-28.048 L -44.596,-29.539 L -44.466,-30.978 L -44.387,-32.364 L -44.39,-33.701 L -44.473,-34.989 L -44.638,-36.229 L -44.884,-37.419 L -45.211,-38.56 L -45.619,-39.653 L -46.109,-40.696 L -46.679,-41.69 L -47.329,-42.586 L -48.059,-43.383 L -48.868,-44.081 L -49.757,-44.681 L -50.726,-45.181 L -51.774,-45.583 L -52.901,-45.887 L -54.109,-46.091 L -55.315,-46.246 L -56.519,-46.351 L -57.722,-46.406 L -58.923,-46.411 L -60.123,-46.367 L -61.321,-46.273 L -62.518,-46.129 L -63.714,-45.935 L -64.89,-45.747 L -66.048,-45.564 L -67.188,-45.387 L -68.309,-45.215 L -69.412,-45.049 L -70.496,-44.888 L -71.561,-44.732 L -72.608,-44.582 L -73.638,-44.488 L -74.651,-44.448 L -75.647,-44.464 L -76.626,-44.535 L -77.587,-44.662 L -78.532,-44.843 L -79.46,-45.08 L -80.371,-45.372 L -81.264,-45.719 L -82.141,-46.122 L -83.001,-46.58 L -83.843,-47.093 L -84.765,-47.753 L -85.768,-48.56 L -87.14,-49.79 L -89.754,-52.267" stroke="#888888" stroke-width="4.123" stroke-linejoin="round" stroke-linecap="butt"/><path d=" M 87.438,64.789 L 80.107,69.404 L 76.338,71.667 L 73.688,73.117 L 71.341,74.267 L 69.299,75.116 L 67.29,75.836 L 65.313,76.426 L 63.369,76.886 L 61.457,77.217 L 59.625,77.38 L 57.873,77.375 L 56.2,77.202 L 54.608,76.86 L 53.095,76.351 L 51.662,75.674 L 50.308,74.828 L 49.035,73.815 L 47.783,72.8 L 46.554,71.784 L 45.347,70.766 L 44.162,69.747 L 43,68.727 L 41.859,67.705 L 40.741,66.682 L 39.645,65.658 L 38.582,64.582 L 37.552,63.454 L 36.555,62.274 L 35.59,61.043 L 34.659,59.76 L 33.76,58.425 L 32.895,57.039 L 32.062,55.601 L 31.228,54.187 L 30.391,52.798 L 29.552,51.433 L 28.712,50.093 L 27.763,48.622 L 26.706,47.02 L 25.223,44.822 L 22.36,40.629 L 20.117,36.094 L 18.967,33.803 L 18.162,32.245 L 17.452,30.915 L 16.839,29.814 L 16.167,28.666 L 15.438,27.471 L 14.44,25.908 L 12.539,23.009 L 10.648,20.729 L 9.654,19.557 L 8.926,18.732 L 8.255,18.002 L 7.641,17.366 L 7.013,16.74 L 6.372,16.124 L 5.717,15.518 L 5.048,14.922 L 4.366,14.313 L 3.67,13.691 L 2.96,13.056 L 2.236,12.408 L 1.498,11.747 L 0.747,11.073 L -0.019,10.386 L -0.798,9.686 L -1.618,9.028 L -2.479,8.411 L -3.381,7.836 L -4.323,7.302 L -5.444,6.764 L -6.745,6.221 L -8.639,5.536 L -12.37,4.295 L -15.345,5.145 L -16.933,5.663 L -18.125,6.132 L -19.251,6.647 L -20.311,7.208 L -21.417,7.846 L -22.567,8.561 L -23.762,9.353 L -25.001,10.222 L -26.232,11.051 L -27.454,11.839 L -28.667,12.587 L -29.871,13.294 L -31.067,13.961 L -32.253,14.588 L -33.431,15.174 L -34.6,15.719 L -35.759,16.143 L -36.907,16.445 L -38.045,16.625 L -39.173,16.684 L -40.291,16.621 L -41.399,16.437 L -42.496,16.13 L -43.583,15.702 L -44.587,15.153 L -45.509,14.482 L -46.347,13.69 L -47.102,12.777 L -47.775,11.742 L -48.364,10.586 L -48.87,9.308 L -49.294,7.909 L -49.632,6.456 L -49.885,4.948 L -50.052,3.385 L -50.133,1.768 L -50.097,-0.134 L -49.942,-2.319 L -49.572,-5.477 L -48.693,-11.673 L -47.026,-17.77 L -46.213,-20.88 L -45.699,-23.033 L -45.299,-24.908 L -45.013,-26.504 L -44.779,-28.048 L -44.596,-29.539 L -44.466,-30.978 L -44.387,-32.364 L -44.39,-33.701 L -44.473,-34.989 L -44.638,-36.229 L -44.884,-37.419 L -45.211,-38.56 L -45.619,-39.653 L -46.109,-40.696 L -46.679,-41.69 L -47.329,-42.586 L -48.059,-43.383 L -48.868,-44.081 L -49.757,-44.681 L -50.726,-45.181 L -51.774,-45.583 L -52.901,-45.887 L -54.109,-46.091 L -55.315,-46.246 L -56.519,-46.351 L -57.722,-46.406 L -58.923,-46.411 L -60.123,-46.367 L -61.321,-46.273 L -62.518,-46.129 L -63.714,-45.935 L -64.89,-45.747 L -66.048,-45.564 L -67.188,-45.387 L -68.309,-45.215 L -69.412,-45.049 L -70.496,-44.888 L -71.561,-44.732 L -72.608,-44.582 L -73.638,-44.488 L -74.651,-44.448 L -75.647,-44.464 L -76.626,-44.535 L -77.587,-44.662 L -78.532,-44.843 L -79.46,-45.08 L -80.371,-45.372 L -81.264,-45.719 L -82.141,-46.122 L -83.001,-46.58 L -83.843,-47.093 L -84.765,-47.753 L -85.768,-48.56 L -87.14,-49.79 L -89.754,-52.267" stroke="#000000" stroke-width="2.721" stroke-linejoin="round" stroke-linecap="butt"/><path d=" M 87.438,64.789 L 80.107,69.404 L 76.338,71.667 L 73.688,73.117 L 71.341,74.267 L 69.299,75.116 L 67.29,75.836 L 65.313,76.426 L 63.369,76.886 L 61.457,77.217 L 59.625,77.38 L 57.873,77.375 L 56.2,77.202 L 54.608,76.86 L 53.095,76.351 L 51.662,75.674 L 50.308,74.828 L 49.035,73.815 L 47.783,72.8 L 46.554,71.784 L 45.347,70.766 L 44.162,69.747 L 43,68.727 L 41.859,67.705 L 40.741,66.682 L 39.645,65.658 L 38.582,64.582 L 37.552,63.454 L 36.555,62.274 L 35.59,61.043 L 34.659,59.76 L 33.76,58.425 L 32.895,57.039 L 32.062,55.601 L 31.228,54.187 L 30.391,52.798 L 29.552,51.433 L 28.712,50.093 L 27.763,48.622 L 26.706,47.02 L 25.223,44.822 L 22.36,40.629 L 20.117,36.094 L 18.967,33.803 L 18.162,32.245 L 17.452,30.915 L 16.839,29.814 L 16.167,28.666 L 15.438,27.471 L 14.44,25.908 L 12.539,23.009 L 10.648,20.729 L 9.654,19.557 L 8.926,18.732 L 8.255,18.002 L 7.641,17.366 L 7.013,16.74 L 6.372,16.124 L 5.717,15.518 L 5.048,14.922 L 4.366,14.313 L 3.67,13.691 L 2.96,13.056 L 2.236,12.408 L 1.498,11.747 L 0.747,11.073 L -0.019,10.386 L -0.798,9.686 L -1.618,9.028 L -2.479,8.411 L -3.381,7.836 L -4.323,7.302 L -5.444,6.764 L -6.745,6.221 L -8.639,5.536 L -12.37,4.295 L -15.345,5.145 L -16.933,5.663 L -18.125,6.132 L -19.251,6.647 L -20.311,7.208 L -21.417,7.846 L -22.567,8.561 L -23.762,9.353 L -25.001,10.222 L -26.232,11.051 L -27.454,11.839 L -28.667,12.587 L -29.871,13.294 L -31.067,13.961 L -32.253,14.588 L -33.431,15.174 L -34.6,15.719 L -35.759,16.143 L -36.907,16.445 L -38.045,16.625 L -39.173,16.684 L -40.291,16.621 L -41.399,16.437 L -42.496,16.13 L -43.583,15.702 L -44.587,15.153 L -45.509,14.482 L -46.347,13.69 L -47.102,12.777 L -47.775,11.742 L -48.364,10.586 L -48.87,9.308 L -49.294,7.909 L -49.632,6.456 L -49.885,4.948 L -50.052,3.385 L -50.133,1.768 L -50.097,-0.134 L -49.942,-2.319 L -49.572,-5.477 L -48.693,-11.673 L -47.026,-17.77 L -46.213,-20.88 L -45.699,-23.033 L -45.299,-24.908 L -45.013,-26.504 L -44.779,-28.048 L -44.596,-29.539 L -44.466,-30.978 L -44.387,-32.364 L -44.39,-33.701 L -44.473,-34.989 L -44.638,-36.229 L -44.884,-37.419 L -45.211,-38.56 L -45.619,-39.653 L -46.109,-40.696 L -46.679,-41.69 L -47.329,-42.586 L -48.059,-43.383 L -48.868,-44.081 L -49.757,-44.681 L -50.726,-45.181 L -51.774,-45.583 L -52.901,-45.887 L -54.109,-46.091 L -55.315,-46.246 L -56.519,-46.351 L -57.722,-46.406 L -58.923,-46.411 L -60.123,-46.367 L -61.321,-46.273 L -62.518,-46.129 L -63.714,-45.935 L -64.89,-45.747 L -66.048,-45.564 L -67.188,-45.387 L -68.309,-45.215 L -69.412,-45.049 L -70.496,-44.888 L -71.561,-44.732 L -72.608,-44.582 L -73.638,-44.488 L -74.651,-44.448 L -75.647,-44.464 L -76.626,-44.535 L -77.587,-44.662 L -78.532,-44.843 L -79.46,-45.08 L -80.371,-45.372 L -81.264,-45.719 L -82.141,-46.122 L -83.001,-46.58 L -83.843,-47.093 L -84.765,-47.753 L -85.768,-48.56 L -87.14,-49.79 L -89.754,-52.267" stroke="#888888" stroke-width="2.515" stroke-linejoin="round" stroke-linecap="butt"/><path d=" M -10.98,1.786 L -12.537,7.157" stroke="#000000" stroke-width="2.206" stroke-linejoin="round" stroke-linecap="butt"/><path d=" M -10.98,1.786 L -12.537,7.157" stroke="#FFFFFF" stroke-width="1.794" stroke-linejoin="round" stroke-linecap="butt"/><path d=" M 10.225,24.703 L 14.852,21.315" stroke="#000000" stroke-width="1.406" stroke-linejoin="round" stroke-linecap="butt"/><path d=" M 10.225,24.703 L 14.852,21.315" stroke="#FFFFFF" stroke-width="0.994" stroke-linejoin="round" stroke-linecap="butt"/><path d=" M 19.884,42.077 L 24.835,39.18" stroke="#000000" stroke-width="1.406" stroke-linejoin="round" stroke-linecap="butt"/><path d=" M 19.884,42.077 L 24.835,39.18" stroke="#FFFFFF" stroke-width="0.994" stroke-linejoin="round" stroke-linecap="butt"/><path d=" M -51.536,-12.046 L -45.832,-11.485" stroke="#000000" stroke-width="2.206" stroke-linejoin="round" stroke-linecap="butt"/><path d=" M -51.536,-12.046 L -45.832,-11.485" stroke="#FFFFFF" stroke-width="1.794" stroke-linejoin="round" stroke-linecap="butt"/></g><g><path d=" M 0,0"/><path d=" M 0.39,-0.82 L 0.977,-2.054 L 2.068,-1.535 L 1.481,-0.301 L 0.39,-0.82" fill="#CCCCCC" stroke="#000000" stroke-width="0.206" stroke-linejoin="miter" stroke-linecap="butt"/></g><g><path d=" M 0,0"/><path d=" M 11.168,-3.403 L 11.168,-2.803 L 7.563,-4.518 L 7.563,-5.118 L 11.168,-3.403" fill="#000000" stroke="#000000" stroke-width="0.206" stroke-linejoin="round" stroke-linecap="butt"/><path d=" M 10.856,-12.043 L 10.856,-11.443 L 9.943,-16.481 L 9.943,-17.081 L 10.856,-12.043" fill="#000000" stroke="#000000" stroke-width="0.206" stroke-linejoin="round" stroke-linecap="butt"/><path d=" M 13.472,-11.247 L 13.472,-10.647 L 11.168,-2.803 L 11.168,-3.403 L 13.472,-11.247" fill="#000000" stroke="#000000" stroke-width="0.206" stroke-linejoin="round" stroke-linecap="butt"/><path d=" M 16.238,-18.222 L 16.238,-17.622 L 14.132,-10.453 L 12.488,-10.936 L 11.434,-16.751 L 11.434,-17.351 L 12.488,-11.536 L 14.132,-11.053 L 16.238,-18.222" fill="#000000" stroke="#000000" stroke-width="0.206" stroke-linejoin="round" stroke-linecap="butt"/><path d=" M 7.563,-5.118 L 7.563,-4.518 L 3.007,-6.684 L 3.007,-7.284 L 7.563,-5.118" fill="#000000" stroke="#000000" stroke-width="0.206" stroke-linejoin="round" stroke-linecap="butt"/><path d=" M 5.061,-11.604 L 5.061,-11.004 L 4.88,-12.007 L 4.88,-12.607 L 5.061,-11.604" fill="#000000" stroke="#000000" stroke-width="0.206" stroke-linejoin="round" stroke-linecap="butt"/><path d=" M 10.737,-11.793 L 10.737,-11.193 L 7.563,-4.518 L 7.563,-5.118 L 10.737,-11.793" fill="#000000" stroke="#000000" stroke-width="0.206" stroke-linejoin="round" stroke-linecap="butt"/><path d=" M 10.856,-12.043 L 10.856,-11.443 L 10.737,-11.193 L 4.88,-12.007 L 4.255,-15.45 L 4.255,-16.05 L 4.88,-12.607 L 10.737,-11.793 L 10.856,-12.043" fill="#000000" stroke="#000000" stroke-width="0.206" stroke-linejoin="round" stroke-linecap="butt"/><path d=" M 4.541,-14.474 L 4.541,-13.874 L -2.43,-12.61 L -4.385,-10.944 L -6.223,-13.102 L -6.223,-13.702 L -4.385,-11.544 L -2.43,-13.21 L 4.541,-14.474" fill="#000000" stroke="#000000" stroke-width="0.206" stroke-linejoin="round" stroke-linecap="butt"/><path d=" M -1.885,-9.611 L -1.885,-9.011 L -1.982,-9.057 L -2.113,-9.119 L -2.435,-9.272 L -3.118,-9.597 L -4.213,-10.118 L -4.694,-10.682 L -4.694,-11.282 L -4.213,-10.718 L -3.118,-10.197 L -2.435,-9.872 L -2.113,-9.719 L -1.982,-9.657 L -1.885,-9.611" fill="#000000" stroke="#000000" stroke-width="0.206" stroke-linejoin="round" stroke-linecap="butt"/><path d=" M 0.631,-13.765 L 0.631,-13.165 L -0.266,-8.241 L -1.885,-9.011 L -1.885,-9.611 L -0.266,-8.841 L 0.631,-13.765" fill="#000000" stroke="#000000" stroke-width="0.206" stroke-linejoin="round" stroke-linecap="butt"/><path d=" M 3.166,-7.618 L 3.166,-7.018 L 0.705,-8.188 L -0.197,-8.617 L -0.197,-9.217 L 0.705,-8.788 L 3.166,-7.618" fill="#000000" stroke="#000000" stroke-width="0.206" stroke-linejoin="round" stroke-linecap="butt"/><path d=" M 5.061,-11.604 L 5.061,-11.004 L 3.166,-7.018 L 3.166,-7.618 L 5.061,-11.604" fill="#000000" stroke="#000000" stroke-width="0.206" stroke-linejoin="round" stroke-linecap="butt"/><path d=" M 13.472,-11.247 L 11.168,-3.403 L 7.563,-5.118 L 10.856,-12.043 L 9.943,-17.081 L 11.434,-17.351 L 12.488,-11.536 L 13.472,-11.247" fill="#CCCCCC" stroke="#000000" stroke-width="0.206" stroke-linejoin="round" stroke-linecap="butt"/><path d=" M 11.434,-17.351 L 16.238,-18.222 L 14.132,-11.053 L 12.488,-11.536 L 11.434,-17.351" fill="#CCCCCC" stroke="#000000" stroke-width="0.206" stroke-linejoin="round" stroke-linecap="butt"/><path d=" M 10.737,-11.793 L 7.563,-5.118 L 3.007,-7.284 L 5.061,-11.604 L 4.88,-12.607 L 10.737,-11.793" fill="#CCCCCC" stroke="#000000" stroke-width="0.206" stroke-linejoin="round" stroke-linecap="butt"/><path d=" M 4.88,-12.607 L 4.255,-16.05 L 9.943,-17.081 L 10.856,-12.043 L 10.737,-11.793 L 4.88,-12.607" fill="#CCCCCC" stroke="#000000" stroke-width="0.206" stroke-linejoin="round" stroke-linecap="butt"/><path d=" M 1.604,-15.121 L 4.334,-15.616 L 4.541,-14.474 L -2.43,-13.21 L -4.385,-11.544 L -6.223,-13.702 L 1.604,-15.121" fill="#CCCCCC" stroke="#000000" stroke-width="0.206" stroke-linejoin="round" stroke-linecap="butt"/><path d=" M -0.266,-8.841 L -1.885,-9.611 L -1.982,-9.657 L -2.113,-9.719 L -2.435,-9.872 L -3.118,-10.197 L -4.213,-10.718 L -4.694,-11.282 L -2.43,-13.21 L 0.631,-13.765 L -0.266,-8.841" fill="#CCCCCC" stroke="#000000" stroke-width="0.206" stroke-linejoin="round" stroke-linecap="butt"/><path d=" M 5.061,-11.604 L 3.166,-7.618 L 0.705,-8.788 L -0.197,-9.217 L 0.631,-13.765 L 4.541,-14.474 L 5.061,-11.604" fill="#CCCCCC" stroke="#000000" stroke-width="0.206" stroke-linejoin="round" stroke-linecap="butt"/></g><g><path d=" M 0,0"/><path d=" M 20.181,4.029 L 20.181,4.629 L 16.866,9.634 L 9.617,4.225 L 9.617,3.625 L 16.866,9.034 L 20.181,4.029" fill="#000000" stroke="#000000" stroke-width="0.206" stroke-linejoin="round" stroke-linecap="butt"/><path d=" M 24.99,6.838 L 24.99,7.438 L 20.694,12.491 L 16.866,9.634 L 16.866,9.034 L 20.694,11.891 L 24.99,6.838" fill="#000000" stroke="#000000" stroke-width="0.206" stroke-linejoin="round" stroke-linecap="butt"/><path d=" M 16.866,9.034 L 9.617,3.625 L 12.372,-0.531 L 20.181,4.029 L 16.866,9.034" fill="#CCCCCC" stroke="#000000" stroke-width="0.206" stroke-linejoin="round" stroke-linecap="butt"/><path d=" M 20.181,4.029 L 24.99,6.838 L 20.694,11.891 L 16.866,9.034 L 20.181,4.029" fill="#CCCCCC" stroke="#000000" stroke-width="0.206" stroke-linejoin="round" stroke-linecap="butt"/></g><g><path d=" M 0,0"/><path d=" M -9.789,8.208 L -9.789,8.808 L -10.89,12.118 L -15.329,11.894 L -16.16,8.984 L -16.16,8.384 L -15.329,11.294 L -10.89,11.518 L -9.789,8.208" fill="#000000" stroke="#000000" stroke-width="0.206" stroke-linejoin="round" stroke-linecap="butt"/><path d=" M -15.329,11.294 L -16.16,8.384 L -12.447,7.323 L -9.789,8.208 L -10.89,11.518 L -15.329,11.294" fill="#CCCCCC" stroke="#000000" stroke-width="0.206" stroke-linejoin="round" stroke-linecap="butt"/></g><g><path d=" M 0,0"/><path d=" M -16.756,0.596 L -16.756,1.196 L -19.694,2.035 L -22.417,-3.441 L -22.417,-4.041 L -19.694,1.435 L -16.756,0.596" fill="#000000" stroke="#000000" stroke-width="0.206" stroke-linejoin="round" stroke-linecap="butt"/><path d=" M -18.162,-5.553 L -18.162,-4.953 L -23.425,-3.083 L -26.604,-9.475 L -26.604,-10.075 L -23.425,-3.683 L -18.162,-5.553" fill="#000000" stroke="#000000" stroke-width="0.206" stroke-linejoin="round" stroke-linecap="butt"/><path d=" M -7.074,-9.798 L -7.074,-9.198 L -12.246,-4.793 L -15.026,-11.194 L -15.026,-11.794 L -12.246,-5.393 L -7.074,-9.798" fill="#000000" stroke="#000000" stroke-width="0.206" stroke-linejoin="round" stroke-linecap="butt"/><path d=" M -13.941,-3.95 L -13.941,-3.35 L -17.604,-2.512 L -19.489,-10.755 L -19.489,-11.355 L -17.604,-3.112 L -13.941,-3.95" fill="#000000" stroke="#000000" stroke-width="0.206" stroke-linejoin="round" stroke-linecap="butt"/><path d=" M -12.246,-5.393 L -12.246,-4.793 L -13.941,-3.35 L -13.941,-3.95 L -12.246,-5.393" fill="#000000" stroke="#000000" stroke-width="0.206" stroke-linejoin="round" stroke-linecap="butt"/><path d=" M -6.046,-9.785 L -6.046,-9.185 L -9.889,-2.248 L -12.6,-4.492 L -12.6,-5.092 L -9.889,-2.848 L -6.046,-9.785" fill="#000000" stroke="#000000" stroke-width="0.206" stroke-linejoin="round" stroke-linecap="butt"/><path d=" M -16.797,0.418 L -16.797,1.018 L -17.604,-2.512 L -17.604,-3.112 L -16.797,0.418" fill="#000000" stroke="#000000" stroke-width="0.206" stroke-linejoin="round" stroke-linecap="butt"/><path d=" M -10.533,-3.381 L -10.533,-2.781 L -11.855,-0.394 L -16.797,1.018 L -16.797,0.418 L -11.855,-0.994 L -10.533,-3.381" fill="#000000" stroke="#000000" stroke-width="0.206" stroke-linejoin="round" stroke-linecap="butt"/><path d=" M -19.694,1.435 L -22.417,-4.041 L -18.162,-5.553 L -16.756,0.596 L -19.694,1.435" fill="#CCCCCC" stroke="#000000" stroke-width="0.206" stroke-linejoin="round" stroke-linecap="butt"/><path d=" M -23.425,-3.683 L -26.604,-10.075 L -19.489,-11.355 L -18.162,-5.553 L -23.425,-3.683" fill="#CCCCCC" stroke="#000000" stroke-width="0.206" stroke-linejoin="round" stroke-linecap="butt"/><path d=" M -9.604,-12.769 L -7.074,-9.798 L -12.246,-5.393 L -15.026,-11.794 L -9.604,-12.769" fill="#CCCCCC" stroke="#000000" stroke-width="0.206" stroke-linejoin="round" stroke-linecap="butt"/><path d=" M -12.246,-5.393 L -13.941,-3.95 L -17.604,-3.112 L -19.489,-11.355 L -15.172,-12.131 L -12.246,-5.393" fill="#CCCCCC" stroke="#000000" stroke-width="0.206" stroke-linejoin="round" stroke-linecap="butt"/><path d=" M -12.6,-5.092 L -6.484,-10.3 L -6.046,-9.785 L -9.889,-2.848 L -12.6,-5.092" fill="#CCCCCC" stroke="#000000" stroke-width="0.206" stroke-linejoin="round" stroke-linecap="butt"/><path d=" M -11.855,-0.994 L -16.797,0.418 L -17.604,-3.112 L -13.941,-3.95 L -12.6,-5.092 L -10.533,-3.381 L -11.855,-0.994" fill="#CCCCCC" stroke="#000000" stroke-width="0.206" stroke-linejoin="round" stroke-linecap="butt"/></g><g><path d=" M 0,0"/><path d=" M -8.942,-16.529 L -8.942,-15.929 L -9.095,-14.655 L -13.868,-13.797 L -17.252,-13.189 L -17.252,-13.789 L -13.868,-14.397 L -9.095,-15.255 L -8.942,-16.529" fill="#000000" stroke="#000000" stroke-width="0.206" stroke-linejoin="round" stroke-linecap="butt"/><path d=" M -16.6,-17.705 L -16.6,-17.105 L -17.247,-13.22 L -24.667,-15.265 L -24.667,-15.865 L -17.247,-13.82 L -16.6,-17.705" fill="#000000" stroke="#000000" stroke-width="0.206" stroke-linejoin="round" stroke-linecap="butt"/><path d=" M -16.6,-17.705 L -15.865,-17.357 L -13.957,-17.129 L -8.942,-16.529 L -9.095,-15.255 L -13.868,-14.397 L -17.252,-13.789 L -16.6,-17.705" fill="#CCCCCC" stroke="#000000" stroke-width="0.206" stroke-linejoin="round" stroke-linecap="butt"/><path d=" M -24.667,-15.865 L -22.478,-20.488 L -16.6,-17.705 L -17.247,-13.82 L -24.667,-15.865" fill="#CCCCCC" stroke="#000000" stroke-width="0.206" stroke-linejoin="round" stroke-linecap="butt"/></g><g><path d=" M 0,0"/><path d=" M 18.918,-8.503 L 18.918,-7.903 L 15.675,-0.318 L 12.885,-1.948 L 12.885,-2.548 L 15.675,-0.918 L 18.918,-8.503" fill="#000000" stroke="#000000" stroke-width="0.206" stroke-linejoin="round" stroke-linecap="butt"/><path d=" M 19.317,1.208 L 19.317,1.808 L 15.675,-0.318 L 15.675,-0.918 L 19.317,1.208" fill="#000000" stroke="#000000" stroke-width="0.206" stroke-linejoin="round" stroke-linecap="butt"/><path d=" M 21.68,-2.289 L 21.68,-1.689 L 19.317,1.808 L 19.317,1.208 L 21.68,-2.289" fill="#000000" stroke="#000000" stroke-width="0.206" stroke-linejoin="round" stroke-linecap="butt"/><path d=" M 24.698,-12.942 L 24.698,-12.342 L 24.423,-12.159 L 24.124,-11.139 L 16.262,-13.448 L 16.262,-14.048 L 24.124,-11.739 L 24.423,-12.759 L 24.698,-12.942" fill="#000000" stroke="#000000" stroke-width="0.206" stroke-linejoin="round" stroke-linecap="butt"/><path d=" M 15.675,-0.918 L 12.885,-2.548 L 14.974,-9.662 L 18.918,-8.503 L 15.675,-0.918" fill="#CCCCCC" stroke="#000000" stroke-width="0.206" stroke-linejoin="round" stroke-linecap="butt"/><path d=" M 21.68,-2.289 L 19.317,1.208 L 15.675,-0.918 L 17.287,-4.689 L 21.68,-2.289" fill="#CCCCCC" stroke="#000000" stroke-width="0.206" stroke-linejoin="round" stroke-linecap="butt"/><path d=" M 16.262,-14.048 L 17.622,-18.678 L 18.751,-19.867 L 24.698,-12.942 L 24.423,-12.759 L 24.124,-11.739 L 16.262,-14.048" fill="#CCCCCC" stroke="#000000" stroke-width="0.206" stroke-linejoin="round" stroke-linecap="butt"/></g><g><path d=" M 0,0"/><path d=" M 6.795,-17.73 L 6.795,-17.13 L 5.758,-22.846 L 5.758,-23.446 L 6.795,-17.73" fill="#000000" stroke="#000000" stroke-width="0.206" stroke-linejoin="round" stroke-linecap="butt"/><path d=" M 11.368,-18.559 L 11.368,-17.959 L 6.795,-17.13 L 6.795,-17.73 L 11.368,-18.559" fill="#000000" stroke="#000000" stroke-width="0.206" stroke-linejoin="round" stroke-linecap="butt"/><path d=" M 15.502,-19.758 L 15.502,-19.158 L 11.289,-18.394 L 10.332,-23.675 L 10.332,-24.275 L 11.289,-18.994 L 15.502,-19.758" fill="#000000" stroke="#000000" stroke-width="0.206" stroke-linejoin="round" stroke-linecap="butt"/><path d=" M 0.884,-16.658 L 0.884,-16.058 L 0.46,-15.981 L -2.762,-15.397 L -3.333,-22.549 L -3.333,-23.149 L -2.762,-15.997 L 0.46,-16.581 L 0.884,-16.658" fill="#000000" stroke="#000000" stroke-width="0.206" stroke-linejoin="round" stroke-linecap="butt"/><path d=" M 6.661,-18.468 L 6.661,-17.868 L 0.825,-16.809 L 0.382,-22.474 L 0.382,-23.074 L 0.825,-17.409 L 6.661,-18.468" fill="#000000" stroke="#000000" stroke-width="0.206" stroke-linejoin="round" stroke-linecap="butt"/><path d=" M 11.368,-18.559 L 6.795,-17.73 L 5.758,-23.446 L 10.332,-24.275 L 11.368,-18.559" fill="#CCCCCC" stroke="#000000" stroke-width="0.206" stroke-linejoin="round" stroke-linecap="butt"/><path d=" M 14.545,-25.039 L 15.502,-19.758 L 11.289,-18.994 L 10.332,-24.275 L 14.545,-25.039" fill="#CCCCCC" stroke="#000000" stroke-width="0.206" stroke-linejoin="round" stroke-linecap="butt"/><path d=" M -3.333,-23.149 L 0.382,-23.074 L 0.884,-16.658 L 0.46,-16.581 L -2.762,-15.997 L -3.333,-23.149" fill="#CCCCCC" stroke="#000000" stroke-width="0.206" stroke-linejoin="round" stroke-linecap="butt"/><path d=" M 5.846,-22.964 L 6.661,-18.468 L 0.825,-17.409 L 0.382,-23.074 L 5.846,-22.964" fill="#CCCCCC" stroke="#000000" stroke-width="0.206" stroke-linejoin="round" stroke-linecap="butt"/></g><g><path d=" M 0,0"/><path d=" M 35.722,16.379 L 35.722,16.979 L 31.228,21.98 L 26.596,17.857 L 26.596,17.257 L 31.228,21.38 L 35.722,16.379" fill="#000000" stroke="#000000" stroke-width="0.206" stroke-linejoin="round" stroke-linecap="butt"/><path d=" M 31.228,21.38 L 26.596,17.257 L 31.099,12.187 L 35.722,16.379 L 31.228,21.38" fill="#CCCCCC" stroke="#000000" stroke-width="0.206" stroke-linejoin="round" stroke-linecap="butt"/></g><g><path d=" M 0,0"/><path d=" M -12.37,4.295 L -4.836,-9.307 L 12.061,-1.271 L 2.709,12.836 L -3.526,7.237 L -12.37,4.295" fill="#000000" fill-opacity="0"/></g><g><path d=" M 0,0"/><path d=" M -8.601,-13.728 L 17.087,-18.386 L 12.061,-1.271 L -4.836,-9.307 L -8.601,-13.728" fill="#000000" fill-opacity="0"/></g><g><path d=" M 0,0"/><path d=" M 12.061,-1.271 L 26.174,6.971 L 12.539,23.009 L 8.056,17.604 L 2.709,12.836 L 12.061,-1.271" fill="#000000" fill-opacity="0"/></g><g><path d=" M 0,0"/><path d=" M -3.526,7.237 L 2.709,12.836 L -11.003,29.395 L -29.34,13.265 L -19.423,6.31 L -12.37,4.295 L -3.526,7.237" fill="#000000" fill-opacity="0"/></g><g><path d=" M 0,0"/><path d=" M -8.601,-13.728 L -4.836,-9.307 L -12.37,4.295 L -19.423,6.31 L -27.683,-10.297 L -8.601,-13.728" fill="#000000" fill-opacity="0"/></g><g><path d=" M 0,0"/><path d=" M -7.064,-26.584 L -8.601,-13.728 L -27.683,-10.297 L -18.607,-29.464 L -7.064,-26.584" fill="#000000" fill-opacity="0"/></g><g><path d=" M 0,0"/><path d=" M 17.087,-18.386 L 24.107,-25.778 L 37.102,-6.367 L 26.174,6.971 L 12.061,-1.271 L 17.087,-18.386" fill="#000000" fill-opacity="0"/></g><g><path d=" M 0,0"/><path d=" M 5.728,-43.077 L 24.107,-25.778 L 17.087,-18.386 L -8.601,-13.728 L -7.064,-26.584 L 5.728,-43.077" fill="#000000" fill-opacity="0"/></g><g><path d=" M 0,0"/><path d=" M 12.539,23.009 L 26.174,6.971 L 40.662,20.109 L 22.36,40.629 L 17.044,29.88 L 12.539,23.009" fill="#000000" fill-opacity="0"/></g><g><path d=" M 0,0"/><path d=" M 17.044,29.88 L 22.36,40.629 L -1.281,46.914 L -11.003,29.395 L 2.709,12.836 L 8.056,17.604 L 12.539,23.009 L 17.044,29.88" fill="#000000" fill-opacity="0"/></g><g><path d=" M 0,0"/><path d=" M -38.691,17.628 L -29.34,13.265 L -11.003,29.395 L -35.998,44.429 L -38.691,17.628" fill="#000000" fill-opacity="0"/></g><g><path d=" M 0,0"/><path d=" M -19.423,6.31 L -29.34,13.265 L -38.691,17.628 L -47.388,14.205 L -50.776,3.013 L -48.693,-11.673 L -27.683,-10.297 L -19.423,6.31" fill="#000000" fill-opacity="0"/></g><g><path d=" M 0,0"/><path d=" M -44.112,-37.215 L -28.988,-42.104 L -18.607,-29.464 L -27.683,-10.297 L -48.693,-11.673 L -44.741,-26.127 L -44.112,-37.215" fill="#000000" fill-opacity="0"/></g><g><path d=" M 0,0"/><path d=" M -20.387,-54.821 L 5.728,-43.077 L -7.064,-26.584 L -18.607,-29.464 L -28.988,-42.104 L -20.387,-54.821" fill="#000000" fill-opacity="0"/></g><g><path d=" M 0,0"/><path d=" M 36.982,-37.195 L 57.022,-22.01 L 51.028,-7.126 L 37.102,-6.367 L 24.107,-25.778 L 36.982,-37.195" fill="#000000" fill-opacity="0"/></g><g><path d=" M 0,0"/><path d=" M 37.102,-6.367 L 51.028,-7.126 L 70.901,14.874 L 57.409,22.683 L 40.662,20.109 L 26.174,6.971 L 37.102,-6.367" fill="#000000" fill-opacity="0"/></g><g><path d=" M 0,0"/><path d=" M 39.232,-50.451 L 36.982,-37.195 L 24.107,-25.778 L 5.728,-43.077 L 15.757,-62.419 L 39.232,-50.451" fill="#000000" fill-opacity="0"/></g><g><path d=" M 0,0"/><path d=" M -11.003,29.395 L -1.281,46.914 L -10.736,67.746 L -27.377,69.473 L -39.63,56.2 L -35.998,44.429 L -11.003,29.395" fill="#000000" fill-opacity="0"/></g><g><path d=" M 0,0"/><path d=" M 40.662,20.109 L 57.409,22.683 L 64.03,37.568 L 35.809,62.072 L 29.148,50.567 L 22.36,40.629 L 40.662,20.109" fill="#000000" fill-opacity="0"/></g><g><path d=" M 0,0"/><path d=" M -10.736,67.746 L -1.281,46.914 L 22.36,40.629 L 29.148,50.567 L 2.236,78.074 L -10.736,67.746" fill="#000000" fill-opacity="0"/></g><g><path d=" M 0,0"/><path d=" M -38.691,17.628 L -35.998,44.429 L -39.63,56.2 L -55.846,55.744 L -66.181,23.06 L -47.388,14.205 L -38.691,17.628" fill="#000000" fill-opacity="0"/></g><g><path d=" M 0,0"/><path d=" M 15.757,-62.419 L 5.728,-43.077 L -20.387,-54.821 L -19.871,-73.757 L -12.614,-82.701 L 13.184,-84.069 L 15.757,-62.419" fill="#000000" fill-opacity="0"/></g><g><path d=" M 0,0"/><path d=" M -44.741,-26.127 L -48.693,-11.673 L -75.369,-15.177 L -76.272,-44.058 L -67.897,-45.257 L -58.335,-46.807 L -48.676,-45.171 L -44.112,-37.215 L -44.741,-26.127" fill="#000000" fill-opacity="0"/></g><g><path d=" M 0,0"/><path d=" M -75.369,-15.177 L -48.693,-11.673 L -50.776,3.013 L -47.388,14.205 L -66.181,23.06 L -82.798,18.772 L -87.409,-10.537 L -75.369,-15.177" fill="#000000" fill-opacity="0"/></g><g><path d=" M 0,0"/><path d=" M -20.387,-54.821 L -28.988,-42.104 L -44.112,-37.215 L -48.676,-45.171 L -58.335,-46.807 L -53.316,-73.072 L -19.871,-73.757 L -20.387,-54.821" fill="#000000" fill-opacity="0"/></g><g><path d=" M 0,0"/><path d=" M 85.087,-35.086 L 57.022,-22.01 L 36.982,-37.195 L 39.232,-50.451 L 56.598,-62.265 L 86.136,-48.45 L 85.087,-35.086" fill="#000000" fill-opacity="0"/></g><g><path d=" M 0,0"/><path d=" M 51.028,-7.126 L 57.022,-22.01 L 85.087,-35.086 L 100.034,-16.242 L 92.982,7.628 L 70.901,14.874 L 51.028,-7.126" fill="#000000" fill-opacity="0"/></g><g><path d=" M 0,0"/><path d=" M 56.598,-62.265 L 39.232,-50.451 L 15.757,-62.419 L 13.184,-84.069 L 54.33,-77.561 L 56.598,-62.265" fill="#000000" fill-opacity="0"/></g><g><path d=" M 0,0"/><path d=" M 29.148,50.567 L 35.809,62.072 L 44.577,70.268 L 13.816,100.89 L 2.236,78.074 L 29.148,50.567" fill="#000000" fill-opacity="0"/></g><g><path d=" M 0,0"/><path d=" M 57.409,22.683 L 70.901,14.874 L 92.982,7.628 L 108.155,17.136 L 74.662,48.596 L 64.03,37.568 L 57.409,22.683" fill="#000000" fill-opacity="0"/></g><g><path d=" M 0,0"/><path d=" M -82.798,18.772 L -66.181,23.06 L -55.846,55.744 L -77.302,68.166 L -97.388,35.606 L -82.798,18.772" fill="#000000" fill-opacity="0"/></g><g><path d=" M 0,0"/><path d=" M 64.03,37.568 L 74.662,48.596 L 87.438,64.789 L 70.06,75.728 L 54.766,78.375 L 44.577,70.268 L 35.809,62.072 L 64.03,37.568" fill="#000000" fill-opacity="0"/></g><g><path d=" M 0,0"/><path d=" M -10.736,67.746 L 2.236,78.074 L 13.816,100.89 L -11.02,116.254 L -35.891,90.824 L -27.377,69.473 L -10.736,67.746" fill="#000000" fill-opacity="0"/></g><g><path d=" M 0,0"/><path d=" M -12.614,-82.701 L -19.871,-73.757 L -53.316,-73.072 L -59.452,-83.858 L -58.022,-95.625 L -22.214,-102.297 L -12.614,-82.701" fill="#000000" fill-opacity="0"/></g><g><path d=" M 0,0"/><path d=" M -39.63,56.2 L -27.377,69.473 L -35.891,90.824 L -64.926,103.444 L -82.281,85.873 L -77.302,68.166 L -55.846,55.744 L -39.63,56.2" fill="#000000" fill-opacity="0"/></g><g><path d=" M 0,0"/><path d=" M -53.316,-73.072 L -58.335,-46.807 L -67.897,-45.257 L -76.272,-44.058 L -83.558,-46.394 L -89.754,-52.267 L -93.014,-75.762 L -59.452,-83.858 L -53.316,-73.072" fill="#000000" fill-opacity="0"/></g><g><path d=" M 0,0"/><path d=" M 26.354,-124.633 L 13.184,-84.069 L -12.614,-82.701 L -22.214,-102.297 L -20.264,-119.465 L 26.354,-124.633" fill="#000000" fill-opacity="0"/></g><g><path d=" M 0,0"/><path d=" M -76.272,-44.058 L -75.369,-15.177 L -87.409,-10.537 L -115.076,-12.741 L -126.094,-44.536 L -89.754,-52.267 L -83.558,-46.394 L -76.272,-44.058" fill="#000000" fill-opacity="0"/></g><g><path d=" M 0,0"/><path d=" M -87.409,-10.537 L -82.798,18.772 L -97.388,35.606 L -114.713,37.154 L -131.473,1.59 L -115.076,-12.741 L -87.409,-10.537" fill="#000000" fill-opacity="0"/></g><g><path d=" M 0,0"/><path d=" M 43.996,129.266 L 13.816,100.89 L 44.577,70.268 L 54.766,78.375 L 70.06,75.728 L 68.519,101.845 L 43.996,129.266" fill="#000000" fill-opacity="0"/></g><g><path d=" M 0,0"/><path d=" M 94.318,-107.34 L 86.136,-48.45 L 56.598,-62.265 L 54.33,-77.561 L 74.738,-115.817 L 94.318,-107.34" fill="#000000" fill-opacity="0"/></g><g><path d=" M 0,0"/><path d=" M 87.438,64.789 L 74.662,48.596 L 108.155,17.136 L 127.98,35.668 L 120.336,57.264 L 87.438,64.789" fill="#000000" fill-opacity="0"/></g><g><path d=" M 0,0"/><path d=" M 74.738,-115.817 L 54.33,-77.561 L 13.184,-84.069 L 26.354,-124.633 L 28.735,-127.089 L 71.275,-120.611 L 74.738,-115.817" fill="#000000" fill-opacity="0"/></g><g><path d=" M 0,0"/><path d=" M 85.087,-35.086 L 86.136,-48.45 L 138.993,-69.522 L 139.34,-27.979 L 100.034,-16.242 L 85.087,-35.086" fill="#000000" fill-opacity="0"/></g><g><path d=" M 0,0"/><path d=" M 92.982,7.628 L 100.034,-16.242 L 139.34,-27.979 L 150.979,-19.107 L 141.054,30.063 L 127.98,35.668 L 108.155,17.136 L 92.982,7.628" fill="#000000" fill-opacity="0"/></g><g><path d=" M 0,0"/><path d=" M 70.06,75.728 L 87.438,64.789 L 110.544,117.838 L 68.519,101.845 L 70.06,75.728" fill="#000000" fill-opacity="0"/></g><g><path d=" M 0,0"/></g></g><g><path d=" M 0,0"/></g><g><path d=" M 0,0"/><g transform="translate(10 854.645)"><path d=" M 0,0"/><path d=" M 0,-12 L 195,-12 L 195,0 L 0,0 L 0,-12" fill="#FF0000" fill-opacity="0"/><path d=" M 0,-12 L 0,0 L 194.345,0 L 194.345,-12 M 48.586,0 L 48.586,-6 M 97.173,0 L 97.173,-12 M 145.759,0 L 145.759,-6" stroke="#000000" stroke-width="1.6" stroke-linejoin="miter" stroke-linecap="butt"/><text dominant-baseline="text-before-edge" transform="translate(-6.311 -38.076) scale(0.1 0.1)" style="font: 210px IM Fell Great Primer, serif" fill="#000000">0</text><text dominant-baseline="text-before-edge" transform="translate(85.98 -38.076) scale(0.1 0.1)" style="font: 210px IM Fell Great Primer, serif" fill="#000000">50</text><text dominant-baseline="text-before-edge" transform="translate(177.821 -38.076) scale(0.1 0.1)" style="font: 210px IM Fell Great Primer, serif" fill="#000000">100</text><text dominant-baseline="text-before-edge" transform="translate(210.87 -38.076) scale(0.1 0.1)" style="font: 210px IM Fell Great Primer, serif" fill="#000000">m</text></g></g><g><path d=" M 0,0"/><g transform="translate(630 774.645)"><path d=" M 0,0"/><path d=" M 80,0 Q 80,33.137 56.569,56.569 Q 33.137,80 0,80 L 0,80 Q -33.137,80 -56.569,56.569 Q -80,33.137 -80,0 L -80,0 Q -80,-33.137 -56.569,-56.569 Q -33.137,-80 0,-80 L 0,-80 Q 33.137,-80 56.569,-56.569 Q 80,-33.137 80,0 L 80,0" fill="#FF0000" fill-opacity="0"/><path d=" M 50.939,0 Q 50.939,21.1 36.019,36.019 Q 21.1,50.939 0,50.939 L 0,50.939 Q -21.1,50.939 -36.019,36.019 Q -50.939,21.1 -50.939,0 L -50.939,0 Q -50.939,-21.1 -36.019,-36.019 Q -21.1,-50.939 0,-50.939 L 0,-50.939 Q 21.1,-50.939 36.019,-36.019 Q 50.939,-21.1 50.939,0 L 50.939,0" stroke="#000000" stroke-width="1.6" stroke-linejoin="round" stroke-linecap="butt"/><path d=" M 0,0 L 52.153,52.153 L 0,8.107 L 0,0 M 0,0 L -52.153,52.153 L -8.107,0 L 0,0 M 0,0 L -52.153,-52.153 L 0,-8.107 L 0,0 M 0,0 L 52.153,-52.153 L 8.107,0 L 0,0" fill="#000000"/><path d=" M 0,0 L 0,8.107 L -52.153,52.153 L 0,0 M 0,0 L -8.107,0 L -52.153,-52.153 L 0,0 M 0,0 L 0,-8.107 L 52.153,-52.153 L 0,0 M 0,0 L 8.107,0 L 52.153,52.153 L 0,0" fill="#CCCCCC"/><path d=" M 8.107,0 L 52.153,52.153 L 0,8.107 L -52.153,52.153 L -8.107,0 L -52.153,-52.153 L 0,-8.107 L 52.153,-52.153 L 8.107,0" stroke="#000000" stroke-width="1.6" stroke-linejoin="round" stroke-linecap="butt"/><path d=" M 0,0 L 80,0 L 7.204,7.204 L 0,0 M 0,0 L 0,80 L -7.204,7.204 L 0,0 M 0,0 L -80,0 L -7.204,-7.204 L 0,0 M 0,0 L 0,-80 L 7.204,-7.204 L 0,0" fill="#000000"/><path d=" M 0,0 L 7.204,7.204 L 0,80 L 0,0 M 0,0 L -7.204,7.204 L -80,0 L 0,0 M 0,0 L -7.204,-7.204 L 0,-80 L 0,0 M 0,0 L 7.204,-7.204 L 80,0 L 0,0" fill="#CCCCCC"/><path d=" M 7.204,-7.204 L 80,0 L 7.204,7.204 L 0,80 L -7.204,7.204 L -80,0 L -7.204,-7.204 L 0,-80 L 7.204,-7.204" stroke="#000000" stroke-width="1.6" stroke-linejoin="round" stroke-linecap="butt"/><g transform="translate(0 -80)"><path d=" M 0,0"/><text dominant-baseline="text-before-edge" transform="translate(-11.65 -31.412) scale(0.1 0.1)" style="font: 270px IM Fell Great Primer, serif" fill="#000000">N</text></g></g></g><g><path d=" M 0,0"/><g transform="translate(360 45.012)" stroke="#FCF5E5" stroke-width="6.4"><path d=" M 0,0"/><text dominant-baseline="text-before-edge" transform="translate(-105.412 -35.012)" style="font: 54px IM Fell Great Primer, serif" fill="#000000">Riverdale</text></g><g transform="translate(360 45.012)"><path d=" M 0,0"/><text dominant-baseline="text-before-edge" transform="translate(-105.412 -35.012)" style="font: 54px IM Fell Great Primer, serif" fill="#000000">Riverdale</text></g></g></g></svg>