<?xml version="1.0" encoding="UTF-8" standalone="no"?><svg width="1536" height="1024" xmlns="http://www.w3.org/2000/svg" stroke-linejoin="round" stroke-linecap="round" fill-rule="evenodd" fill="none"><rect x="0" y="0" width="1536" height="1024" fill="#F8F8F4"/><style><![CDATA[@import url("https://fonts.googleapis.com/css2?family=Neuton:wght@800&display=swap");]]></style><defs/><g><path d=" M 0,0"/><g transform="translate(973.807 306.755) rotate(60 0 0) scale(1.426 1.426)"><path d=" M 0,0"/><g><path d=" M 0,0"/><path d=" M 195,120 Q 195,126.213 190.607,130.607 Q 186.213,135 180,135 L 30,135 Q 23.787,135 19.393,130.607 Q 15,126.213 15,120 L 15,-90 Q 15,-96.213 19.393,-100.607 Q 23.787,-105 30,-105 L 180,-105 Q 186.213,-105 190.607,-100.607 Q 195,-96.213 195,-90 L 195,120" fill="#CCCECE" stroke="#CCCECE" stroke-width="3" stroke-linejoin="round" stroke-linecap="butt" stroke-opacity="0.4"/><path d=" M 105,360 Q 105,366.213 100.607,370.607 Q 96.213,375 90,375 L 0,375 Q -6.213,375 -10.607,370.607 Q -15,366.213 -15,360 L -15,150 Q -15,143.787 -10.607,139.393 Q -6.213,135 0,135 L 90,135 Q 96.213,135 100.607,139.393 Q 105,143.787 105,150 L 105,360" fill="#CCCECE" stroke="#CCCECE" stroke-width="3" stroke-linejoin="round" stroke-linecap="butt" stroke-opacity="0.4"/><path d=" M 75,510 Q 75,516.213 70.607,520.607 Q 66.213,525 60,525 L -30,525 Q -36.213,525 -40.607,520.607 Q -45,516.213 -45,510 L -45,390 Q -45,383.787 -40.607,379.393 Q -36.213,375 -30,375 L 60,375 Q 66.213,375 70.607,379.393 Q 75,383.787 75,390 L 75,510" fill="#CCCECE" stroke="#CCCECE" stroke-width="3" stroke-linejoin="round" stroke-linecap="butt" stroke-opacity="0.4"/><path d=" M 45,30 Q 45,36.213 40.607,40.607 Q 36.213,45 30,45 L 0,45 Q -6.213,45 -10.607,40.607 Q -15,36.213 -15,30 L -15,0 Q -15,-6.213 -10.607,-10.607 Q -6.213,-15 0,-15 L 30,-15 Q 36.213,-15 40.607,-10.607 Q 45,-6.213 45,0 L 45,30" fill="#CCCECE" stroke="#CCCECE" stroke-width="3" stroke-linejoin="round" stroke-linecap="butt" stroke-opacity="0.4"/><path d=" M 75,150 Q 75,156.213 70.607,160.607 Q 66.213,165 60,165 L 30,165 Q 23.787,165 19.393,160.607 Q 15,156.213 15,150 L 15,120 Q 15,113.787 19.393,109.393 Q 23.787,105 30,105 L 60,105 Q 66.213,105 70.607,109.393 Q 75,113.787 75,120 L 75,150" fill="#CCCECE" stroke="#CCCECE" stroke-width="3" stroke-linejoin="round" stroke-linecap="butt" stroke-opacity="0.4"/><path d=" M 45,390 Q 45,396.213 40.607,400.607 Q 36.213,405 30,405 L 0,405 Q -6.213,405 -10.607,400.607 Q -15,396.213 -15,390 L -15,360 Q -15,353.787 -10.607,349.393 Q -6.213,345 0,345 L 30,345 Q 36.213,345 40.607,349.393 Q 45,353.787 45,360 L 45,390" fill="#CCCECE" stroke="#CCCECE" stroke-width="3" stroke-linejoin="round" stroke-linecap="butt" stroke-opacity="0.4"/><path d=" M 141.064,113.312 L 131.024,122.38 M 139.07,109.218 L 127.867,119.336 M 138.386,103.94 L 123.773,117.139 M 87.559,130.403 L 84.848,113.499 M 91.792,129.167 L 89.21,113.068 M 95.837,126.763 L 93.537,112.426 M 61.383,125.111 L 56.595,106.566 M 65.485,123.499 L 60.922,105.823 M 68.869,119.101 L 65.156,104.719 M 55.812,119.155 L 40.485,117.779 M 58.78,115.029 L 40.918,113.425 M 57.619,110.532 L 39.87,108.938 M 25.394,115.81 L 39.409,105.044 M 27.728,119.534 L 41.348,109.071 M 29.942,123.35 L 42.659,113.581 M 54.59,133.235 L 31.254,122.342 M 58.974,130.453 L 35.164,119.339 M 61.521,126.814 L 42.565,117.966 M 62.639,123.1 L 65,138.654 M 58.569,125.436 L 60.378,137.361 M 54.595,128.409 L 56.222,139.129 M 167.176,25.799 L 172.372,9.075 M 171.396,26.96 L 176.695,9.905 M 175.827,27.444 L 181.391,9.538 M 33.988,82.116 L 42.034,99.907 M 30.072,84.074 L 37.346,100.158 M 27.256,88.464 L 33.587,102.464 M 43.944,77.958 L 35.859,86.252 M 43.361,72.288 L 30.643,85.335 M 38.832,70.667 L 27.716,82.07 M 77.455,134.432 L 65.395,123.46 M 79.405,130.291 L 63.505,115.826 M 83.588,128.182 L 71.654,117.325 M 180.553,12.235 L 171.036,0.976 M 187.457,13.625 L 175.802,-0.162 M 188.392,7.955 L 179.817,-2.19 M 186.56,36.462 L 177.915,20.724 M 188.698,31.267 L 182.561,20.095 M 193.937,31.718 L 185.624,16.582 M 180.865,50.841 L 171.636,35.956 M 183.597,46.945 L 174.382,32.083 M 186.882,43.94 L 178.385,30.237 M 75.156,146.766 L 56.153,138.675 M 76.555,142.606 L 64.843,137.62 M 81.604,140.001 L 64.071,132.536 M 67.43,143.476 L 54.411,157.18 M 60.8,144.103 L 51.352,154.048 M 58.837,139.818 L 46.643,152.653 M 39.094,70.505 L 24.006,62.501 M 39.056,65.533 L 26.324,58.778 M 43.774,63.083 L 27.727,54.57 M 176.935,130.862 L 175.485,116.792 M 181.418,131.69 L 179.539,113.448 M 185.829,131.806 L 183.894,113.037 M 175.81,119.943 L 162.631,131.755 M 170.885,118.483 L 161.085,127.266 M 169.513,113.837 L 156.544,125.461 M 180.953,107.786 L 178.905,88.868 M 185.489,109.044 L 183.298,88.795 M 189.447,104.952 L 187.791,89.649 M 190.008,116.155 L 176.723,108.591 M 185.432,108.515 L 180.743,105.845 M 194.341,108.553 L 184.851,103.15 M 37.257,133.493 L 29.314,123.397 M 42.323,132.856 L 35.674,124.405 M 44.472,128.512 L 38.468,120.881 M 41.061,152.232 L 42.081,135.053 M 45.335,154.08 L 46.439,135.467 M 50.012,149.106 L 50.725,137.093 M 180.815,80.396 L 180.643,97.514 M 176.455,78.845 L 176.269,97.413 M 172.058,81.042 L 171.879,98.821 M 156.968,125.08 L 146.739,122.734 M 160.956,121.506 L 149.619,118.906 M 164.944,117.932 L 147.707,113.978 M 86.355,144.35 L 73.34,128.75 M 88.189,139.719 L 77.861,127.34 M 91.462,136.813 L 81.1,124.393 M 78.602,153.953 L 60.74,156.224 M 77.092,149.735 L 61.676,151.695 M 72.995,145.846 L 64.106,146.976 M 86.177,162.188 L 72.221,158.323 M 88.255,158.224 L 74.649,154.456 M 89.047,153.903 L 74.969,150.005 M 91.194,149.856 L 80.73,138.012 M 96.234,148.953 L 85.512,136.816 M 99.075,145.561 L 88.829,133.963 M 183.961,86.069 L 185.91,69.587 M 188.223,87.287 L 190.227,70.338 M 192.612,87.424 L 194.861,68.411 M 185.241,75.245 L 171.899,73.78 M 185.755,70.9 L 171.031,69.284 M 190.121,66.978 L 172.154,65.006 M 53.552,162.739 L 36.243,158.174 M 52.903,158.043 L 35.864,153.55 M 47.24,152.025 L 45.484,151.562 M 29.577,80.161 L 18.714,69.747 M 32.63,77.028 L 20.243,65.152 M 35.684,73.895 L 23.041,61.774 M 14.043,57.855 L 16.863,42.886 M 17.794,61.576 L 21.097,44.042 M 21.369,66.231 L 25.575,43.904 M 28.387,53.177 L 25.422,44.718 M 32.534,51.784 L 26.664,35.035 M 36.5,49.87 L 30.33,32.267 M 21.363,73.23 L 8.444,58.6 M 23.565,69.114 L 13.51,57.727 M 22.334,61.11 L 18.664,56.955 M 91.091,136.368 L 107.553,126.668 M 93.951,139.761 L 106.677,132.262 M 96.901,143.1 L 111.867,134.282 M 84.744,142.555 L 81.523,151.82 M 81.078,139.777 L 77.297,150.65 M 75.603,142.201 L 74.163,146.343 M 17.994,92.072 L 13.451,73.018 M 21.482,87.835 L 17.394,70.691 M 25.749,86.868 L 22.541,73.416 M 31.063,96.883 L 14.004,96.822 M 29.082,92.501 L 15.773,92.453 M 30.061,88.129 L 17.043,88.083 M 199.642,39.473 L 185.301,41.391 M 198.747,35.179 L 182.774,37.315 M 193.779,31.429 L 184.479,32.673 M 180.134,55.168 L 189.553,42.565 M 177.781,65.623 L 194.572,43.158 M 188.223,58.96 L 196.256,48.213 M 104.125,138.844 L 98.756,159.698 M 98.148,144.512 L 94.424,158.977 M 93.332,145.669 L 90.37,157.173 M 83.61,161.477 L 90.485,156.727 M 85.97,165.164 L 99.81,155.603 M 87.1,169.7 L 102.938,158.759 M 140.965,137.432 L 140.59,119.513 M 145.289,134.939 L 144.942,118.404 M 149.703,136.769 L 149.422,123.349 M 164.081,138.009 L 149.688,136.032 M 165.133,133.737 L 149.595,131.603 M 165.318,129.347 L 149.502,127.174 M 18.886,24.863 L 33.044,15.298 M 20.53,29.032 L 36.404,18.309 M 23.17,32.528 L 38.063,22.467 M 41.545,-2.411 L 32.954,12.293 M 37.592,-4.318 L 29.738,9.124 M 34.117,-7.042 L 26.381,6.198 M 14.838,12.647 L 16.966,-3.555 M 19.333,12.023 L 21.123,-1.614 M 23.722,12.203 L 25.552,-1.739 M 193.29,-6.885 L 179.721,-9.384 M 195.714,-10.887 L 177.162,-14.304 M 198.104,-14.896 L 180.324,-18.17 M 181.928,0.308 L 195.565,-7.348 M 184.805,3.71 L 198.824,-4.16 M 187.681,7.113 L 200.38,-0.016 M 185.944,17.166 L 193.945,5.062 M 188.324,21.499 L 197.231,8.024 M 192.343,23.354 L 200.852,10.48 M 183.319,88.993 L 186.882,79.694 M 184.351,98.528 L 190.72,81.905 M 188.814,99.107 L 194.807,83.467 M 36.025,107.643 L 20.024,105.864 M 38.7,103.539 L 22.032,101.686 M 31.732,98.362 L 24.121,97.516 M 17.502,120.078 L 13.979,101.155 M 21.688,118.659 L 18.181,99.821 M 25.581,115.666 L 23.835,106.288 M 189.027,-30.948 L 176,-37.74 M 192.533,-34.054 L 177.078,-42.112 M 194.054,-38.194 L 180.476,-45.274 M 187.265,-54.198 L 182.706,-44.112 M 183.525,-56.547 L 177.098,-42.326 M 179.327,-57.881 L 172.54,-42.865 M 194.465,-27.792 L 177.653,-18.721 M 192.567,-31.739 L 178.547,-24.174 M 185.396,-32.841 L 176.691,-28.145 M 123.546,134.083 L 104.984,133.26 M 122.233,129.645 L 103.881,128.831 M 124.93,125.386 L 106.283,124.559 M 128.377,118.876 L 134.143,135.067 M 124.849,122.009 L 130.373,137.52 M 121.35,125.227 L 126.899,140.807 M 101.057,180.084 L 82.193,179.32 M 101.691,175.731 L 81.733,174.923 M 101.073,171.328 L 81.331,170.528 M 107.955,153.18 L 110.223,167.288 M 103.523,153.175 L 106.301,170.455 M 100.284,160.592 L 101.487,168.073 M 109.43,173.611 L 100.282,184.215 M 110.048,166.197 L 98.168,179.967 M 99.885,171.279 L 96.235,175.51 M 182.362,-53.972 L 198.063,-58.073 M 185.488,-50.267 L 200.928,-54.3 M 183.171,-45.14 L 201.578,-49.948 M 185.666,-76.688 L 196.28,-62.107 M 183.283,-72.527 L 194.485,-57.138 M 177.489,-73.053 L 189.938,-55.951 M 184.675,-63.181 L 167.597,-63.891 M 181.388,-67.696 L 168.484,-68.232 M 178.101,-72.211 L 167.855,-72.637 M 186.522,-75.511 L 183.378,-72.396 M 188.406,-83.536 L 177.63,-72.859 M 186.442,-87.749 L 171.056,-72.504 M 200.538,94.711 L 197.691,109.039 M 196.6,92.079 L 193.43,108.034 M 192.821,88.649 L 189.423,105.752 M 200.73,117.347 L 185.181,125.524 M 200.154,112.706 L 184.698,120.835 M 197.191,109.322 L 187.218,114.566 M 81.28,195.269 L 91.319,183.867 M 84.382,198.367 L 95.326,185.935 M 86.381,202.716 L 99.241,188.11 M 86.195,189.686 L 103.58,180.391 M 92.495,191.279 L 106.049,184.033 M 91.717,196.656 L 106.911,188.533 M 27.701,-21.057 L 34.369,-38.528 M 32.704,-21.897 L 37.476,-34.399 M 35.563,-17.118 L 41.573,-32.865 M 30.395,-28.115 L 24.056,-46.15 M 32.809,-34.44 L 28.735,-46.031 M 37.468,-34.378 L 32.414,-48.76 M 176.98,65.536 L 178.874,49.798 M 182.066,59.89 L 183.115,51.179 M 185.679,66.491 L 187.319,52.863 M 190.006,66.966 L 195.022,57.152 M 189.333,77.898 L 198.734,59.5 M 193.586,79.191 L 202.652,61.448 M 5.979,14.909 L -6.678,3.002 M 9.189,11.923 L -2.636,0.798 M 12.382,8.92 L -0.876,-3.553 M 2.143,-0.713 L 13.46,-10.108 M 5.353,2.307 L 15.367,-6.005 M 8.564,5.328 L 16.684,-1.412 M 9.528,33.843 L 20.98,21.291 M 11.621,38.04 L 24.7,23.705 M 15.405,40.384 L 34.168,19.819 M 204.652,-92.083 L 187.043,-82.186 M 201.277,-95.205 L 184.384,-85.71 M 198.182,-98.484 L 183.032,-89.969 M 191.314,-89.605 L 173.584,-84.583 M 189.622,-93.673 L 171.863,-88.643 M 186.428,-97.315 L 170.882,-92.913 M 187.371,-74.345 L 197.4,-85.195 M 189.996,-70.739 L 200.35,-81.941 M 192.621,-67.133 L 204.475,-79.958 M 168.69,-75.42 L 153.694,-88.051 M 171.972,-78.376 L 159.018,-89.286 M 174.876,-81.649 L 160.306,-93.922 M -2.466,-14.66 L 14.629,-21.456 M 0.271,-11.041 L 16.207,-17.376 M 1.648,-6.88 L 18.497,-13.578 M 32.33,-3.983 L 25.384,-0.456 M 36.652,-11.085 L 16.619,-0.912 M 33.305,-14.292 L 20.062,-7.567 M 0.457,-0.3 L -8.846,-12.965 M 4.279,-2.486 L -6.188,-16.736 M 2.711,-12.011 L 0.035,-15.655 M 41.283,148.503 L 25.883,143.783 M 41.549,144.009 L 27.332,139.651 M 41.816,139.515 L 30.357,136.002 M 185.569,-17.204 L 193.559,-27.303 M 190.438,-16.307 L 199.443,-27.688 M 195.307,-15.411 L 203.905,-26.276 M 174.009,-89.251 L 155.911,-103.335 M 169.714,-98.137 L 156.84,-108.155 M 180.17,-95.543 L 157.958,-112.828 M 159.34,-82.087 L 146.469,-86.797 M 160.683,-86.254 L 145.699,-91.738 M 166.334,-88.844 L 149.634,-94.957 M 35.59,-39.723 L 21.448,-58.061 M 35.449,-47.069 L 25.803,-59.578 M 39.297,-49.244 L 29.904,-61.424 M 175.158,130.093 L 167.464,144.553 M 175.413,120.299 L 164.027,141.699 M 165.94,128.789 L 163.432,133.504 M 190.788,138.933 L 171.59,136.799 M 191.279,134.585 L 173.801,132.643 M 185.596,129.552 L 181.147,129.057 M 53.353,-78.734 L 61.932,-94.762 M 57.16,-76.575 L 66.625,-94.258 M 62.347,-76.997 L 70.881,-92.938 M 143.065,-77.614 L 127.707,-87.476 M 145.761,-81.082 L 130.261,-91.035 M 146.873,-85.567 L 132.749,-94.637 M 23.434,159.244 L 19.746,141.886 M 27.428,156.987 L 23.832,140.067 M 31.907,157.019 L 29.318,144.836 M 30.81,-13.025 L 20.437,-20.527 M 38.994,-12.504 L 23.025,-24.055 M 36.54,-19.679 L 32.871,-22.333 M -17.134,25.996 L -16.329,8.515 M -12.818,27.368 L -12.11,11.982 M -8.471,28.079 L -7.753,12.494 M 4.78,38.191 L -10.47,41.679 M 4.54,33.758 L -12.263,37.601 M 5.34,29.088 L -11.837,33.015 M -6.75,21.972 L -4.524,5.029 M -2.479,23.047 L -0.597,8.723 M 1.009,30.078 L 3.33,12.418 M 9.781,46.859 L 2.879,34.138 M 15.765,48.715 L 7.44,33.372 M 15.917,39.822 L 13.709,35.752 M 68.592,-93.932 L 79.32,-109.421 M 72.567,-91.987 L 84.04,-108.553 M 76.514,-90.002 L 87.282,-105.55 M 76.457,-86.413 L 88.962,-95.426 M 77.83,-82.01 L 92.889,-92.863 M 80.002,-78.183 L 95.092,-89.058 M 81.729,-84.82 L 68.253,-88.028 M 76.845,-90.48 L 70.388,-92.017 M 74.95,-95.428 L 70.382,-96.516 M 10.812,201.754 L -7.448,199.911 M 9.712,197.246 L -7.344,195.524 M 12.696,193.15 L -5.561,191.307 M -3.842,211.341 L 8.749,205.838 M -3.37,215.909 L 13.207,208.664 M -2.076,220.118 L 14.758,212.761 M -11.158,200.128 L -14.964,183.838 M -6.698,199.987 L -10.654,183.058 M -4.201,191.444 L -6.159,183.066 M 19.299,-26.151 L 3.807,-33.903 M 24.026,-28.678 L 5.95,-37.722 M 23.112,-34.028 L 7.914,-41.631 M 29.648,-26.16 L 23.712,-23.558 M 29.436,-30.843 L 19.034,-26.284 M 27.981,-34.982 L 19.157,-31.115 M 11.564,-39.806 L 13.252,-53.2 M 15.712,-37.73 L 17.595,-52.67 M 19.86,-35.655 L 22.51,-56.683 M 201.314,-34.608 L 193.708,-27.383 M 198.948,-38.395 L 191.118,-30.957 M 192.976,-38.756 L 189.623,-35.571 M 12.954,-16.082 L 10.952,-19.994 M 21.781,-8.44 L 11.882,-27.778 M 20.551,-20.445 L 17.055,-27.274 M 176.405,-94.477 L 179.899,-110.155 M 181.189,-95.832 L 184.893,-112.455 M 185.973,-97.187 L 189.239,-111.843 M 92.724,-92.744 L 88.268,-109.503 M 97.448,-92.003 L 92.751,-109.671 M 100.874,-96.142 L 97.326,-109.491 M 3.823,150.45 L 6.529,169.339 M -0.406,151.781 L 1.946,168.197 M -4.66,152.932 L -2.468,168.234 M 11.425,158.044 L 2.623,144.11 M 14.994,155.501 L 6.416,141.922 M 18.372,152.657 L 9.852,139.17 M 107.013,-80.487 L 108.81,-98.45 M 111.426,-80.647 L 112.867,-95.06 M 115.803,-80.456 L 117.538,-97.797 M 128.449,-86.999 L 116.019,-82.616 M 134.239,-93.68 L 119.413,-88.452 M 132.081,-97.558 L 116.981,-92.233 M 23.9,140.388 L 10.499,135.729 M 25.652,136.365 L 10.864,131.224 M 27.084,132.231 L 10.836,126.583 M 6.733,144.18 L -2.698,134.308 M 13.472,144.901 L -1.344,129.392 M 10.891,135.865 L 0.977,125.488 M -0.248,152.88 L -8.095,152.028 M 5.798,149.136 L -7.616,147.679 M 2.813,144.411 L -8.371,143.196 M 56.308,-88.172 L 50.639,-101.985 M 59.895,-90.955 L 54.116,-105.036 M 64.725,-90.709 L 59.173,-104.238 M 54.141,-83.085 L 36.188,-84.707 M 55.632,-87.343 L 39.172,-88.83 M 54.815,-91.809 L 37.469,-93.376 M 41.992,-92.968 L 44.513,-108.743 M 46.36,-92.573 L 48.411,-105.413 M 50.727,-92.179 L 51.83,-99.082 M -8.599,46.794 L -23.869,37.109 M -9.019,41.347 L -21.954,33.143 M -8.216,36.675 L -16.995,31.108 M -4.934,8.15 L -16.427,10.633 M -5.771,3.855 L -20.186,6.969 M -0.6,-1.738 L -21.354,2.745 M 100.059,-99.207 L 109.267,-107.708 M 100.643,-93.791 L 112.453,-104.695 M 108.471,-95.065 L 117.232,-103.153 M 92.672,-87.314 L 94.918,-101.518 M 96.562,-83.9 L 99.384,-101.748 M 100.702,-82.075 L 102.882,-95.859 M 121.34,-93.77 L 119.747,-109.395 M 125.585,-95.267 L 123.811,-112.664 M 129.83,-96.765 L 128.421,-110.588 M 99.223,215.935 L 89.684,198.965 M 104.036,215.569 L 92.747,195.486 M 106.748,211.466 L 95.81,192.007 M 94.134,116.147 L 109.939,115.32 M 94.831,120.492 L 109.983,119.698 M 95.528,124.836 L 108.063,124.18 M 70.926,-97.303 L 60.871,-100.1 M 73.563,-101.11 L 60.618,-104.712 M 76.2,-104.918 L 62.168,-108.821 M -2.065,152.683 L -22.535,137.766 M -7.529,143.288 L -19.142,134.825 M -4.108,140.367 L -17.22,130.812 M 11.724,126.892 L 8.823,115.818 M 16.7,128.621 L 13.093,114.853 M 21.676,130.351 L 17.508,114.444 M 36.508,-84.678 L 21.701,-97.735 M 43.878,-84.012 L 23.467,-102.01 M 40.147,-93.135 L 27.099,-104.641 M 17.281,-81.706 L 30.167,-90.269 M 19.142,-77.69 L 33.564,-87.274 M 21.376,-73.922 L 37.436,-84.594 M -11.335,216.858 L -19.647,199.875 M -8.419,212.864 L -14.602,200.231 M -2.289,215.437 L -12.197,195.194 M -2.822,189.433 L -5.054,173.379 M 1.961,192.066 L -0.662,173.197 M 5.929,188.837 L 3.615,172.19 M -0.838,239.966 L -12.084,224.359 M 3.401,238.365 L -6.776,224.242 M 5.829,234.251 L -3.415,221.423 M 14.001,236.258 L 0.471,247.046 M 8.803,234.807 L -1.129,242.726 M 1.183,235.287 L -2.242,238.018 M 76.548,211.391 L 91.793,202.717 M 78.539,215.291 L 93.937,206.531 M 83.705,217.386 L 96.081,210.345 M 112.251,214.289 L 102.79,227.865 M 110.807,208.71 L 100.701,223.211 M 102.544,212.915 L 97.112,220.708 M 84.465,223.453 L 96.81,211.643 M 86.21,227.838 L 99.023,215.58 M 90.275,230.004 L 107.353,213.666 M 189.382,-93.605 L 191.941,-111.608 M 194.174,-96.231 L 195.72,-107.105 M 198.202,-93.476 L 200.617,-110.468 M 12.998,-79.686 L 10.335,-94.274 M 17.843,-77.504 L 14.283,-97.011 M 21.065,-84.22 L 18.638,-97.517 M 22.073,-96.17 L 9.024,-104.981 M 30.746,-95.592 L 12.045,-108.22 M 33.428,-99.06 L 14.229,-112.024 M -20.898,186.525 L -17.131,169.465 M -16.014,184.696 L -12.834,170.295 M -13.103,191.804 L -8.574,171.295 M -2.951,164.862 L -20.385,159.431 M -3.639,160.066 L -16.522,156.052 M -4.326,155.269 L -14.352,152.145 M 22.232,-54.48 L 14.248,-61.044 M 30.796,-53.102 L 15.357,-65.797 M 33.958,-56.167 L 17.193,-69.951 M -11.347,263.118 L -2.159,246.344 M -6.693,263.727 L 2.469,247.002 M -2.133,264.51 L 5.39,250.775 M -16.811,249.14 L -11.834,224.706 M -12.839,251.561 L -8.353,229.536 M -8.26,251.003 L -4.872,234.367 M 21.896,-66.084 L 35.527,-83.325 M 25.276,-63.305 L 34.462,-74.923 M 28.656,-60.526 L 39.109,-73.747 M -9.242,236.5 L -20.879,224.048 M -8.24,231.165 L -19.668,218.936 M -5.423,227.771 L -14.99,217.534 M -11.444,216.636 L -8.433,212.835 M -10.435,222.408 L -3.291,213.39 M -6.552,224.553 L 2.236,213.459 M -3.647,183.496 L -8.778,172.219 M 0.598,182.264 L -8.04,163.277 M 4.844,181.031 L -3.153,163.454 M 138.2,-103.014 L 157.753,-107.444 M 140.07,-98.952 L 156.701,-102.72 M 140.074,-94.467 L 161.165,-99.245 M -17.132,1.833 L -14.393,-13.061 M -12.5,0.833 L -9.782,-13.945 M -7.867,-0.168 L -6.181,-9.337 M 34.578,130.087 L 19.65,122.616 M 30.316,123.062 L 18.174,116.985 M 29.824,117.924 L 25.476,115.747 M -10.608,273.216 L 7.293,263.785 M -6.086,275.778 L 8.525,268.081 M -3.822,279.53 L 9.665,272.425 M -8.146,271.918 L -14.944,261.586 M -4.257,269.87 L -10.144,260.921 M -0.368,267.821 L -5.043,260.715 M 81.118,263.646 L 82.469,248.373 M 85.379,265.121 L 87.053,246.211 M 89.931,263.313 L 91.389,246.844 M 81.92,247.261 L 80.464,231.356 M 86.498,249.286 L 84.821,230.96 M 90.806,248.35 L 88.71,225.447 M 25.221,-70.29 L 6.997,-75.461 M 23.493,-75.328 L 10.187,-79.104 M 22.749,-80.087 L 17.078,-81.696 M 134.607,-93.444 L 128.893,-105.961 M 141.41,-89.075 L 133.659,-106.054 M 141.557,-99.289 L 139.701,-103.354 M 94.427,265.65 L 80.747,275.351 M 91.761,262.177 L 78.268,271.746 M 85.736,261.086 L 76.388,267.716 M 95.926,233.264 L 108.977,223.732 M 96.445,238.302 L 111.907,227.009 M 98.486,242.229 L 113.669,231.139 M -9.529,259.799 L -24.47,258.174 M -7.254,255.645 L -23.349,253.895 M -12.655,250.657 L -20.512,249.803 M 81.223,239.647 L 81.34,220.245 M 85.629,234.555 L 85.703,222.269 M 89.975,239.274 L 90.067,224.149 M 100.2,251.704 L 90.843,253.011 M 100.738,247.211 L 91.239,248.539 M 99.85,242.918 L 90.429,244.234 M 109.88,260.725 L 94.958,270.999 M 107.713,256.905 L 93.061,266.994 M 104.036,254.125 L 90.816,263.228 M 96.269,243.418 L 90.189,241.615 M 101.131,240.297 L 89.989,236.992 M 100.3,235.487 L 90.016,232.437 M 111.271,249.914 L 90.94,251.919 M 110.057,245.638 L 95.739,247.05 M 111.585,241.091 L 96.662,242.563 M 29.039,-14.306 L 21.753,-8.494 M 19.719,-12.468 L 12.973,-7.086 M 17.685,-16.442 L 9.722,-10.089 M 101.206,271.367 L 89.431,284.099 M 96.689,269.807 L 87.021,280.262 M 93.807,266.48 L 82.633,278.562 M 108.115,292.191 L 93.016,300.298 M 105.259,288.759 L 92.216,295.761 M 102.354,285.353 L 86.94,293.628 M 111.985,274.414 L 100.936,288.158 M 107.667,272.802 L 98.191,284.591 M 104.349,269.947 L 92.607,284.555 M 190.416,122.771 L 200.489,139.737 M 186.539,124.81 L 197.063,142.536 M 186.97,134.106 L 189.768,138.819 M -15.34,310.611 L 3.519,305.696 M -12.31,314.343 L 4.941,309.847 M -11.696,318.704 L 6.978,313.837 M 7.084,331.711 L -5.017,316.963 M 9.998,328.365 L 1.398,317.885 M 15.087,327.67 L 4.307,314.533 M 0.758,306.416 L -8.422,294.661 M 6.001,306.022 L -4.8,292.191 M 10.596,304.797 L -1.633,289.138 M 30.257,-101.856 L 40.522,-114.229 M 33.54,-98.961 L 41.63,-108.712 M 36.823,-96.066 L 43.839,-104.523 M 80.319,305.102 L 91.316,291.279 M 83.556,308.061 L 94.179,294.707 M 88.768,308.537 L 97.042,298.136 M 98.647,317.93 L 83.52,323.242 M 97.737,313.613 L 81.333,319.373 M 93.863,310.336 L 81.143,314.802 M 82.241,314.417 L 75.399,304.488 M 86.519,312.915 L 80.757,304.552 M 88.793,308.505 L 86.199,304.739 M -15.63,305.015 L -12.051,289.206 M -12.228,309.8 L -8.328,292.576 M -7.461,308.558 L -5.238,298.738 M -3.838,325.668 L -19.119,332.863 M -5.823,321.767 L -20.252,328.561 M -6.973,317.473 L -22.724,324.889 M -14.46,320.998 L -22.611,311.971 M -10.839,318.481 L -19.798,308.557 M -9.372,313.577 L -12.676,309.917 M -15.038,334.359 L 1.763,331.147 M -12.336,338.296 L 4.377,335.101 M -13.382,342.951 L 5.521,339.337 M 8.414,296.511 L -0.859,290.129 M 10.907,292.915 L -5.338,281.736 M 11.788,288.211 L -2.125,278.636 M 87.303,312.64 L 106.697,302.003 M 89.092,316.649 L 109.406,305.508 M 96.722,317.453 L 110.998,309.624 M -12.559,291.448 L -20.6,286.679 M -3.737,291.594 L -20.307,281.765 M -4.105,286.289 L -16.412,278.989 M -7.698,284.158 L -18.681,272.986 M -1.029,284.701 L -14.463,271.036 M -4.492,274.938 L -7.694,271.68 M 89.717,292.137 L 79.262,285.246 M 94.098,289.785 L 82.445,282.105 M 93.128,283.906 L 90.942,282.465 M -5.67,365.61 L -17.347,350.128 M -2.414,362.662 L -12.18,349.713 M 0.409,359.139 L -9.725,345.701 M -1.228,356.968 L 1.064,340.189 M 3.104,357.581 L 5.389,340.848 M 7.809,355.462 L 10.016,339.3 M -16.793,348.505 L -22.054,324.574 M -12.642,347.008 L -16.068,331.427 M -10.169,337.882 L -11.109,333.608 M 61.454,360.561 L 46.302,370.687 M 58.287,357.415 L 43.344,367.401 M 55.702,353.88 L 42.081,362.983 M 94.755,334.455 L 98.511,317.978 M 99.385,333.832 L 104.032,313.444 M 103.181,336.863 L 106.964,320.267 M 95.977,343.616 L 79.095,337.677 M 94.766,338.552 L 80.949,333.691 M 94.87,333.951 L 83.577,329.978 M 66.273,368.189 L 57.953,362.901 M 71.166,366.114 L 57.893,357.679 M 71.798,361.332 L 57.323,352.133 M 82.463,362.052 L 66.884,355.701 M 86.11,358.814 L 67.848,351.37 M 86.243,354.144 L 71.848,348.276 M 26.952,349.41 L 14.634,363.968 M 22.796,347.548 L 12.168,360.109 M 19.908,344.188 L 8.893,357.207 M 11.249,369.516 L -0.637,362.67 M 14.217,366.176 L -0.811,357.522 M 12.26,360.001 L 3.465,354.935 M -9.045,378.088 L -19.451,364.335 M -3.652,377.966 L -15.475,362.339 M 0.055,375.614 L -11.714,360.059 M 35.671,367.654 L 18.793,359.053 M 39.234,364.559 L 21.695,355.622 M 37.915,358.977 L 24.598,352.191 M 43.649,361.935 L 44.764,366.452 M 37.5,355.279 L 41.797,372.689 M 34.716,362.257 L 38.039,375.722 M 90.335,369.346 L 86.185,354.12 M 94.527,368.088 L 90.593,353.658 M 99.102,368.236 L 94.225,350.346 M 81.531,368.298 L 65.833,372.742 M 78.513,364.605 L 66.144,368.107 M 77.958,360.215 L 66.837,363.363 M 96.153,357.42 L 83.3,348.258 M 94.336,350.752 L 83.852,343.278 M 101.136,350.226 L 87.854,340.758 M 84.937,358.336 L 86.958,379.354 M 81.501,368.306 L 82.535,379.06 M 77.222,369.518 L 78.408,381.85 M 102.349,379.947 L 86.358,373.115 M 104.328,376.035 L 85.881,368.154 M 106.234,372.092 L 94.219,366.958 M -7.251,31.967 L -7.027,15.122 M -2.862,30.963 L -2.702,18.912 M 1.583,25.712 L 1.671,19.116 M 100.671,328.187 L 103.417,345.733 M 97.071,333.477 L 99.056,346.164 M 93.359,338.057 L 94.127,342.965 M 6.18,385.522 L -10.746,381.775 M 4.473,380.663 L -9.424,377.587 M -0.317,375.122 L -6.907,373.663 M 111.132,352.38 L 95.672,355.653 M 110.145,348.117 L 100.917,350.07 M 103.316,345.09 L 99.03,345.998 M 114.646,364.913 L 98.447,365.836 M 114.938,360.514 L 97.271,361.521 M 114.211,356.173 L 96.095,357.206 M 55.725,382.281 L 36.741,370.462 M 58.95,379.135 L 40.563,367.687 M 61.304,375.447 L 49.85,368.316 M 71.184,379.295 L 54.412,376.31 M 77.849,376.037 L 56.008,372.15 M 72.962,370.724 L 57.585,367.987 M 35.001,387.043 L 26.244,373.604 M 39.959,386.637 L 30.963,372.832 M 43.952,384.752 L 38.022,375.651 M 47.665,377.263 L 42.453,396.757 M 41.954,381.685 L 38.164,395.86 M 37.223,382.439 L 34.321,393.294 M 46.256,382.53 L 55.036,381.852 M 45.059,387.01 L 60.888,385.788 M 43.861,391.491 L 58.822,390.336 M 76.15,389.44 L 51.206,386.536 M 76.416,385.066 L 59.087,383.049 M 74.792,380.473 L 60.986,378.865 M 68.977,398.327 L 52.201,405.647 M 69.048,393.522 L 49.845,401.902 M 69.294,388.642 L 49.414,397.317 M 62.175,418.499 L 49.433,413.349 M 63.801,414.437 L 50.253,408.961 M 65,410.202 L 52.936,405.327 M 68.726,398.437 L 68.659,393.692 M 73.15,401.947 L 72.97,389.07 M 77.572,405.284 L 77.348,389.238 M 62.982,414.106 L 73.112,399.197 M 68.236,414.159 L 77.506,400.515 M 70.974,417.913 L 81.66,402.185 M 68.372,424.445 L 58.982,412.489 M 72.789,422.985 L 64.296,412.172 M 72.548,415.596 L 69.712,411.985 M -31.111,382.139 L -24.163,364.953 M -26.636,382.743 L -20.769,368.231 M -22.982,385.377 L -16.167,368.521 M 56.934,432.486 L 45.904,420.081 M 58.756,427.951 L 48.513,416.43 M 62.354,425.413 L 52.858,414.733 M 80.802,427.014 L 66.588,429.174 M 82.523,422.328 L 62.338,425.395 M 81.509,418.057 L 70.26,419.766 M 80.626,442.819 L 65.469,435.782 M 82.995,439.095 L 65.96,431.186 M 83.847,434.668 L 70.678,428.553 M -10.563,399.264 L -22.774,384.864 M -8.241,395.237 L -20.922,380.283 M -4.165,393.28 L -13.984,381.701 M -4.244,392.614 L 11.831,385.328 M -1.254,396.062 L 15.101,388.649 M -1.389,400.926 L 14.298,393.816 M -22.887,379.63 L -26.285,398.521 M -25.115,367.31 L -30.466,397.052 M -31.464,377.892 L -35.023,397.674 M 174.575,-89.411 L 169.143,-93.037 M 175.325,-94.171 L 164.783,-101.208 M 174.266,-100.138 L 166.013,-105.647 M -25.457,414.072 L -38.083,408.177 M -23.239,410.279 L -36.618,404.033 M -18.131,407.836 L -34.055,400.401 M 71.981,446.698 L 55.814,449.644 M 77.31,441.279 L 55.406,445.271 M 70.432,438.086 L 53.01,441.261 M 69.786,457.834 L 70.606,446.948 M 74.264,456.629 L 75.394,441.629 M 78.605,457.249 L 79.723,442.4 M 69.273,435.79 L 52.035,435.051 M 66.157,431.278 L 55.451,430.819 M 78.175,427.414 L 57.49,426.527 M -33.762,390.663 L -47.597,383.07 M -32.945,386.121 L -47.089,378.357 M -32.128,381.579 L -43.621,375.271 M 32.25,382.821 L 15.591,380.196 M 29.034,377.885 L 13.866,375.495 M 31.637,373.866 L 14.306,371.135 M 17.235,390.775 L 33.364,384.53 M 19.555,394.568 L 35.646,388.339 M 21.668,398.441 L 39.299,391.616 M -47.498,409.004 L -44.281,394.023 M -43.457,411.022 L -40.218,395.938 M -39.245,412.245 L -34.521,390.247 M -32.822,410.633 L -48.738,419.694 M -38.514,408.839 L -51.977,416.503 M -42.38,406.006 L -47.478,408.908 M -39.126,420.323 L -26.812,413.44 M -37.598,424.481 L -22.131,415.835 M -34.767,427.911 L -21.12,420.282 M -34.567,431.476 L -45.847,426.372 M -33.455,427.177 L -47.387,420.873 M -33.662,422.281 L -38.617,420.039 M 19.063,403.124 L 12.283,394.729 M 23.276,401.378 L 13.56,389.347 M 22.484,393.434 L 19.598,389.86 M -40.868,433.481 L -25.812,430.304 M -39.779,437.723 L -26.405,434.901 M -41.43,442.542 L -23.92,438.848 M 53.692,464.703 L 55.236,450.512 M 57.925,466.248 L 59.81,448.916 M 62.509,464.564 L 64.3,448.098 M 47.571,466.572 L 58.093,464.701 M 47.586,471.012 L 64.521,468.002 M 50.941,474.86 L 67.293,471.952 M 64.246,472.494 L 75.004,446.812 M 71.04,467.598 L 79.313,447.848 M 74.168,471.455 L 81.438,454.099 M 65.467,472.277 L 65.623,469.206 M 69.58,477.551 L 70.608,457.305 M 74.285,471.177 L 74.939,458.291 M -13.087,445.649 L -31.835,449.189 M -16.953,441.927 L -32.862,444.931 M -16.323,437.356 L -33.695,440.636 M 65.201,482.039 L 45.91,486.764 M 62.994,478.075 L 46.45,482.128 M 61.415,473.958 L 42.818,478.513 M 79.085,482.336 L 61.354,486.715 M 78.755,477.911 L 61.737,482.114 M 69.677,475.646 L 59.264,478.218 M -29.978,464.659 L -31.404,449.108 M -25.902,461.203 L -27.085,448.292 M -21.223,464.314 L -22.766,447.477 M -30.174,462.527 L -25.974,460.411 M -34.432,469.571 L -21.346,462.978 M -30.282,472.379 L -14.173,464.264 M -30.247,461.731 L -46.332,465.478 M -30.65,457.332 L -45.477,460.787 M -31.053,452.934 L -46.447,456.521 M -43.85,446.168 L -29.26,441.007 M -40.753,449.713 L -26.889,444.809 M -41.307,454.55 L -31.231,450.986 M -30.046,479.57 L -46.306,465.472 M -27.089,476.344 L -41.042,464.246 M -30.504,467.592 L -35.778,463.019 M 9.156,384.186 L -3.857,368.739 M 10.717,379.248 L -0.158,366.339 M 13.328,375.557 L 5.401,366.148 M 4.147,504.895 L -7.197,516.971 M -1.309,504.313 L -10.565,514.166 M -2.48,499.169 L -14.427,511.888 M -7.981,505.025 L 16.237,499.665 M 1.862,507.328 L 16.714,504.04 M 1.358,511.92 L 14.702,508.966 M -35.665,518.885 L -28.992,505.244 M -31.491,520.308 L -23.774,504.534 M -26.864,520.807 L -20.851,508.515 M -32.358,512.126 L -33.7,491.594 M -28.23,508.205 L -29.193,493.464 M -24.049,505.096 L -24.997,490.59 M -21.34,519.829 L -3.613,513.156 M -18.136,523.298 L -4.143,518.03 M -18.003,527.923 L -1.097,521.558 M -24.868,485.339 L -40.49,492.271 M -25.126,480.667 L -42.425,488.343 M -31.196,478.574 L -43.274,483.933 M 2.805,511.6 L 11.418,529.045 M 0.095,515.993 L 6.893,529.764 M -1.889,521.857 L 2.677,531.106 M 17.722,507.97 L 28.07,492.594 M 21.455,510.259 L 30.647,496.601 M 24.959,512.888 L 34.545,498.645 M 18.892,520.42 L 13.84,509.157 M 24.071,521.276 L 17.95,507.631 M 25.046,512.759 L 22.937,508.057 M 9.469,525.098 L 16.981,516.159 M 11.048,530.019 L 22.096,516.872 M 13.879,533.451 L 24.551,520.75 M 43.62,511.487 L 31.381,520.352 M 42.386,506.979 L 23.722,520.498 M 38.42,504.45 L 21.893,516.42 M -36.763,473.747 L -55.157,469.603 M -43.75,467.688 L -54.167,465.341 M -40.098,464.026 L -51.455,461.468 M -40.625,454.309 L -51.305,431.823 M -41.375,442.531 L -47.464,429.713 M -38.903,437.538 L -40.834,433.474 M 22.614,518.029 L 27.641,517.659 M 23.188,522.373 L 33.73,521.599 M 19.259,527.049 L 33.833,525.978 M -45.144,456.217 L -54.095,448.348 M -40.67,454.325 L -49.1,446.914 M -39.709,449.344 L -43.474,446.035 M 52.319,500.337 L 52.649,485.113 M 56.691,500.529 L 57.049,484.036 M 61.003,503.508 L 61.367,486.712 M 61.348,487.58 L 68.566,484.934 M 61.246,492.277 L 72.646,488.097 M 61.144,496.975 L 77.319,491.044 M -42.266,483.486 L -53.254,476.761 M -37.407,481.33 L -48.889,474.304 M -32.549,479.174 L -44.129,472.087 M -45.919,504.332 L -45.14,486.425 M -41.515,503.749 L -40.813,487.627 M -37.161,504.333 L -36.56,490.527 M -39.92,517.112 L -50.964,506.469 M -34.419,516.338 L -49.379,501.92 M -32.399,512.209 L -41.501,503.437 M 61.062,500.759 L 77.918,496.685 M 61.258,505.213 L 76.419,501.548 M 64.39,508.957 L 77.182,505.865 M 58.125,515.599 L 51.718,498.916 M 62.467,514.702 L 56.709,499.708 M 63.318,504.715 L 61.737,500.596 M -22.352,535.83 L -26.857,520.792 M -18.423,533.703 L -24.024,515.002 M -15.832,527.105 L -17.09,522.904 M -28.5,514.196 L -30,533.418 M -32.797,513.023 L -34.234,531.438 M -37.233,513.627 L -38.82,533.968 M -25.605,508.277 L -8.922,506.027 M -22.703,512.3 L -13.67,511.082 M -23.48,516.819 L -7.688,514.69 M 43.315,517.428 L 54.83,507.018 M 46.141,520.771 L 56.511,511.396 M 48.153,524.849 L 61.671,512.629 M 39.741,534.075 L 36.86,516.384 M 44.17,534.052 L 40.825,513.512 M 48.167,531.379 L 46.402,520.535 M 67.083,517.721 L 60.541,532.431 M 62.971,516.201 L 55.835,532.245 M 58.494,515.502 L 52.328,529.364 M 65.38,521.55 L 61.459,512.821 M 70.339,521.915 L 64.506,508.929 M 73.946,519.266 L 68.833,507.883 M -38.382,528.361 L -53.035,527.316 M -38.042,524 L -53.284,522.912 M -37.702,519.638 L -50.14,518.75 M 78.526,519.672 L 72.79,534.044 M 74.551,517.829 L 68.395,533.252 M 69.212,519.404 L 63.757,533.071" fill="#CCCECE" stroke="#222022" stroke-width="1" stroke-linejoin="round" stroke-linecap="butt"/></g><g><path d=" M 0,0"/><path d=" M 30,120 L 30,-90 L 180,-90 L 180,120 L 30,120 M 0,360 L 0,150 L 90,150 L 90,360 L 0,360 M -30,510 L -30,390 L 60,390 L 60,510 L -30,510 M 0,30 L 0,0 L 30,0 L 30,30 L 0,30 M 30,127.5 L 30,120 L 60,120 L 60,127.5 L 54,127.5 L 54,142.5 L 60,142.5 L 60,150 L 30,150 L 30,142.5 L 36,142.5 L 36,127.5 L 30,127.5 M 0,367.5 L 0,360 L 30,360 L 30,367.5 L 24,367.5 L 24,382.5 L 30,382.5 L 30,390 L 0,390 L 0,382.5 L 6,382.5 L 6,367.5 L 0,367.5" stroke="#222022" stroke-width="6" stroke-linejoin="round" stroke-linecap="butt"/><path d=" M 30,120 L 30,-90 L 180,-90 L 180,120 L 30,120" fill="#F8F8F4"/><path d=" M 0,360 L 0,150 L 90,150 L 90,360 L 0,360" fill="#F8F8F4"/><path d=" M -30,510 L -30,390 L 60,390 L 60,510 L -30,510" fill="#F8F8F4"/><path d=" M 0,30 L 0,0 L 30,0 L 30,30 L 0,30" fill="#F8F8F4"/><path d=" M 30,127.5 L 30,120 L 60,120 L 60,127.5 L 54,127.5 L 54,142.5 L 60,142.5 L 60,150 L 30,150 L 30,142.5 L 36,142.5 L 36,127.5 L 30,127.5" fill="#F8F8F4"/><path d=" M 0,367.5 L 0,360 L 30,360 L 30,367.5 L 24,367.5 L 24,382.5 L 30,382.5 L 30,390 L 0,390 L 0,382.5 L 6,382.5 L 6,367.5 L 0,367.5" fill="#F8F8F4"/><path d=" M 30,0 L 30,30 M 60,150 L 30,150 M 60,120 L 30,120 M 30,390 L 0,390 M 30,360 L 0,360" stroke="#F8F8F4" stroke-width="1" stroke-linejoin="round" stroke-linecap="butt"/></g><g><path d=" M 0,0"/><path d=" M 181.5,73.457 L 181.5,73.011 L 179.996,73.067 L 175.552,73.431 L 175.552,73.431 L 180.004,73.4 L 181.5,73.457" fill="#222022"/><path d=" M -1.5,248.773 L -1.5,251.613 L 0.343,251.542 L 5.086,248.655 L 10.361,250.215 L 15.596,247.977 L 20.294,250.995 L 25.091,247.613 L 25.091,247.613 L 20.31,250.344 L 15.756,246.766 L 10.344,248.494 L 4.895,246.301 L -0.343,248.844 L -1.5,248.773" fill="#222022"/><path d=" M 30,-60 L 30.75,-60 M 36.125,-60 L 36.875,-60 M 42.25,-60 L 43,-60 M 48.375,-60 L 49.125,-60 M 54.5,-60 L 55.25,-60 M 60.625,-60 L 61.375,-60 M 66.75,-60 L 67.5,-60 M 72.875,-60 L 73.625,-60 M 79,-60 L 79.75,-60 M 85.125,-60 L 85.875,-60 M 91.25,-60 L 92,-60 M 97.375,-60 L 98.125,-60 M 103.5,-60 L 104.25,-60 M 109.625,-60 L 110.375,-60 M 115.75,-60 L 116.5,-60 M 121.876,-60 L 122.626,-60 M 128.001,-60 L 128.751,-60 M 134.126,-60 L 134.876,-60 M 140.251,-60 L 141.001,-60 M 146.376,-60 L 147.126,-60 M 152.501,-60 L 153.251,-60 M 158.626,-60 L 159.376,-60 M 164.751,-60 L 165.501,-60 M 170.876,-60 L 171.626,-60 M 177.001,-60 L 177.751,-60 M 30,-30 L 30.75,-30 M 35.529,-30 L 36.279,-30 M 41.057,-30 L 41.807,-30 M 46.586,-30 L 47.336,-30 M 52.115,-30 L 52.865,-30 M 57.643,-30 L 58.393,-30 M 63.172,-30 L 63.922,-30 M 68.7,-30 L 69.45,-30 M 74.229,-30 L 74.979,-30 M 79.758,-30 L 80.508,-30 M 85.286,-30 L 86.036,-30 M 90.815,-30 L 91.565,-30 M 96.344,-30 L 97.094,-30 M 101.872,-30 L 102.622,-30 M 107.401,-30 L 108.151,-30 M 112.93,-30 L 113.68,-30 M 118.458,-30 L 119.208,-30 M 123.987,-30 L 124.737,-30 M 129.516,-30 L 130.266,-30 M 135.044,-30 L 135.794,-30 M 140.573,-30 L 141.323,-30 M 146.101,-30 L 146.851,-30 M 151.63,-30 L 152.38,-30 M 157.159,-30 L 157.909,-30 M 162.687,-30 L 163.437,-30 M 168.216,-30 L 168.966,-30 M 173.745,-30 L 174.495,-30 M 179.273,-30 L 180,-30 M 30,0 L 30.75,0 M 36.614,0 L 37.364,0 M 43.228,0 L 43.978,0 M 49.842,0 L 50.592,0 M 56.456,0 L 57.206,0 M 63.07,0 L 63.82,0 M 69.684,0 L 70.434,0 M 76.299,0 L 77.049,0 M 82.913,0 L 83.663,0 M 89.527,0 L 90.277,0 M 96.141,0 L 96.891,0 M 102.755,0 L 103.505,0 M 109.369,0 L 110.119,0 M 115.983,0 L 116.733,0 M 122.597,0 L 123.347,0 M 129.211,0 L 129.961,0 M 135.825,0 L 136.575,0 M 142.439,0 L 143.189,0 M 149.053,0 L 149.803,0 M 155.667,0 L 156.417,0 M 162.281,0 L 163.031,0 M 168.896,0 L 169.646,0 M 175.51,0 L 176.26,0 M 30,30 L 30.75,30 M 36.433,30 L 37.183,30 M 42.865,30 L 43.615,30 M 49.298,30 L 50.048,30 M 55.73,30 L 56.48,30 M 62.163,30 L 62.913,30 M 68.596,30 L 69.346,30 M 75.028,30 L 75.778,30 M 81.461,30 L 82.211,30 M 87.894,30 L 88.644,30 M 94.326,30 L 95.076,30 M 100.759,30 L 101.509,30 M 107.191,30 L 107.941,30 M 113.624,30 L 114.374,30 M 120.057,30 L 120.807,30 M 126.489,30 L 127.239,30 M 132.922,30 L 133.672,30 M 139.355,30 L 140.105,30 M 145.787,30 L 146.537,30 M 152.22,30 L 152.97,30 M 158.652,30 L 159.402,30 M 165.085,30 L 165.835,30 M 171.518,30 L 172.268,30 M 177.95,30 L 178.7,30 M 30,60 L 30.75,60 M 36.126,60 L 36.876,60 M 42.252,60 L 43.002,60 M 48.379,60 L 49.129,60 M 54.505,60 L 55.255,60 M 60.631,60 L 61.381,60 M 66.757,60 L 67.507,60 M 72.883,60 L 73.633,60 M 79.009,60 L 79.759,60 M 85.136,60 L 85.886,60 M 91.262,60 L 92.012,60 M 97.388,60 L 98.138,60 M 103.514,60 L 104.264,60 M 109.64,60 L 110.39,60 M 115.766,60 L 116.516,60 M 121.893,60 L 122.643,60 M 128.019,60 L 128.769,60 M 134.145,60 L 134.895,60 M 140.271,60 L 141.021,60 M 146.397,60 L 147.147,60 M 152.523,60 L 153.273,60 M 158.65,60 L 159.4,60 M 164.776,60 L 165.526,60 M 170.902,60 L 171.652,60 M 177.028,60 L 177.778,60 M 30,90 L 30.75,90 M 36.585,90 L 37.335,90 M 43.17,90 L 43.92,90 M 49.755,90 L 50.505,90 M 56.34,90 L 57.09,90 M 62.926,90 L 63.676,90 M 69.511,90 L 70.261,90 M 76.096,90 L 76.846,90 M 82.681,90 L 83.431,90 M 89.266,90 L 90.016,90 M 95.851,90 L 96.601,90 M 102.436,90 L 103.186,90 M 109.021,90 L 109.771,90 M 115.606,90 L 116.356,90 M 122.192,90 L 122.942,90 M 128.777,90 L 129.527,90 M 135.362,90 L 136.112,90 M 141.947,90 L 142.697,90 M 148.532,90 L 149.282,90 M 155.117,90 L 155.867,90 M 161.702,90 L 162.452,90 M 168.287,90 L 169.037,90 M 174.872,90 L 175.622,90 M 60,-90 L 60,-89.25 M 60,-83.646 L 60,-82.896 M 60,-77.293 L 60,-76.543 M 60,-70.939 L 60,-70.189 M 60,-64.586 L 60,-63.836 M 60,-58.232 L 60,-57.482 M 60,-51.879 L 60,-51.129 M 60,-45.525 L 60,-44.775 M 60,-39.171 L 60,-38.421 M 60,-32.818 L 60,-32.068 M 60,-26.464 L 60,-25.714 M 60,-20.111 L 60,-19.361 M 60,-13.757 L 60,-13.007 M 60,-7.403 L 60,-6.653 M 60,-1.05 L 60,-0.3 M 60,5.304 L 60,6.054 M 60,11.657 L 60,12.407 M 60,18.011 L 60,18.761 M 60,24.364 L 60,25.114 M 60,30.718 L 60,31.468 M 60,37.072 L 60,37.822 M 60,43.425 L 60,44.175 M 60,49.779 L 60,50.529 M 60,56.132 L 60,56.882 M 60,62.486 L 60,63.236 M 60,68.839 L 60,69.589 M 60,75.193 L 60,75.943 M 60,81.547 L 60,82.297 M 60,87.9 L 60,88.65 M 60,94.254 L 60,95.004 M 60,100.607 L 60,101.357 M 60,106.961 L 60,107.711 M 60,113.314 L 60,114.064 M 60,119.668 L 60,120 M 90,-90 L 90,-89.25 M 90,-83.455 L 90,-82.705 M 90,-76.911 L 90,-76.161 M 90,-70.366 L 90,-69.616 M 90,-63.822 L 90,-63.072 M 90,-57.277 L 90,-56.527 M 90,-50.733 L 90,-49.983 M 90,-44.188 L 90,-43.438 M 90,-37.643 L 90,-36.893 M 90,-31.099 L 90,-30.349 M 90,-24.554 L 90,-23.804 M 90,-18.01 L 90,-17.26 M 90,-11.465 L 90,-10.715 M 90,-4.921 L 90,-4.171 M 90,1.624 L 90,2.374 M 90,8.169 L 90,8.919 M 90,14.713 L 90,15.463 M 90,21.258 L 90,22.008 M 90,27.802 L 90,28.552 M 90,34.347 L 90,35.097 M 90,40.891 L 90,41.641 M 90,47.436 L 90,48.186 M 90,53.981 L 90,54.731 M 90,60.525 L 90,61.275 M 90,67.07 L 90,67.82 M 90,73.614 L 90,74.364 M 90,80.159 L 90,80.909 M 90,86.703 L 90,87.453 M 90,93.248 L 90,93.998 M 90,99.793 L 90,100.543 M 90,106.337 L 90,107.087 M 90,112.882 L 90,113.632 M 90,119.426 L 90,120 M 120,-90 L 120,-89.25 M 120,-84.443 L 120,-83.693 M 120,-78.885 L 120,-78.135 M 120,-73.328 L 120,-72.578 M 120,-67.771 L 120,-67.021 M 120,-62.213 L 120,-61.463 M 120,-56.656 L 120,-55.906 M 120,-51.099 L 120,-50.349 M 120,-45.541 L 120,-44.791 M 120,-39.984 L 120,-39.234 M 120,-34.427 L 120,-33.677 M 120,-28.869 L 120,-28.119 M 120,-23.312 L 120,-22.562 M 120,-17.754 L 120,-17.004 M 120,-12.197 L 120,-11.447 M 120,-6.64 L 120,-5.89 M 120,-1.082 L 120,-0.332 M 120,4.475 L 120,5.225 M 120,10.032 L 120,10.782 M 120,15.59 L 120,16.34 M 120,21.147 L 120,21.897 M 120,26.704 L 120,27.454 M 120,32.262 L 120,33.012 M 120,37.819 L 120,38.569 M 120,43.376 L 120,44.126 M 120,48.934 L 120,49.684 M 120,54.491 L 120,55.241 M 120,60.048 L 120,60.798 M 120,65.606 L 120,66.356 M 120,71.163 L 120,71.913 M 120,76.72 L 120,77.47 M 120,82.278 L 120,83.028 M 120,87.835 L 120,88.585 M 120,93.392 L 120,94.142 M 120,98.95 L 120,99.7 M 120,104.507 L 120,105.257 M 120,110.064 L 120,110.814 M 120,115.622 L 120,116.372 M 150,-90 L 150,-89.25 M 150,-83.809 L 150,-83.059 M 150,-77.617 L 150,-76.867 M 150,-71.426 L 150,-70.676 M 150,-65.234 L 150,-64.484 M 150,-59.043 L 150,-58.293 M 150,-52.851 L 150,-52.101 M 150,-46.66 L 150,-45.91 M 150,-40.468 L 150,-39.718 M 150,-34.277 L 150,-33.527 M 150,-28.085 L 150,-27.335 M 150,-21.894 L 150,-21.144 M 150,-15.702 L 150,-14.952 M 150,-9.511 L 150,-8.761 M 150,-3.32 L 150,-2.57 M 150,2.872 L 150,3.622 M 150,9.063 L 150,9.813 M 150,15.255 L 150,16.005 M 150,21.446 L 150,22.196 M 150,27.638 L 150,28.388 M 150,33.829 L 150,34.579 M 150,40.021 L 150,40.771 M 150,46.212 L 150,46.962 M 150,52.404 L 150,53.154 M 150,58.595 L 150,59.345 M 150,64.787 L 150,65.537 M 150,70.978 L 150,71.728 M 150,77.17 L 150,77.92 M 150,83.361 L 150,84.111 M 150,89.552 L 150,90.302 M 150,95.744 L 150,96.494 M 150,101.935 L 150,102.685 M 150,108.127 L 150,108.877 M 150,114.318 L 150,115.068 M 0,180 L 0.75,180 M 6.634,180 L 7.384,180 M 13.269,180 L 14.019,180 M 19.903,180 L 20.653,180 M 26.537,180 L 27.287,180 M 33.172,180 L 33.922,180 M 39.806,180 L 40.556,180 M 46.44,180 L 47.19,180 M 53.075,180 L 53.825,180 M 59.709,180 L 60.459,180 M 66.343,180 L 67.093,180 M 72.978,180 L 73.728,180 M 79.612,180 L 80.362,180 M 86.246,180 L 86.996,180 M 0,210 L 0.75,210 M 6.669,210 L 7.419,210 M 13.339,210 L 14.089,210 M 20.008,210 L 20.758,210 M 26.677,210 L 27.427,210 M 33.347,210 L 34.097,210 M 40.016,210 L 40.766,210 M 46.685,210 L 47.435,210 M 53.355,210 L 54.105,210 M 60.024,210 L 60.774,210 M 66.694,210 L 67.444,210 M 73.363,210 L 74.113,210 M 80.032,210 L 80.782,210 M 86.702,210 L 87.452,210 M 0,240 L 0.75,240 M 6.291,240 L 7.041,240 M 12.582,240 L 13.332,240 M 18.873,240 L 19.623,240 M 25.164,240 L 25.914,240 M 31.455,240 L 32.205,240 M 37.746,240 L 38.496,240 M 44.037,240 L 44.787,240 M 50.328,240 L 51.078,240 M 56.619,240 L 57.369,240 M 62.91,240 L 63.66,240 M 69.201,240 L 69.951,240 M 75.492,240 L 76.242,240 M 81.783,240 L 82.533,240 M 88.074,240 L 88.824,240 M 0,270 L 0.75,270 M 5.485,270 L 6.235,270 M 10.97,270 L 11.72,270 M 16.456,270 L 17.206,270 M 21.941,270 L 22.691,270 M 27.426,270 L 28.176,270 M 32.911,270 L 33.661,270 M 38.397,270 L 39.147,270 M 43.882,270 L 44.632,270 M 49.367,270 L 50.117,270 M 54.852,270 L 55.602,270 M 60.338,270 L 61.088,270 M 65.823,270 L 66.573,270 M 71.308,270 L 72.058,270 M 76.793,270 L 77.543,270 M 82.279,270 L 83.029,270 M 87.764,270 L 88.514,270 M 0,300 L 0.75,300 M 5.819,300 L 6.569,300 M 11.637,300 L 12.387,300 M 17.456,300 L 18.206,300 M 23.274,300 L 24.024,300 M 29.093,300 L 29.843,300 M 34.911,300 L 35.661,300 M 40.73,300 L 41.48,300 M 46.549,300 L 47.299,300 M 52.367,300 L 53.117,300 M 58.186,300 L 58.936,300 M 64.004,300 L 64.754,300 M 69.823,300 L 70.573,300 M 75.641,300 L 76.391,300 M 81.46,300 L 82.21,300 M 87.279,300 L 88.029,300 M 0,330 L 0.75,330 M 6.536,330 L 7.286,330 M 13.073,330 L 13.823,330 M 19.609,330 L 20.359,330 M 26.145,330 L 26.895,330 M 32.681,330 L 33.431,330 M 39.218,330 L 39.968,330 M 45.754,330 L 46.504,330 M 52.29,330 L 53.04,330 M 58.827,330 L 59.577,330 M 65.363,330 L 66.113,330 M 71.899,330 L 72.649,330 M 78.435,330 L 79.185,330 M 84.972,330 L 85.722,330 M 30,150 L 30,150.75 M 30,156.224 L 30,156.974 M 30,162.449 L 30,163.199 M 30,168.673 L 30,169.423 M 30,174.897 L 30,175.647 M 30,181.121 L 30,181.871 M 30,187.346 L 30,188.096 M 30,193.57 L 30,194.32 M 30,199.794 L 30,200.544 M 30,206.018 L 30,206.768 M 30,212.243 L 30,212.993 M 30,218.467 L 30,219.217 M 30,224.691 L 30,225.441 M 30,230.915 L 30,231.665 M 30,237.14 L 30,237.89 M 30,243.364 L 30,244.114 M 30,249.588 L 30,250.338 M 30,255.812 L 30,256.562 M 30,262.037 L 30,262.787 M 30,268.261 L 30,269.011 M 30,274.485 L 30,275.235 M 30,280.709 L 30,281.459 M 30,286.934 L 30,287.684 M 30,293.158 L 30,293.908 M 30,299.382 L 30,300.132 M 30,305.607 L 30,306.357 M 30,311.831 L 30,312.581 M 30,318.055 L 30,318.805 M 30,324.279 L 30,325.029 M 30,330.504 L 30,331.254 M 30,336.728 L 30,337.478 M 30,342.952 L 30,343.702 M 30,349.176 L 30,349.926 M 30,355.401 L 30,356.151 M 60,150 L 60,150.75 M 60,155.78 L 60,156.53 M 60,161.56 L 60,162.31 M 60,167.34 L 60,168.09 M 60,173.12 L 60,173.87 M 60,178.9 L 60,179.65 M 60,184.68 L 60,185.43 M 60,190.46 L 60,191.21 M 60,196.24 L 60,196.99 M 60,202.02 L 60,202.77 M 60,207.8 L 60,208.55 M 60,213.58 L 60,214.33 M 60,219.36 L 60,220.11 M 60,225.14 L 60,225.89 M 60,230.92 L 60,231.67 M 60,236.7 L 60,237.45 M 60,242.48 L 60,243.23 M 60,248.26 L 60,249.01 M 60,254.04 L 60,254.79 M 60,259.82 L 60,260.57 M 60,265.6 L 60,266.35 M 60,271.38 L 60,272.13 M 60,277.16 L 60,277.91 M 60,282.94 L 60,283.69 M 60,288.72 L 60,289.47 M 60,294.5 L 60,295.25 M 60,300.28 L 60,301.03 M 60,306.06 L 60,306.81 M 60,311.84 L 60,312.59 M 60,317.62 L 60,318.37 M 60,323.4 L 60,324.15 M 60,329.18 L 60,329.93 M 60,334.96 L 60,335.71 M 60,340.74 L 60,341.49 M 60,346.52 L 60,347.27 M 60,352.3 L 60,353.05 M 60,358.08 L 60,358.83 M -30,420 L -29.25,420 M -24.742,420 L -23.992,420 M -19.484,420 L -18.734,420 M -14.226,420 L -13.476,420 M -8.968,420 L -8.218,420 M -3.71,420 L -2.96,420 M 1.549,420 L 2.299,420 M 6.807,420 L 7.557,420 M 12.065,420 L 12.815,420 M 17.323,420 L 18.073,420 M 22.581,420 L 23.331,420 M 27.839,420 L 28.589,420 M 33.097,420 L 33.847,420 M 38.355,420 L 39.105,420 M 43.613,420 L 44.363,420 M 48.871,420 L 49.621,420 M 54.129,420 L 54.879,420 M 59.388,420 L 60,420 M -30,450 L -29.25,450 M -24.134,450 L -23.384,450 M -18.268,450 L -17.518,450 M -12.402,450 L -11.652,450 M -6.536,450 L -5.786,450 M -0.67,450 L 0.08,450 M 5.196,450 L 5.946,450 M 11.062,450 L 11.812,450 M 16.928,450 L 17.678,450 M 22.794,450 L 23.544,450 M 28.66,450 L 29.41,450 M 34.526,450 L 35.276,450 M 40.392,450 L 41.142,450 M 46.258,450 L 47.008,450 M 52.123,450 L 52.873,450 M 57.989,450 L 58.739,450 M -30,480 L -29.25,480 M -24.564,480 L -23.814,480 M -19.129,480 L -18.379,480 M -13.693,480 L -12.943,480 M -8.258,480 L -7.508,480 M -2.822,480 L -2.072,480 M 2.614,480 L 3.364,480 M 8.049,480 L 8.799,480 M 13.485,480 L 14.235,480 M 18.921,480 L 19.671,480 M 24.356,480 L 25.106,480 M 29.792,480 L 30.542,480 M 35.227,480 L 35.977,480 M 40.663,480 L 41.413,480 M 46.099,480 L 46.849,480 M 51.534,480 L 52.284,480 M 56.97,480 L 57.72,480 M 0,390 L 0,390.75 M 0,395.788 L 0,396.538 M 0,401.575 L 0,402.325 M 0,407.363 L 0,408.113 M 0,413.151 L 0,413.901 M 0,418.939 L 0,419.689 M 0,424.726 L 0,425.476 M 0,430.514 L 0,431.264 M 0,436.302 L 0,437.052 M 0,442.09 L 0,442.84 M 0,447.877 L 0,448.627 M 0,453.665 L 0,454.415 M 0,459.453 L 0,460.203 M 0,465.241 L 0,465.991 M 0,471.028 L 0,471.778 M 0,476.816 L 0,477.566 M 0,482.604 L 0,483.354 M 0,488.391 L 0,489.141 M 0,494.179 L 0,494.929 M 0,499.967 L 0,500.717 M 0,505.755 L 0,506.505 M 30,390 L 30,390.75 M 30,396.066 L 30,396.816 M 30,402.132 L 30,402.882 M 30,408.198 L 30,408.948 M 30,414.264 L 30,415.014 M 30,420.33 L 30,421.08 M 30,426.396 L 30,427.146 M 30,432.462 L 30,433.212 M 30,438.528 L 30,439.278 M 30,444.594 L 30,445.344 M 30,450.66 L 30,451.41 M 30,456.726 L 30,457.476 M 30,462.792 L 30,463.542 M 30,468.858 L 30,469.608 M 30,474.924 L 30,475.674 M 30,480.99 L 30,481.74 M 30,487.056 L 30,487.806 M 30,493.122 L 30,493.872 M 30,499.188 L 30,499.938 M 30,505.254 L 30,506.004 M 30,0 L 30,0.75 M 30,5.934 L 30,6.684 M 30,11.868 L 30,12.618 M 30,17.802 L 30,18.552 M 30,23.736 L 30,24.486 M 30,29.669 L 30,30 M 60,150 L 59.25,150 M 53.723,150 L 52.973,150 M 47.446,150 L 46.696,150 M 41.168,150 L 40.418,150 M 34.891,150 L 34.141,150 M 30,120 L 30.75,120 M 36.636,120 L 37.386,120 M 43.272,120 L 44.022,120 M 49.908,120 L 50.658,120 M 56.544,120 L 57.294,120 M 30,390 L 29.25,390 M 23.783,390 L 23.033,390 M 17.566,390 L 16.816,390 M 11.35,390 L 10.6,390 M 5.133,390 L 4.383,390 M 0,360 L 0.75,360 M 6.498,360 L 7.248,360 M 12.996,360 L 13.746,360 M 19.494,360 L 20.244,360 M 25.992,360 L 26.742,360" fill="#222022" stroke="#222022" stroke-width="1.5" stroke-linejoin="round" stroke-linecap="butt"/></g><g clip-path="url(#instance477)"><path d=" M 0,0"/><clipPath id="instance477" fill="#FFFFFF"><path d=" M 0,0"/><path d=" M 30,120 L 30,-90 L 180,-90 L 180,120 L 30,120" fill="#FF0000"/><path d=" M 0,360 L 0,150 L 90,150 L 90,360 L 0,360" fill="#FF0000"/><path d=" M -30,510 L -30,390 L 60,390 L 60,510 L -30,510" fill="#FF0000"/><path d=" M 0,30 L 0,0 L 30,0 L 30,30 L 0,30" fill="#FF0000"/><path d=" M 30,127.5 L 30,120 L 60,120 L 60,127.5 L 54,127.5 L 54,142.5 L 60,142.5 L 60,150 L 30,150 L 30,142.5 L 36,142.5 L 36,127.5 L 30,127.5" fill="#FF0000"/><path d=" M 0,367.5 L 0,360 L 30,360 L 30,367.5 L 24,367.5 L 24,382.5 L 30,382.5 L 30,390 L 0,390 L 0,382.5 L 6,382.5 L 6,367.5 L 0,367.5" fill="#FF0000"/></clipPath></g><g><path d=" M 0,0"/><path d=" M 50.865,-88.406 L 51.053,-88.219 L 48.122,-87.937 L 42.073,-87.562 L 37.443,-86.1 L 34.231,-83.551 L 32.438,-79.915 L 32.063,-75.191 L 31.781,-72.923 L 31.594,-73.111 L 31.5,-77.028 L 31.5,-88.5 L 45.953,-88.5 L 50.865,-88.406 M 178.406,-79.188 L 178.219,-79.001 L 177.938,-80.256 L 177.563,-82.953 L 176.57,-85.07 L 174.961,-86.607 L 172.734,-87.562 L 169.89,-87.937 L 168.562,-88.219 L 168.749,-88.406 L 171.257,-88.5 L 178.5,-88.5 L 178.5,-81.586 L 178.406,-79.188 M 162.142,118.406 L 161.954,118.219 L 164.384,117.938 L 169.43,117.563 L 173.309,116.3 L 176.02,114.151 L 177.563,111.114 L 177.938,107.189 L 178.219,105.321 L 178.406,105.508 L 178.5,108.827 L 178.5,118.5 L 166.302,118.5 L 162.142,118.406" fill="#222022"/><path d=" M 12.05,151.594 L 12.238,151.781 L 10.776,152.063 L 7.666,152.438 L 5.239,153.762 L 3.496,156.037 L 2.438,159.262 L 2.063,163.437 L 1.781,165.43 L 1.594,165.243 L 1.5,161.737 L 1.5,151.5 L 9.342,151.5 L 12.05,151.594 M 88.406,164.592 L 88.219,164.779 L 87.938,162.894 L 87.563,158.937 L 86.632,155.875 L 85.147,153.708 L 83.106,152.438 L 80.51,152.063 L 79.306,151.781 L 79.494,151.594 L 81.815,151.5 L 88.5,151.5 L 88.5,161.249 L 88.406,164.592 M 79.836,358.406 L 79.649,358.219 L 80.796,357.938 L 83.278,357.563 L 85.233,356.483 L 86.661,354.7 L 87.563,352.213 L 87.938,349.021 L 88.219,347.519 L 88.406,347.706 L 88.5,350.475 L 88.5,358.5 L 82.073,358.5 L 79.836,358.406" fill="#222022"/><path d=" M -23.707,391.594 L -23.519,391.781 L -24.021,392.063 L -25.213,392.438 L -26.2,393.355 L -26.983,394.815 L -27.562,396.818 L -27.937,399.363 L -28.219,400.541 L -28.406,400.354 L -28.5,398.07 L -28.5,391.5 L -24.975,391.5 L -23.707,391.594 M 58.406,401.751 L 58.219,401.938 L 57.938,400.527 L 57.563,397.516 L 56.656,395.164 L 55.219,393.471 L 53.251,392.438 L 50.752,392.063 L 49.597,391.781 L 49.784,391.594 L 52.033,391.5 L 58.5,391.5 L 58.5,399.118 L 58.406,401.751 M -28.406,496.789 L -28.219,496.602 L -27.937,498.256 L -27.562,501.754 L -26.625,504.471 L -25.125,506.407 L -23.062,507.563 L -20.436,507.938 L -19.217,508.219 L -19.405,508.406 L -21.749,508.5 L -28.5,508.5 L -28.5,499.787 L -28.406,496.789 M 45.932,508.406 L 45.745,508.219 L 47.543,507.938 L 51.326,507.563 L 54.257,507.005 L 56.336,506.264 L 57.563,505.34 L 57.938,504.234 L 58.219,503.774 L 58.406,503.962 L 58.5,505.166 L 58.5,508.5 L 49.145,508.5 L 45.932,508.406" fill="#222022"/></g><g><path d=" M 0,0"/><path d=" M 55.332,-87.005 L 55.858,-86.76 L 56.148,-86.163 L 56.202,-85.215 L 56.121,-84.461 L 55.903,-83.902 L 55.551,-83.538 L 55.062,-83.368 L 54.555,-83.406 L 54.029,-83.65 L 53.483,-84.102 L 52.919,-84.761 L 52.745,-85.37 L 52.963,-85.929 L 53.57,-86.438 L 54.569,-86.897 L 55.332,-87.005" fill="#F8F8F4" stroke="#222022" stroke-width="1.5" stroke-linejoin="round" stroke-linecap="butt"/><path d=" M 44.873,-63.976 L 44.678,-64.325 L 44.681,-64.706 L 44.88,-65.119 L 45.171,-65.378 L 45.553,-65.485 L 46.027,-65.438 L 46.593,-65.238 L 46.973,-64.963 L 47.167,-64.614 L 47.176,-64.191 L 46.998,-63.693 L 46.718,-63.391 L 46.336,-63.284 L 45.851,-63.374 L 45.263,-63.659 L 44.873,-63.976" fill="#F8F8F4" stroke="#222022" stroke-width="1.5" stroke-linejoin="round" stroke-linecap="butt"/><path d=" M 49.6,-67.209 L 49.965,-67.331 L 50.326,-67.261 L 50.682,-66.998 L 50.877,-66.677 L 50.91,-66.295 L 50.781,-65.853 L 50.491,-65.352 L 50.163,-65.04 L 49.797,-64.918 L 49.394,-64.986 L 48.953,-65.243 L 48.716,-65.562 L 48.683,-65.944 L 48.854,-66.388 L 49.229,-66.894 L 49.6,-67.209" fill="#F8F8F4" stroke="#222022" stroke-width="1.5" stroke-linejoin="round" stroke-linecap="butt"/><path d=" M 139.639,-39.737 L 139.85,-40.961 L 140.731,-42.074 L 142.282,-43.074 L 143.619,-43.342 L 144.744,-42.879 L 145.656,-41.685 L 146.356,-39.758 L 146.6,-38.183 L 146.388,-36.958 L 145.722,-36.084 L 144.6,-35.56 L 143.476,-35.53 L 142.351,-35.993 L 141.225,-36.95 L 140.097,-38.399 L 139.639,-39.737" fill="#F8F8F4" stroke="#222022" stroke-width="1.5" stroke-linejoin="round" stroke-linecap="butt"/><path d=" M 45.975,106.393 L 45.425,106.118 L 45.098,105.632 L 44.993,104.934 L 45.138,104.352 L 45.532,103.885 L 46.175,103.533 L 47.068,103.297 L 47.789,103.317 L 48.339,103.592 L 48.717,104.123 L 48.923,104.91 L 48.829,105.537 L 48.435,106.004 L 47.741,106.311 L 46.747,106.458 L 45.975,106.393" fill="#F8F8F4" stroke="#222022" stroke-width="1.5" stroke-linejoin="round" stroke-linecap="butt"/><path d=" M 54.768,-74.399 L 54.657,-75.012 L 54.852,-75.573 L 55.354,-76.082 L 55.914,-76.319 L 56.532,-76.284 L 57.208,-75.976 L 57.943,-75.396 L 58.366,-74.799 L 58.477,-74.187 L 58.276,-73.557 L 57.764,-72.912 L 57.199,-72.606 L 56.58,-72.642 L 55.909,-73.018 L 55.186,-73.734 L 54.768,-74.399" fill="#F8F8F4" stroke="#222022" stroke-width="1.5" stroke-linejoin="round" stroke-linecap="butt"/><path d=" M 42.092,-79.089 L 42.037,-79.433 L 42.237,-79.779 L 42.692,-80.124 L 43.095,-80.337 L 43.447,-80.417 L 43.747,-80.363 L 43.996,-80.177 L 44.148,-79.911 L 44.203,-79.567 L 44.161,-79.143 L 44.022,-78.64 L 43.777,-78.349 L 43.425,-78.269 L 42.967,-78.401 L 42.402,-78.745 L 42.092,-79.089" fill="#F8F8F4" stroke="#222022" stroke-width="1.5" stroke-linejoin="round" stroke-linecap="butt"/><path d=" M 46.579,-57.888 L 48.365,-58.269 L 50.364,-57.676 L 52.576,-56.108 L 53.673,-54.43 L 53.656,-52.642 L 52.525,-50.745 L 50.28,-48.738 L 48.265,-47.544 L 46.479,-47.163 L 44.922,-47.594 L 43.595,-48.839 L 42.939,-50.354 L 42.956,-52.142 L 43.645,-54.201 L 45.006,-56.532 L 46.579,-57.888" fill="#F8F8F4" stroke="#222022" stroke-width="1.5" stroke-linejoin="round" stroke-linecap="butt"/><path d=" M 48.783,-77.71 L 49.144,-77.576 L 49.367,-77.198 L 49.453,-76.575 L 49.439,-76.073 L 49.325,-75.692 L 49.112,-75.433 L 48.798,-75.295 L 48.461,-75.293 L 48.101,-75.427 L 47.717,-75.696 L 47.31,-76.101 L 47.163,-76.494 L 47.277,-76.874 L 47.651,-77.243 L 48.286,-77.598 L 48.783,-77.71" fill="#F8F8F4" stroke="#222022" stroke-width="1.5" stroke-linejoin="round" stroke-linecap="butt"/><path d=" M 9.219,183.444 L 9.584,183.655 L 9.755,184.105 L 9.734,184.795 L 9.626,185.335 L 9.433,185.726 L 9.154,185.967 L 8.79,186.058 L 8.425,185.998 L 8.06,185.787 L 7.695,185.425 L 7.329,184.912 L 7.242,184.461 L 7.435,184.07 L 7.908,183.741 L 8.66,183.473 L 9.219,183.444" fill="#F8F8F4" stroke="#222022" stroke-width="1.5" stroke-linejoin="round" stroke-linecap="butt"/><path d=" M 6.798,322.322 L 18.342,321.444 L 19.22,332.988 L 7.677,333.866 L 6.798,322.322" fill="#F8F8F4" stroke="#222022" stroke-width="1.5" stroke-linejoin="round" stroke-linecap="butt"/><path d=" M 18.635,325.292 L 7.091,326.17" stroke="#222022" stroke-width="1.5" stroke-linejoin="round" stroke-linecap="butt"/><path d=" M 18.928,329.14 L 7.384,330.018" stroke="#222022" stroke-width="1.5" stroke-linejoin="round" stroke-linecap="butt"/><path d=" M 65.98,316.721 L 73.009,328.151 L 61.578,335.18 L 54.549,323.75 L 65.98,316.721" fill="#F8F8F4" stroke="#222022" stroke-width="1.5" stroke-linejoin="round" stroke-linecap="butt"/><path d=" M 69.198,330.494 L 62.17,319.064" stroke="#222022" stroke-width="1.5" stroke-linejoin="round" stroke-linecap="butt"/><path d=" M 65.388,332.837 L 58.36,321.407" stroke="#222022" stroke-width="1.5" stroke-linejoin="round" stroke-linecap="butt"/><path d=" M 5.158,343.163 L 18.678,334.505 L 27.337,348.025 L 13.816,356.684 L 5.158,343.163" fill="#F8F8F4" stroke="#222022" stroke-width="1.5" stroke-linejoin="round" stroke-linecap="butt"/><path d=" M 21.565,339.012 L 8.044,347.67" stroke="#222022" stroke-width="1.5" stroke-linejoin="round" stroke-linecap="butt"/><path d=" M 24.451,343.518 L 10.93,352.177" stroke="#222022" stroke-width="1.5" stroke-linejoin="round" stroke-linecap="butt"/><path d=" M -21.46,417.208 L -21.907,416.757 L -21.979,416.035 L -21.674,415.041 L -21.304,414.298 L -20.869,413.807 L -20.369,413.567 L -19.803,413.578 L -19.296,413.809 L -18.849,414.26 L -18.461,414.931 L -18.132,415.821 L -18.185,416.512 L -18.62,417.004 L -19.437,417.295 L -20.636,417.388 L -21.46,417.208" fill="#F8F8F4" stroke="#222022" stroke-width="1.5" stroke-linejoin="round" stroke-linecap="butt"/><path d=" M 42.475,501.775 L 42.636,501.351 L 42.969,501.075 L 43.473,500.945 L 43.912,501.008 L 44.284,501.262 L 44.59,501.708 L 44.831,502.346 L 44.871,502.877 L 44.71,503.302 L 44.348,503.619 L 43.785,503.829 L 43.318,503.807 L 42.946,503.553 L 42.668,503.066 L 42.486,502.347 L 42.475,501.775" fill="#F8F8F4" stroke="#222022" stroke-width="1.5" stroke-linejoin="round" stroke-linecap="butt"/><path d=" M 60,510 L -30,510 L -29.135,501.221 L -26.575,492.779 L -22.416,484.999 L -16.82,478.18 L -10.001,472.584 L -2.221,468.425 L 6.221,465.865 L 15,465 L 23.779,465.865 L 32.221,468.425 L 40.001,472.584 L 46.82,478.18 L 52.416,484.999 L 56.575,492.779 L 59.135,501.221 L 60,510" fill="#F8F8F4"/><path d=" M -30,510 L -29.135,501.221 L -26.575,492.779 L -22.416,484.999 L -16.82,478.18 L -10.001,472.584 L -2.221,468.425 L 6.221,465.865 L 15,465 L 23.779,465.865 L 32.221,468.425 L 40.001,472.584 L 46.82,478.18 L 52.416,484.999 L 56.575,492.779 L 59.135,501.221 L 60,510" stroke="#222022" stroke-width="1.5" stroke-linejoin="round" stroke-linecap="butt"/><path d=" M -22.5,510 L -21.779,502.684 L -19.645,495.649 L -16.18,489.166 L -11.517,483.483 L -5.834,478.82 L 0.649,475.355 L 7.684,473.221 L 15,472.5 L 22.316,473.221 L 29.351,475.355 L 35.834,478.82 L 41.517,483.483 L 46.18,489.166 L 49.645,495.649 L 51.779,502.684 L 52.5,510" stroke="#222022" stroke-width="1.5" stroke-linejoin="round" stroke-linecap="butt"/><path d=" M 3,495 L 27,495 L 27,507 L 3,507 L 3,495" fill="#F8F8F4" stroke="#222022" stroke-width="1.5" stroke-linejoin="round" stroke-linecap="butt"/><path d=" M 21.26,501.15 L 21,501.3 L 20.74,501.15 L 20.74,500.85 L 21,500.7 L 21.26,500.85 L 21.26,501.15" fill="#F8F8F4" stroke="#222022" stroke-width="1.5" stroke-linejoin="round" stroke-linecap="butt"/><path d=" M 9.26,501.15 L 9,501.3 L 8.74,501.15 L 8.74,500.85 L 9,500.7 L 9.26,500.85 L 9.26,501.15" fill="#F8F8F4" stroke="#222022" stroke-width="1.5" stroke-linejoin="round" stroke-linecap="butt"/></g><g transform="translate(5.796 -1.553)" style="mix-blend-mode: multiply" clip-path="url(#instance478)"><path d=" M 0,0"/><path d=" M 30,120 L 30,-90 L 180,-90 L 180,120 L 30,120 M 0,360 L 0,150 L 90,150 L 90,360 L 0,360 M -30,510 L -30,390 L 60,390 L 60,510 L -30,510 M 0,30 L 0,0 L 30,0 L 30,30 L 0,30 M 30,127.5 L 30,120 L 60,120 L 60,127.5 L 54,127.5 L 54,142.5 L 60,142.5 L 60,150 L 30,150 L 30,142.5 L 36,142.5 L 36,127.5 L 30,127.5 M 0,367.5 L 0,360 L 30,360 L 30,367.5 L 24,367.5 L 24,382.5 L 30,382.5 L 30,390 L 0,390 L 0,382.5 L 6,382.5 L 6,367.5 L 0,367.5" stroke="#CCCCCC" stroke-width="13.2" stroke-linejoin="round" stroke-linecap="butt"/><path d=" M 30,120 L 30,-90 L 180,-90 L 180,120 L 30,120" fill="#FFFFFF"/><path d=" M 0,360 L 0,150 L 90,150 L 90,360 L 0,360" fill="#FFFFFF"/><path d=" M -30,510 L -30,390 L 60,390 L 60,510 L -30,510" fill="#FFFFFF"/><path d=" M 0,30 L 0,0 L 30,0 L 30,30 L 0,30" fill="#FFFFFF"/><path d=" M 30,127.5 L 30,120 L 60,120 L 60,127.5 L 54,127.5 L 54,142.5 L 60,142.5 L 60,150 L 30,150 L 30,142.5 L 36,142.5 L 36,127.5 L 30,127.5" fill="#FFFFFF"/><path d=" M 0,367.5 L 0,360 L 30,360 L 30,367.5 L 24,367.5 L 24,382.5 L 30,382.5 L 30,390 L 0,390 L 0,382.5 L 6,382.5 L 6,367.5 L 0,367.5" fill="#FFFFFF"/><clipPath id="instance478" fill="#FFFFFF" transform="translate(-5.796 1.553)"><path d=" M 0,0"/><path d=" M 30,120 L 30,-90 L 180,-90 L 180,120 L 30,120" fill="#FF0000"/><path d=" M 0,360 L 0,150 L 90,150 L 90,360 L 0,360" fill="#FF0000"/><path d=" M -30,510 L -30,390 L 60,390 L 60,510 L -30,510" fill="#FF0000"/><path d=" M 0,30 L 0,0 L 30,0 L 30,30 L 0,30" fill="#FF0000"/><path d=" M 30,127.5 L 30,120 L 60,120 L 60,127.5 L 54,127.5 L 54,142.5 L 60,142.5 L 60,150 L 30,150 L 30,142.5 L 36,142.5 L 36,127.5 L 30,127.5" fill="#FF0000"/><path d=" M 0,367.5 L 0,360 L 30,360 L 30,367.5 L 24,367.5 L 24,382.5 L 30,382.5 L 30,390 L 0,390 L 0,382.5 L 6,382.5 L 6,367.5 L 0,367.5" fill="#FF0000"/></clipPath></g><g><path d=" M 0,0"/><path d=" M 6,3 L 6,27 M 12,6 L 12,24 M 18,9 L 18,21 M 24,12 L 24,18" stroke="#222022" stroke-width="1.5" stroke-linejoin="round" stroke-linecap="butt"/><path d=" M 34.5,131.25 L 55.5,131.25 L 55.5,138.75 L 34.5,138.75 L 34.5,131.25 M 45,131.25 L 45,138.75" fill="#F8F8F4" stroke="#222022" stroke-width="3" stroke-linejoin="round" stroke-linecap="butt"/></g></g><g transform="translate(1030.132 447.08)"><path d=" M 0,0"/><text dominant-baseline="text-before-edge" style="font: 30px Neuton" fill="#222022" transform="translate(-6.541 -18.977)">1</text></g><g transform="translate(691.059 544.076)"><path d=" M 0,0"/><text dominant-baseline="text-before-edge" style="font: 30px Neuton" fill="#222022" transform="translate(-7.683 -18.977)">2</text></g><g transform="translate(428.927 646.034)"><path d=" M 0,0"/><text dominant-baseline="text-before-edge" style="font: 30px Neuton" fill="#222022" transform="translate(-7.734 -18.977)">3</text></g></g></svg>