<?xml version="1.0" encoding="UTF-8" standalone="no"?><svg width="1536" height="1024" xmlns="http://www.w3.org/2000/svg" stroke-linejoin="round" stroke-linecap="round" fill-rule="evenodd" fill="none"><rect x="0" y="0" width="1536" height="1024" fill="#FCF5E5"/><style><![CDATA[@import url("https://fonts.googleapis.com/css2?family=Grenze:wght@700&display=swap");@import url("https://fonts.googleapis.com/css2?family=Neuton:ital@1&display=swap");@import url("https://fonts.googleapis.com/css2?family=Neuton:wght@800&display=swap");]]></style><defs/><g><path d=" M 0,0"/><g transform="translate(695.732 361.184) rotate(20 0 0) scale(1.612 1.612)"><path d=" M 0,0"/><g><path d=" M 0,0"/><path d=" M 105,150 Q 105,156.213 100.607,160.607 Q 96.213,165 90,165 L -60,165 Q -66.213,165 -70.607,160.607 Q -75,156.213 -75,150 L -75,30 Q -75,23.787 -70.607,19.393 Q -66.213,15 -60,15 L 90,15 Q 96.213,15 100.607,19.393 Q 105,23.787 105,30 L 105,150" fill="#CCCECE" stroke="#CCCECE" stroke-width="3" stroke-linejoin="round" stroke-linecap="butt" stroke-opacity="0.4"/><path d=" M 315,150 Q 315,156.213 310.607,160.607 Q 306.213,165 300,165 L 120,165 Q 113.787,165 109.393,160.607 Q 105,156.213 105,150 L 105,0 Q 105,-6.213 109.393,-10.607 Q 113.787,-15 120,-15 L 300,-15 Q 306.213,-15 310.607,-10.607 Q 315,-6.213 315,0 L 315,150" fill="#CCCECE" stroke="#CCCECE" stroke-width="3" stroke-linejoin="round" stroke-linecap="butt" stroke-opacity="0.4"/><path d=" M -75,150 Q -75,156.213 -79.393,160.607 Q -83.787,165 -90,165 L -150,165 Q -156.213,165 -160.607,160.607 Q -165,156.213 -165,150 L -165,60 Q -165,53.787 -160.607,49.393 Q -156.213,45 -150,45 L -90,45 Q -83.787,45 -79.393,49.393 Q -75,53.787 -75,60 L -75,150" fill="#CCCECE" stroke="#CCCECE" stroke-width="3" stroke-linejoin="round" stroke-linecap="butt" stroke-opacity="0.4"/><path d=" M 45,30 Q 45,36.213 40.607,40.607 Q 36.213,45 30,45 L 0,45 Q -6.213,45 -10.607,40.607 Q -15,36.213 -15,30 L -15,0 Q -15,-6.213 -10.607,-10.607 Q -6.213,-15 0,-15 L 30,-15 Q 36.213,-15 40.607,-10.607 Q 45,-6.213 45,0 L 45,30" fill="#CCCECE" stroke="#CCCECE" stroke-width="3" stroke-linejoin="round" stroke-linecap="butt" stroke-opacity="0.4"/><path d=" M 135,90 Q 135,96.213 130.607,100.607 Q 126.213,105 120,105 L 90,105 Q 83.787,105 79.393,100.607 Q 75,96.213 75,90 L 75,60 Q 75,53.787 79.393,49.393 Q 83.787,45 90,45 L 120,45 Q 126.213,45 130.607,49.393 Q 135,53.787 135,60 L 135,90" fill="#CCCECE" stroke="#CCCECE" stroke-width="3" stroke-linejoin="round" stroke-linecap="butt" stroke-opacity="0.4"/><path d=" M -45,120 Q -45,126.213 -49.393,130.607 Q -53.787,135 -60,135 L -90,135 Q -96.213,135 -100.607,130.607 Q -105,126.213 -105,120 L -105,90 Q -105,83.787 -100.607,79.393 Q -96.213,75 -90,75 L -60,75 Q -53.787,75 -49.393,79.393 Q -45,83.787 -45,90 L -45,120" fill="#CCCECE" stroke="#CCCECE" stroke-width="3" stroke-linejoin="round" stroke-linecap="butt" stroke-opacity="0.4"/><path d=" M 345,90 Q 345,96.213 340.607,100.607 Q 336.213,105 330,105 L 300,105 Q 293.787,105 289.393,100.607 Q 285,96.213 285,90 L 285,60 Q 285,53.787 289.393,49.393 Q 293.787,45 300,45 L 330,45 Q 336.213,45 340.607,49.393 Q 345,53.787 345,60 L 345,90" fill="#CCCECE" stroke="#CCCECE" stroke-width="3" stroke-linejoin="round" stroke-linecap="butt" stroke-opacity="0.4"/><path d=" M 311.182,81.919 L 293.645,78.36 M 311.723,77.609 L 293.464,73.904 M 313.129,73.475 L 298.178,70.441 M 302.159,97.781 L 291.266,85.706 M 303.555,92.862 L 293.24,81.427 M 308.726,92.128 L 296.903,79.021 M 298.464,72.662 L 295.832,56.751 M 302.637,71.346 L 300.662,59.413 M 307.18,72.268 L 305.002,59.105 M 306.084,65.645 L 311.357,51.281 M 308.191,72.473 L 315.04,53.817 M 312.485,73.344 L 318.906,55.854 M 289.007,53.617 L 299.517,40.034 M 291.747,57.153 L 303.421,42.067 M 296.132,58.564 L 306.312,45.409 M 327.636,90.155 L 313.479,101.617 M 324.963,86.746 L 309.36,99.379 M 321.227,84.198 L 308.676,94.359 M 328.3,79.586 L 324.169,64.116 M 332.184,77.343 L 328.023,61.761 M 336.479,76.637 L 332.988,63.564 M 318.879,55.926 L 332.579,55.324 M 317.262,60.333 L 329.196,59.808 M 315.644,64.74 L 324.235,64.362 M 323.56,87.882 L 318.541,78.978 M 329.847,90.215 L 320.33,73.33 M 333.085,87.138 L 327.825,77.807 M 219.24,155.453 L 208.351,139.521 M 223.213,153.591 L 213.331,139.132 M 224.79,148.222 L 216.016,135.385 M 284.34,143.739 L 286.499,158.592 M 279.837,142.872 L 282.207,159.178 M 275.543,143.438 L 278.2,161.723 M 252.343,156.565 L 261.754,147.409 M 254.275,160.729 L 266.519,148.815 M 256.358,164.744 L 268.637,152.798 M 282.576,33.868 L 299.218,21.914 M 287.324,35.79 L 301.296,25.754 M 288.571,40.227 L 303.08,29.805 M 308.394,59.351 L 312.269,40.48 M 312.572,60.539 L 316.884,39.539 M 317.848,56.376 L 320.666,42.651 M 298.449,48.493 L 302.379,30.309 M 304.018,43.226 L 307.453,27.334 M 308.463,43.165 L 312.052,26.56 M 291.647,161.566 L 284.566,145.292 M 295.923,160.539 L 289.396,145.537 M 299.983,159.014 L 293.322,143.705 M 291.586,161.427 L 277.581,170.677 M 289.832,157.395 L 274.81,167.317 M 281.95,157.41 L 277.957,160.048 M 277.968,160.125 L 266.18,166.94 M 277.297,155.51 L 262.126,164.281 M 276.626,150.895 L 261.759,159.49 M 304.732,158.323 L 295.149,169.81 M 299.48,157.858 L 289.789,169.474 M 294.442,157.135 L 291.338,160.856 M 271.885,153.636 L 268.407,153.022 M 276.504,150.053 L 261.719,147.442 M 275.848,145.539 L 261.541,143.013 M 236.701,156.941 L 235.237,141.156 M 241.188,158.413 L 239.875,144.258 M 245.471,157.693 L 243.901,140.766 M 236.398,153.674 L 217.428,160.63 M 235.985,149.212 L 219.185,155.373 M 235.571,144.75 L 220.858,150.146 M 252.49,152.302 L 244.197,143.956 M 257.676,151.376 L 246.233,139.861 M 260.781,148.356 L 249.148,136.649 M 290.314,147.647 L 300.585,131.078 M 295.191,148 L 302.653,135.962 M 297.293,152.831 L 306.654,137.728 M 245.132,167.541 L 231.284,159.781 M 250.167,165.397 L 233.206,155.893 M 249.564,160.094 L 240.893,155.235 M 234.563,161.619 L 225.941,173.578 M 233.31,155.951 L 223.022,170.221 M 227.173,157.056 L 220.419,166.425 M 200.488,155.361 L 217.623,153.087 M 203.198,159.371 L 218.795,157.301 M 204.74,163.536 L 219.16,161.622 M 205.421,154.707 L 198.09,145.229 M 209.304,152.648 L 201.095,142.036 M 215.352,153.389 L 204.223,139 M 302.364,103.467 L 302.824,92.052 M 306.68,103.929 L 307.223,90.462 M 311.26,97.84 L 311.492,92.079 M 307.267,120.831 L 293.473,106.3 M 309.859,117.27 L 297.425,104.172 M 312.004,113.239 L 302.379,103.099 M 308.759,121.693 L 312.055,136.726 M 304.42,122.127 L 307.622,136.734 M 300.24,123.288 L 304.255,141.599 M 191.877,165.855 L 200.405,148.223 M 196.448,166.352 L 201.851,155.18 M 199.459,170.074 L 204.734,159.167 M 188.416,164.683 L 172.544,160.468 M 190.476,160.749 L 174.529,156.514 M 192.331,156.76 L 176.689,152.606 M 300.412,131.357 L 286.166,126.415 M 301.053,126.995 L 286.497,121.946 M 304.764,123.698 L 289.015,118.235 M 319.963,150.638 L 300.447,147.742 M 319.606,146.207 L 305.381,144.096 M 321.1,142.05 L 305.418,139.723 M 298.81,156.318 L 311.546,152.47 M 303.918,159.299 L 313.45,156.419 M 298.87,165.35 L 314.21,160.714 M 332.209,106.776 L 316.452,104.16 M 333.965,102.677 L 319.366,100.254 M 335.222,98.495 L 320.378,96.031 M 319.563,104.677 L 312.426,115.337 M 319.855,96.454 L 310.018,111.147 M 316.621,93.5 L 306.962,107.927 M 311.387,92.165 L 304.65,80.593 M 314.793,89.407 L 310.333,81.747 M 318.199,86.649 L 310.181,72.877 M 319.914,115.163 L 309.31,124.209 M 317.436,111.585 L 306.967,120.515 M 310.58,111.739 L 307.281,114.554 M 282.597,0.275 L 299.179,-8.145 M 284.754,4.037 L 301.247,-4.337 M 288.628,6.928 L 302.568,-0.151 M 306.99,29.476 L 297.87,22.883 M 311.822,27.624 L 301.646,20.268 M 314.911,24.513 L 301.17,14.58 M 284.371,13.092 L 274.023,-0.318 M 289.565,12.733 L 277.967,-2.297 M 287.32,2.735 L 284.627,-0.756 M 307.846,11.82 L 297.551,2.397 M 313.022,10.686 L 301.677,0.302 M 315.904,7.453 L 298.976,-8.042 M 304.484,16.975 L 296.14,20.819 M 307.001,11.047 L 294.554,16.781 M 303.535,7.875 L 292.628,12.9 M 285.764,-1.333 L 277.376,-10.929 M 289.748,-3.356 L 280.082,-14.414 M 293.733,-5.379 L 283.491,-17.096 M 297.137,-7.108 L 288.838,-10.978 M 307.648,-6.986 L 292.8,-13.91 M 306.822,-12.15 L 291.25,-19.412 M 303.791,-3.634 L 305.526,-7.975 M 307.206,-0.509 L 313.143,-15.364 M 310.621,2.617 L 316.607,-12.361 M 255.486,172.06 L 245.761,159.569 M 257.072,167.047 L 244.887,151.394 M 258.868,162.303 L 256.191,158.864 M 320.632,3.846 L 312.081,22.467 M 314.711,6.36 L 312.813,10.494 M 309.457,7.423 L 307.558,11.557 M 267.571,6.579 L 272.312,-10.136 M 274.028,-0.312 L 276.881,-10.373 M 277.32,3.954 L 278.79,-1.23 M 269.694,-0.906 L 265.488,-16.128 M 271.97,-8.93 L 269.253,-18.764 M 276.468,-8.915 L 273.344,-20.219 M 267.834,5.651 L 255.854,6.448 M 269.089,1.227 L 254.913,2.169 M 269.084,-3.114 L 253.139,-2.053 M 343.823,57.948 L 326.667,61.161 M 344.003,53.507 L 325.636,56.947 M 342.391,49.403 L 327.59,52.175 M 348.454,61.716 L 339.808,72.69 M 346.562,57.119 L 335.139,71.618 M 339.801,58.701 L 333.743,66.391 M 324.867,29.963 L 309.803,36.964 M 323.549,25.799 L 310.95,31.655 M 321.229,22.101 L 310.853,26.924 M 337.917,94.672 L 330.676,78.824 M 341.424,91.926 L 335.001,77.869 M 345.739,90.948 L 338.814,75.791 M 182.827,-1.823 L 173.527,12.033 M 178.641,-3.358 L 171.372,7.472 M 176.8,-8.388 L 167.159,5.977 M 335.733,79.471 L 343.659,64.499 M 340.559,79.611 L 347.218,67.034 M 342.83,84.58 L 351.282,68.614 M 344.081,87.319 L 345.569,103.882 M 339.833,88.445 L 341.247,104.178 M 335.586,89.57 L 337.158,107.077 M 158.458,10.598 L 152.881,-7.88 M 162.809,10.025 L 157.565,-7.351 M 166.841,8.393 L 161.379,-9.704 M 162.226,-6.898 L 172.711,-14.027 M 163.538,-2.552 L 173.432,-9.279 M 164.849,1.793 L 174.262,-4.606 M 182.9,8.521 L 181.829,-0.336 M 187.462,10.174 L 185.516,-5.924 M 191.368,6.39 L 189.382,-10.03 M 206.718,7.798 L 190.575,-0.162 M 208.082,3.642 L 196.148,-2.243 M 209.542,-0.467 L 194.35,-7.959 M 239.184,3.095 L 246.957,-11.29 M 243.09,4.977 L 252.438,-12.321 M 247.811,5.351 L 256.13,-10.043 M 230.191,10.963 L 217.219,2.723 M 233.173,7.726 L 216.788,-2.683 M 235.823,4.278 L 221.598,-4.758 M 224.061,-3.194 L 232.061,-15.464 M 227.717,-0.871 L 237.129,-15.306 M 231.373,1.451 L 240.644,-12.767 M 318.38,126.008 L 319.907,141.873 M 314.018,125.902 L 315.493,141.218 M 309.656,125.785 L 311.078,140.563 M 255.205,-2.191 L 253.204,-4.628 M 260.518,-2.544 L 255.428,-8.745 M 265.832,-2.897 L 256.434,-14.346 M 201.39,-4.488 L 214.207,-13.022 M 205.879,-2.274 L 217.227,-9.83 M 206.202,2.715 L 219.387,-6.064 M 178.229,-16.428 L 194.853,-16.734 M 180.913,-12.145 L 196.509,-12.433 M 176.358,-7.73 L 189.631,-7.974 M 196.298,-6.999 L 195.546,-12.415 M 200.992,-4.684 L 198.998,-19.043 M 205.054,-6.927 L 203.153,-20.608 M 327.786,52.138 L 321.675,43.702 M 332.495,51.256 L 325.775,41.978 M 337.204,50.374 L 323.036,30.814 M 162.423,157.129 L 169.814,144.184 M 165.767,160.008 L 174.28,145.096 M 168.071,164.708 L 178.253,146.873 M 176.585,149.796 L 174.615,136.619 M 181.578,153.905 L 179.018,136.775 M 186.138,155.116 L 183.524,137.624 M 326.688,90.923 L 328.389,87.628 M 328.249,97.338 L 334.025,86.155 M 332.739,98.083 L 335.815,92.127 M 238.797,-9.934 L 236.331,-14.082 M 245.087,-7.829 L 237.674,-20.298 M 250.065,-7.931 L 240.517,-23.992 M 225.427,-5.289 L 213.216,-12.362 M 227.796,-8.922 L 212.09,-18.019 M 228.169,-13.712 L 215.348,-21.137 M 142.48,14.435 L 131.551,1.238 M 147.569,13.789 L 135.6,-0.663 M 150.804,10.905 L 139.386,-2.882 M 135.848,17.681 L 122.24,28.967 M 131.312,15.816 L 120.72,24.601 M 129.699,11.527 L 118.946,20.445 M 115.972,53.342 L 103.825,40.295 M 119.643,50.928 L 105.655,35.905 M 122.139,47.253 L 109.79,33.989 M 118.284,25.285 L 117.674,42.457 M 113.988,24.198 L 113.499,37.973 M 109.602,25.672 L 109.107,39.612 M 130.247,48.519 L 117.152,58.129 M 125.666,46.508 L 111.658,56.788 M 120.187,45.157 L 116.672,47.737 M 154.256,-3.325 L 144.182,-13.711 M 158.098,-5.584 L 145.536,-18.536 M 161.94,-7.844 L 149.132,-21.05 M 165.43,-9.076 L 180.241,-21.49 M 168.045,-5.617 L 181.005,-16.479 M 177.33,-7.747 L 182.614,-12.177 M 335.163,47.555 L 343.041,35.766 M 338.672,50.099 L 345.888,39.301 M 341.261,54.021 L 349.75,41.318 M 101.126,24.767 L 108.26,8.485 M 105.422,25.757 L 112.809,8.894 M 109.55,27.126 L 116.851,10.462 M 133.62,3.737 L 128.435,12.575 M 130.754,0.062 L 123.143,13.037 M 125.689,0.137 L 117.707,13.743 M 116.233,11.872 L 112.334,9.979 M 120.433,9.096 L 108.072,3.095 M 122.631,5.349 L 106.906,-2.286 M 120.397,-9.049 L 135.737,-15.809 M 120.961,-4.564 L 134.479,-10.521 M 121.778,-0.191 L 140.096,-8.263 M 124.284,-6.028 L 123.067,-0.759 M 120.551,-9.117 L 117.758,2.983 M 117.212,-13.91 L 113.761,1.042 M 122.457,103.136 L 121.268,84.18 M 126.815,103.425 L 125.542,83.13 M 131.038,101.571 L 129.845,82.531 M 121.857,93.561 L 113.281,110.251 M 121.327,85.114 L 109.587,107.965 M 114.023,89.852 L 105.154,107.115 M 125.748,86.408 L 113.629,78.835 M 129.931,83.915 L 117.096,75.894 M 134.864,81.89 L 117.473,71.023 M 113.737,90.41 L 105.686,97.209 M 117.71,81.385 L 104.955,92.156 M 113.851,78.974 L 102.113,88.888 M 114.19,110.668 L 131.255,103.981 M 113.698,115.513 L 130.923,108.763 M 116.113,119.218 L 132.219,112.907 M 133.625,-5.412 L 141.001,-19.878 M 139.896,-8.175 L 145.358,-18.887 M 140.729,-0.274 L 146.41,-11.415 M 113.43,-4.866 L 105.089,-17.269 M 116.026,-8.768 L 107.993,-20.712 M 120.906,-9.273 L 112.969,-21.074 M 128.143,134.729 L 117.567,118.649 M 131.263,131.591 L 121.689,117.034 M 135.635,130.355 L 125.811,115.418 M 106.716,37.044 L 105.814,42.432 M 103.621,29.298 L 100.804,46.131 M 99.092,30.118 L 96.561,45.244 M 88.044,38.592 L 93.448,20.933 M 92.733,38.073 L 97.408,22.796 M 98.363,34.474 L 101.814,23.197 M 123.789,70.38 L 113.821,55.201 M 128.019,68.931 L 119.698,56.26 M 130.734,65.175 L 123.195,53.694 M 112.881,50.022 L 95.791,55.975 M 109.657,46.559 L 91.98,52.716 M 100.995,44.989 L 90.992,48.474 M 114.773,66.282 L 99.249,54.77 M 120.198,64.912 L 104.197,53.047 M 114.098,54.997 L 109.144,51.324 M 89.251,34.647 L 75.561,34.061 M 90.561,30.368 L 76.334,29.758 M 91.87,26.089 L 75.687,25.396 M 81.612,49.592 L 85.613,34.491 M 86.106,49.541 L 90.161,34.235 M 89.899,52.136 L 94.047,36.482 M 85.631,6.673 L 93.18,21.808 M 81.272,7.637 L 90.445,26.028 M 77.301,9.38 L 85.499,25.816 M 100.588,111.128 L 87.573,102.224 M 102.964,107.506 L 88.049,97.303 M 103.682,102.749 L 91.386,94.337 M 106.626,92.846 L 96.311,97.706 M 104.83,88.904 L 92.166,94.871 M 111.464,80.991 L 89.9,91.151 M 116.402,122.692 L 105.94,115.087 M 117.982,118.486 L 113.824,115.464 M 118.61,113.588 L 114.452,110.566 M 100.796,106.022 L 108.055,101.468 M 96.308,113.95 L 111.364,104.506 M 100.698,116.309 L 114.673,107.543 M 118.858,71.888 L 110.845,81.513 M 117.705,66.503 L 109.621,76.214 M 113.215,65.127 L 104.778,75.262 M 163.269,135.288 L 162.909,151.422 M 158.963,134.1 L 158.529,153.564 M 154.613,134.882 L 154.221,152.477 M 141.788,0.019 L 150.345,-7.357 M 144.552,3.355 L 153.366,-4.242 M 147.315,6.692 L 155.222,-0.124 M 88.228,61.645 L 75.19,48.439 M 91.415,58.709 L 81.782,48.951 M 90.135,51.247 L 86.602,47.669 M 98.342,70.358 L 82.978,61.956 M 100.055,66.359 L 84.461,57.83 M 102.468,62.742 L 87.097,54.335 M 153.836,-16.2 L 170.238,-22.281 M 157.131,-12.803 L 168.303,-16.944 M 160.426,-9.405 L 170.101,-12.992 M 163.482,157.084 L 147.476,162.035 M 165.371,151.967 L 149.449,156.891 M 158.619,149.521 L 154.257,150.87 M 143.855,164.181 L 135.026,149.99 M 147.598,161.997 L 137.511,145.785 M 149.51,156.872 L 143.021,146.442 M 167.901,173.308 L 154.724,159.793 M 169.717,168.966 L 159.371,158.356 M 169.38,162.416 L 166.234,159.19 M 101.533,24.116 L 106.827,22.548 M 100.013,29.084 L 109.582,26.249 M 103.052,32.701 L 109.419,30.814 M 94.034,106.645 L 77.331,103.077 M 95.775,102.587 L 76.636,98.5 M 97.515,98.53 L 75.1,93.743 M 84.952,67.135 L 96.164,88.199 M 81.133,69.179 L 92.242,90.048 M 78.83,74.07 L 85.21,86.056 M 84.436,34.441 L 64.957,32.725 M 84.719,30.118 L 62.982,28.203 M 85.002,25.795 L 65.102,24.041 M 96.454,25.912 L 92.962,22.521 M 101.236,24.518 L 92.86,16.385 M 103.091,20.282 L 93.562,11.03 M 113.667,137.157 L 98.178,134.878 M 115.908,133.109 L 98.422,130.536 M 118.987,129.184 L 99.118,126.26 M 103.539,135.667 L 86.52,123.758 M 105.183,131.531 L 89.537,120.582 M 106.827,127.395 L 94.647,118.872 M 118.854,123.962 L 125.416,140.462 M 116.1,128.759 L 121.368,142.002 M 112.999,132.681 L 117.239,143.341 M 140.215,158.331 L 122.975,159.639 M 137.635,154.183 L 119.31,155.573 M 135.054,150.035 L 120.099,151.17 M 154.309,148.54 L 144.053,148.101 M 154.405,144.209 L 139.679,143.579 M 154.502,139.878 L 139.6,139.24 M 137.667,146.037 L 133.364,150.163 M 138.015,139.702 L 126.568,150.679 M 137.237,134.448 L 122.587,148.495 M 124.075,147.069 L 114.764,145.156 M 127.872,143.427 L 116.33,141.056 M 124.567,138.326 L 119.491,137.283 M 113.838,160.433 L 113.653,146.811 M 118.173,160.657 L 117.971,145.815 M 122.432,155.336 L 122.373,150.997 M 48.687,37.551 L 59.416,24.88 M 52.116,40.204 L 65.753,24.099 M 54.842,43.687 L 67.608,28.61 M 48.423,16.51 L 64.028,12.159 M 48.856,20.886 L 64.749,16.454 M 53.265,24.153 L 68.018,20.039 M 82.803,20.411 L 65.157,19.422 M 80.577,15.948 L 64.728,15.06 M 78.351,11.485 L 64.509,10.709 M 163.302,168.591 L 141.069,167.743 M 158.912,164.089 L 143.431,163.499 M 155.294,159.617 L 145.894,159.258 M 39.26,30.991 L 43.137,12.643 M 43.585,31.474 L 47.329,13.754 M 47.865,32.168 L 50.336,20.473 M 53.642,2.928 L 42.813,14.174 M 50.998,-0.57 L 37.544,13.402 M 47.818,-3.513 L 34.638,10.176 M 142.267,161.628 L 136.31,171.866 M 139.126,158.413 L 132.015,170.636 M 133.884,158.811 L 128.052,168.834 M 100.364,141.171 L 113.245,137.095 M 99.544,145.973 L 116.191,140.706 M 100.414,150.241 L 115.807,145.37 M 92.76,146.171 L 82.725,135.687 M 97.713,145.081 L 87.08,133.973 M 99.239,140.411 L 89.583,130.324 M 94.379,155.024 L 94.505,141.73 M 98.734,152.612 L 98.853,140.008 M 103.096,149.392 L 103.139,144.836 M 109.258,175.525 L 95.912,160.079 M 112.481,172.629 L 100.449,158.705 M 113.874,167.618 L 103.926,156.105 M 101.739,160.198 L 102.594,149.551 M 106.201,158.738 L 107.053,148.14 M 110.177,163.339 L 111.511,146.729 M 103.099,168.396 L 84.644,160.613 M 96.708,161 L 87.315,157.039 M 101.877,158.48 L 88.726,152.933 M 133.08,160.193 L 111.323,171.29 M 124.923,159.491 L 112.38,165.888 M 118.138,158.089 L 113.836,160.283 M 38.278,6.396 L 28.628,-6.933 M 41.33,3.226 L 32.688,-8.712 M 44.382,0.056 L 36.147,-11.32 M 24.401,10.221 L 35.912,3.127 M 23.648,15.774 L 37.422,7.285 M 28.846,17.658 L 40.162,10.684 M 18.136,-2.373 L 28.875,-6.593 M 18.09,2.299 L 31.497,-2.97 M 20.769,5.9 L 34.12,0.653 M 27.73,32.8 L 32.806,15.217 M 32.145,33.123 L 37.964,12.966 M 36.715,32.909 L 41.011,18.027 M 28.287,30.871 L 33.356,28.927 M 22.119,37.875 L 36.92,32.199 M 25.813,41.098 L 40.592,35.43 M 37.473,36.626 L 42.399,21.641 M 40.214,42.156 L 45.246,26.851 M 45.313,40.515 L 52.06,19.993 M 93.119,123.089 L 90.281,108.843 M 97.027,120.537 L 94.295,106.823 M 101.304,119.838 L 99.706,111.819 M 105.769,7.532 L 99.679,-11.838 M 107.279,-2.105 L 104.466,-11.053 M 112.637,0.496 L 108.775,-11.788 M 27.9,32.213 L 9.403,28.847 M 29.107,28.03 L 11.648,24.854 M 30.315,23.847 L 10.519,20.246 M 86.672,154.131 L 73.05,142.596 M 94.38,154.982 L 75.478,138.977 M 90.285,145.84 L 77.935,135.382 M 14.863,11.614 L 10.178,-3.612 M 19.07,10.559 L 14.625,-3.889 M 22.017,5.409 L 20.74,1.258 M 86.691,162.747 L 73.027,156.929 M 90.37,159.607 L 73.491,152.419 M 84.755,152.508 L 77.684,149.497 M 58.457,147.886 L 67.479,137.746 M 59.775,152.921 L 72.154,139.007 M 64.896,153.68 L 74.024,143.421 M 79.067,159.501 L 63.362,164.293 M 79.312,154.898 L 61.447,160.349 M 73.16,152.247 L 59.661,156.365 M 21.523,-22.24 L 23.048,-4.303 M 17.472,-18.765 L 18.842,-2.65 M 13.187,-18.037 L 14.604,-1.365 M 34.14,-6.706 L 36.945,-21.608 M 38.741,-7.737 L 41.72,-23.558 M 42.239,-2.905 L 45.814,-21.892 M 3.565,35.338 L -8.792,29.447 M 8.292,32.793 L -8.673,24.706 M 9.277,28.464 L -4.642,21.829 M 39.336,152.157 L 50.537,140.292 M 43.073,154.508 L 55.753,141.076 M 45.145,158.623 L 59.155,143.781 M -26.412,33.051 L -13.482,23.672 M -24.725,37.178 L -11.732,27.753 M -22.932,41.227 L -7.524,30.052 M -5.115,26.402 L -4.212,10.384 M -0.627,23.743 L 0.169,9.617 M 3.598,25.757 L 4.38,11.869 M -21.32,29.357 L -19.541,10.542 M -16.649,25.969 L -15.48,13.607 M -12.521,28.326 L -10.798,10.106 M 22.728,154.19 L 21.045,136.854 M 27.036,153.746 L 25.487,137.783 M 31.185,151.659 L 29.487,134.17 M -26.317,32.982 L -38.313,23.041 M -22.697,30.356 L -35.157,20.031 M -21.014,26.125 L -32.275,16.794 M 14.063,-7.726 L -4.554,-9.207 M 13.691,-12.1 L -1.112,-13.278 M 13.32,-16.475 L -3.991,-17.852 M 8.045,14.096 L -5.217,5.551 M 9.156,9.66 L -4.416,0.915 M 10.732,5.523 L -3.586,-3.703 M -10.977,11.993 L -23.198,3.217 M -4.274,11.474 L -20.021,0.166 M -4.037,6.312 L -17.665,-3.475 M 63.968,164.108 L 52.166,151.185 M 62.087,155.625 L 55.148,148.026 M 65.528,152.97 L 62.592,149.755 M 64.208,164.035 L 63.973,173.701 M 59.98,159.742 L 59.716,170.599 M 55.76,155.12 L 55.305,173.811 M -53.363,138.932 L -65.306,122.517 M -52.109,133.294 L -60.969,121.116 M -48.077,131.474 L -56.107,120.437 M -60.448,90.914 L -78.108,81.283 M -58.692,86.938 L -74.71,78.203 M -57.165,82.837 L -73.046,74.177 M -68.005,101.708 L -64.004,88.975 M -64.11,103.759 L -58.804,86.876 M -60.273,105.999 L -54.749,88.419 M -64.056,80.047 L -80.319,69.625 M -60.983,76.872 L -77.481,66.299 M -61.536,71.373 L -73.54,63.68 M -69.349,66.367 L -54.166,56.594 M -65.339,68.936 L -51.772,60.204 M -65.333,74.084 L -52.025,65.518 M 33.923,158.725 L 44.689,145.475 M 37.179,161.586 L 47.919,148.369 M 45.312,158.446 L 50.817,151.67 M 20.287,30.828 L 4.697,39.898 M 13.726,29.634 L 2.752,36.018 M 8.093,27.9 L 3.56,30.537 M -56.189,105.884 L -68.361,111.429 M -59.168,102.481 L -71.596,108.144 M -62.721,99.341 L -74.183,104.563 M -36.045,31.335 L -50.238,33.613 M -33.995,26.619 L -53.085,29.683 M -37.047,22.722 L -51.885,25.104 M 41.642,149.226 L 30.706,146.719 M 44.686,145.48 L 30.265,142.175 M 48.918,142.006 L 29.823,137.63 M -29.682,142.517 L -30.275,157.58 M -34.094,144.476 L -34.742,160.942 M -38.43,144.503 L -39.086,161.198 M -11.257,151.614 L -30.184,155.267 M -13.145,147.567 L -30.009,150.822 M -12.44,143.02 L -29.834,146.377 M -14.544,152.248 L -31.405,168.444 M -22.368,153.758 L -32.7,163.683 M -30.184,155.26 L -34.689,159.587 M -55.368,120.145 L -71.029,119.448 M -57.409,115.718 L -70.762,115.124 M -55.338,111.475 L -67.293,110.943 M -49.112,24.659 L -54.147,11.453 M -44.743,23.957 L -50.199,9.649 M -40.375,23.256 L -46.359,7.563 M -48.363,33.312 L -54.894,47.346 M -51.319,29.4 L -58.323,44.447 M -54.185,25.292 L -61.61,41.246 M -57.64,32.715 L -68.612,27.987 M -55.811,28.786 L -69.192,23.021 M -52.062,25.685 L -66.818,19.328 M -49.587,53.175 L -64.355,53.156 M -48.343,48.846 L -64.179,48.824 M -53.574,44.508 L -67.305,44.489 M -67.703,65.307 L -78.148,56.199 M -63.911,62.867 L -76.902,51.539 M -60.119,60.426 L -74.367,48.003 M 34.845,147.668 L 28.282,166.199 M 29.455,149.913 L 24.654,163.468 M 26.276,145.915 L 20.886,161.132 M 34.951,173.552 L 30.107,161.046 M 38.88,171.704 L 32.325,154.781 M 43.396,171.372 L 38.822,159.564 M 21.578,159.18 L 6.236,155.476 M 23.032,155.075 L 7.062,151.219 M 22.366,150.459 L 10.772,147.66 M 0.486,163.051 L -11.371,150.466 M 2.154,158.506 L -7.291,148.48 M 6.578,156.884 L -5.774,143.774 M -7.888,169.992 L -20.866,160.444 M -3.637,167.742 L -22.587,153.801 M -1.464,163.964 L -16.797,152.683 M -73.67,138.581 L -58.243,132.225 M -74.421,143.576 L -55.621,135.829 M -71.481,147.049 L -55.081,140.291 M -70.589,137.312 L -75.977,123.799 M -66.584,135.662 L -71.422,123.531 M -62.579,134.011 L -68.339,119.567 M -67.344,148.319 L -50.439,138.304 M -63.359,150.993 L -49.164,142.583 M -60.929,154.588 L -48.239,147.069 M -67.532,77.82 L -88.198,78.777 M -73.842,73.776 L -88.503,74.455 M -72.665,69.386 L -80.151,69.732 M -89.312,82.571 L -66.534,78.459 M -91.121,87.299 L -75.236,84.431 M -91.666,91.799 L -71.658,88.187 M 13.484,168.331 L -8.189,164.393 M 12.223,163.699 L -1.201,161.261 M 16.082,159.998 L 0.975,157.254 M 8.273,151.512 L -0.388,140.205 M 10.779,147.661 L 2.47,136.814 M 17.473,149.277 L 5.949,134.233 M -74.51,127.478 L -83.469,139.606 M -76.324,122.644 L -85.924,135.64 M -80.025,120.364 L -91.612,136.051 M -76.203,153.991 L -80.968,136.221 M -72.202,152.191 L -77.678,131.767 M -69.333,146.164 L -70.464,141.945 M -85.723,155.027 L -77.37,149.637 M -85.433,159.995 L -72.369,151.565 M -81.435,162.57 L -69.186,154.665 M -15.365,-1.823 L -13.463,-13.514 M -11.436,0.998 L -8.965,-14.189 M -7.507,3.82 L -5.036,-11.366 M -32.788,21.994 L -33.997,5.55 M -28.603,19.837 L -29.709,4.808 M -24.164,21.154 L -25.372,4.718 M -95.113,75.265 L -100.209,59.161 M -91.143,73.454 L -96.773,55.662 M -86.315,74.353 L -92.368,55.225 M -91.383,95.275 L -102.859,83.674 M -89.175,91.349 L -100.113,80.292 M -87.699,86.681 L -96.938,77.343 M -96.573,77.712 L -96.196,71.843 M -92.497,81.832 L -91.821,71.31 M -87.96,78.765 L -87.681,74.417 M -106.516,62.234 L -114.03,50.131 M -103.124,59.486 L -111.798,45.513 M -99.453,57.187 L -106.561,45.738 M -77.451,56.228 L -90.955,59.692 M -78.758,52.091 L -92.264,55.556 M -79.926,47.919 L -96.353,52.134 M -85.123,41.023 L -67.56,34.954 M -81.607,44.39 L -65.85,38.946 M -80.892,48.726 L -64.903,43.201 M 25.111,166.113 L 11.961,171.385 M 25.413,161.326 L 9.669,167.638 M 20.048,158.81 L 9.216,163.153 M -68.763,93.805 L -79.193,103.564 M -71.466,90.403 L -83.794,101.937 M -76.34,89.032 L -85.8,97.883 M -122.473,59.69 L -108.416,59.174 M -122.025,64.007 L -106.784,63.448 M -123.448,68.394 L -106.11,67.758 M -38.807,154.087 L -52.274,149.46 M -38.629,149.568 L -52.759,144.713 M -38.451,145.049 L -49.062,141.404 M -52.508,149.598 L -55.55,167.936 M -57.377,152.483 L -59.66,166.246 M -61.831,152.863 L -64.5,168.957 M -32.195,163.197 L -50.291,165.825 M -39.032,159.813 L -54.577,162.071 M -38.859,155.412 L -50.057,157.038 M -70.707,36.042 L -77.751,29.715 M -60.673,39.233 L -73.971,27.288 M -64.959,29.561 L -73.292,22.077 M -78.863,24.32 L -76.061,10.081 M -75.847,31.425 L -71.926,11.501 M -70.149,24.9 L -67.439,11.134 M -67.944,13.699 L -49.791,10.72 M -68.837,18.235 L -52.578,15.567 M -69.73,22.771 L -61.834,21.475 M -83.991,74.246 L -84.735,58.096 M -79.864,69.719 L -80.45,56.997 M -75.631,67.485 L -76.068,58.013 M -99.18,152.747 L -85.407,139.478 M -95.07,154.802 L -84.176,144.306 M -92.16,158.013 L -78.622,144.969 M -87.163,130.028 L -86.267,140.306 M -91.052,135.293 L -90.278,144.171 M -95.851,130.121 L -94.289,148.035 M -81.684,122.61 L -102.755,115.921 M -86.157,116.646 L -100.154,112.203 M -81.446,113.597 L -99.387,107.902 M -101.746,128.173 L -90.841,119.703 M -97.726,130.535 L -85.829,121.294 M -95.488,134.281 L -83.328,124.836 M -77.322,111.39 L -78.262,125.268 M -81.805,113.483 L -82.408,122.38 M -86.356,116.583 L -86.657,121.031 M -63.192,170.961 L -82.458,167.694 M -64.079,166.417 L -79.503,163.802 M -65.735,161.743 L -77.154,159.807 M -138.919,69.466 L -140.62,50.351 M -134.664,68.423 L -135.982,53.609 M -130.215,69.556 L -131.981,49.701 M -128.135,72.058 L -129.692,56.798 M -123.974,70.173 L -125.394,56.255 M -120.256,63.943 L -120.696,59.625 M -135.801,55.647 L -127.659,38.341 M -131.383,56.43 L -124.218,41.201 M -129.171,61.905 L -119.918,42.235 M 55.435,168.461 L 41.869,167.43 M 55.541,164.126 L 40.136,162.955 M 55.647,159.79 L 39.628,158.572 M -95.802,129.041 L -105.208,153.64 M -103.4,136.784 L -110.251,154.704 M -107.923,136.488 L -113.565,151.244 M -96.8,160.196 L -110.345,174.484 M -99.965,157.24 L -113.282,171.287 M -104.12,155.327 L -116.642,168.536 M -100.645,157.957 L -101.541,144.05 M -95.967,163.197 L -96.789,150.444 M -91.973,157.832 L -92.337,152.169 M -108.459,150.017 L -129.081,160.955 M -111.924,146.952 L -130.854,156.993 M -109.573,140.802 L -131.346,152.351 M -112.057,163.7 L -117.501,154.813 M -108.972,160.445 L -113.667,152.779 M -105.886,157.19 L -109.159,151.847 M -161.368,89.491 L -145.799,79.831 M -159.434,93.388 L -144.584,84.175 M -156.554,96.699 L -142.013,87.677 M -157.361,104.397 L -141.259,98.648 M -152.573,107.286 L -137.399,101.869 M -152.292,111.785 L -138.999,107.039 M -123.292,158.993 L -139.994,167.553 M -125.128,155.067 L -141.329,163.37 M -127.2,151.262 L -141.221,158.448 M -147.725,157.353 L -142.296,142.928 M -143.473,158.35 L -137.623,142.809 M -138.322,156.962 L -134.775,147.537 M -77.582,111.3 L -93.855,107.234 M -76.257,107.166 L -91.349,103.396 M -82.851,101.055 L -91.029,99.011 M -111.963,169.896 L -128.441,168.157 M -113.635,165.364 L -131.952,163.431 M -113.71,161.001 L -124.905,159.82 M -85.974,49.471 L -91.927,45.871 M -80.097,47.963 L -92.754,40.309 M -79.08,43.517 L -83.902,40.601 M -146.859,80.489 L -160.981,77.587 M -145.751,76.295 L -161.832,72.99 M -141.374,72.773 L -160.429,68.856 M -149.983,71.003 L -150.357,55.539 M -145.629,71.898 L -146.045,54.67 M -141.305,71.571 L -141.679,56.084 M -145.721,137.055 L -157.547,130.002 M -142.565,133.894 L -156.763,125.427 M -140.078,130.334 L -153.387,122.397 M -151.712,133.482 L -169.072,125.433 M -149.686,129.647 L -168.505,120.922 M -147.661,125.812 L -166.185,117.223 M -162.476,118.943 L -159.046,98.388 M -158.4,120.833 L -155.549,103.75 M -154.324,122.723 L -151.696,106.973 M -156.634,149.065 L -169.504,140.614 M -155.406,144.689 L -168.188,136.297 M -152.884,141.164 L -166.61,132.152 M -144.425,143.948 L -152.572,155.694 M -148.23,141.833 L -157.785,155.61 M -152.989,141.095 L -155.458,144.655 M -141.644,57.509 L -148.572,45.13 M -140.608,50.492 L -145.783,41.245 M -134.412,52.695 L -141.51,40.012 M -121.049,44.639 L -107.724,44.192 M -123.12,49.043 L -109.883,48.599 M -125.192,53.446 L -112.241,53.011 M -137.101,169.91 L -156.269,162.554 M -136.21,165.613 L -153.178,159.101 M -136.464,160.876 L -143.419,158.207 M -105.771,47.011 L -96.261,36.824 M -103.404,50.823 L -92.459,39.097 M -101.038,54.635 L -89.501,42.276 M -150.179,62.91 L -161.011,44.163 M -148.928,56.418 L -157.034,42.389 M -144.591,55.267 L -152.866,40.946 M -167.01,67.656 L -157.238,50.693 M -163.418,70.098 L -154.735,55.025 M -157.992,69.357 L -152.232,59.357 M -152.049,92.695 L -166.848,104.442 M -156.449,90.658 L -167.792,99.661 M -157.409,85.89 L -172.121,97.568 M -166.172,92.845 L -168.782,75.296 M -162.255,89.737 L -164.344,75.69 M -158.339,86.628 L -159.643,77.862 M -158.892,53.564 L -174.853,51.106 M -158.035,49.314 L -172.981,47.012 M -160.815,44.504 L -169.629,43.146 M -62.989,159.849 L -69.33,154.758 M -62.176,154.947 L -74.01,145.445 M -61.532,149.91 L -65.139,147.013 M -151.952,168.47 L -167.066,166.968 M -152.283,164.084 L -166.547,162.667 M -151.275,159.832 L -167.932,158.177 M -157.624,155.378 L -167.01,158.269 M -153.627,149.615 L -170.886,154.93 M -159.802,146.985 L -170.37,150.239 M -164.931,80.148 L -173.047,65.041 M -159.03,81.981 L -166.863,67.401 M -158.585,73.657 L -161.906,67.474 M -80.492,166.922 L -96.106,161.048 M -80.818,162.172 L -92.079,157.935 M -81.334,157.35 L -88.625,154.607" fill="#CCCECE" stroke="#222022" stroke-width="0.8" stroke-linejoin="round" stroke-linecap="butt"/></g><g><path d=" M 0,0"/><path d=" M -60,150 L -60,30 L 90,30 L 90,150 L -60,150 M 120,150 L 120,0 L 300,0 L 300,150 L 120,150 M -150,150 L -150,60 L -90,60 L -90,150 L -150,150 M 0,30 L 0,0 L 30,0 L 30,30 L 0,30 M 97.5,90 L 90,90 L 90,60 L 97.5,60 L 97.5,66 L 112.5,66 L 112.5,60 L 120,60 L 120,90 L 112.5,90 L 112.5,84 L 97.5,84 L 97.5,90 M -67.5,90 L -60,90 L -60,120 L -67.5,120 L -67.5,114 L -82.5,114 L -82.5,120 L -90,120 L -90,90 L -82.5,90 L -82.5,96 L -67.5,96 L -67.5,90 M 300,90 L 300,60 L 330,60 L 330,90 L 300,90" stroke="#222022" stroke-width="6" stroke-linejoin="round" stroke-linecap="butt"/><path d=" M -60,150 L -60,30 L 90,30 L 90,150 L -60,150" fill="#F8F8F4"/><path d=" M 120,150 L 120,0 L 300,0 L 300,150 L 120,150" fill="#F8F8F4"/><path d=" M -150,150 L -150,60 L -90,60 L -90,150 L -150,150" fill="#F8F8F4"/><path d=" M 0,30 L 0,0 L 30,0 L 30,30 L 0,30" fill="#F8F8F4"/><path d=" M 97.5,90 L 90,90 L 90,60 L 97.5,60 L 97.5,66 L 112.5,66 L 112.5,60 L 120,60 L 120,90 L 112.5,90 L 112.5,84 L 97.5,84 L 97.5,90" fill="#F8F8F4"/><path d=" M -67.5,90 L -60,90 L -60,120 L -67.5,120 L -67.5,114 L -82.5,114 L -82.5,120 L -90,120 L -90,90 L -82.5,90 L -82.5,96 L -67.5,96 L -67.5,90" fill="#F8F8F4"/><path d=" M 300,90 L 300,60 L 330,60 L 330,90 L 300,90" fill="#F8F8F4"/><path d=" M 30,30 L 0,30 M 120,60 L 120,90 M 90,60 L 90,90 M -90,120 L -90,90 M -60,120 L -60,90 M 300,60 L 300,90" stroke="#F8F8F4" stroke-width="1" stroke-linejoin="round" stroke-linecap="butt"/></g><g><path d=" M 0,0"/><path d=" M -60,60 L -59.25,60 M -53.978,60 L -53.228,60 M -47.955,60 L -47.205,60 M -41.933,60 L -41.183,60 M -35.91,60 L -35.16,60 M -29.888,60 L -29.138,60 M -23.865,60 L -23.115,60 M -17.843,60 L -17.093,60 M -11.82,60 L -11.07,60 M -5.798,60 L -5.048,60 M 0.225,60 L 0.975,60 M 6.247,60 L 6.997,60 M 12.27,60 L 13.02,60 M 18.292,60 L 19.042,60 M 24.315,60 L 25.065,60 M 30.337,60 L 31.087,60 M 36.36,60 L 37.11,60 M 42.382,60 L 43.132,60 M 48.405,60 L 49.155,60 M 54.427,60 L 55.177,60 M 60.45,60 L 61.2,60 M 66.472,60 L 67.222,60 M 72.495,60 L 73.245,60 M 78.517,60 L 79.267,60 M 84.54,60 L 85.29,60 M -60,90 L -59.25,90 M -54.257,90 L -53.507,90 M -48.514,90 L -47.764,90 M -42.771,90 L -42.021,90 M -37.028,90 L -36.278,90 M -31.285,90 L -30.535,90 M -25.542,90 L -24.792,90 M -19.799,90 L -19.049,90 M -14.056,90 L -13.306,90 M -8.313,90 L -7.563,90 M -2.57,90 L -1.82,90 M 3.173,90 L 3.923,90 M 8.916,90 L 9.666,90 M 14.659,90 L 15.409,90 M 20.402,90 L 21.152,90 M 26.145,90 L 26.895,90 M 31.888,90 L 32.638,90 M 37.631,90 L 38.381,90 M 43.374,90 L 44.124,90 M 49.117,90 L 49.867,90 M 54.86,90 L 55.61,90 M 60.603,90 L 61.353,90 M 66.346,90 L 67.096,90 M 72.089,90 L 72.839,90 M 77.832,90 L 78.582,90 M 83.575,90 L 84.325,90 M 89.318,90 L 90,90 M -60,120 L -59.25,120 M -53.458,120 L -52.708,120 M -46.916,120 L -46.166,120 M -40.374,120 L -39.624,120 M -33.832,120 L -33.082,120 M -27.29,120 L -26.54,120 M -20.747,120 L -19.997,120 M -14.205,120 L -13.455,120 M -7.663,120 L -6.913,120 M -1.121,120 L -0.371,120 M 5.421,120 L 6.171,120 M 11.963,120 L 12.713,120 M 18.505,120 L 19.255,120 M 25.047,120 L 25.797,120 M 31.589,120 L 32.339,120 M 38.131,120 L 38.881,120 M 44.674,120 L 45.424,120 M 51.216,120 L 51.966,120 M 57.758,120 L 58.508,120 M 64.3,120 L 65.05,120 M 70.842,120 L 71.592,120 M 77.384,120 L 78.134,120 M 83.926,120 L 84.676,120 M -30,30 L -30,30.75 M -30,36.068 L -30,36.818 M -30,42.136 L -30,42.886 M -30,48.204 L -30,48.954 M -30,54.273 L -30,55.023 M -30,60.341 L -30,61.091 M -30,66.409 L -30,67.159 M -30,72.477 L -30,73.227 M -30,78.545 L -30,79.295 M -30,84.613 L -30,85.363 M -30,90.681 L -30,91.431 M -30,96.75 L -30,97.5 M -30,102.818 L -30,103.568 M -30,108.886 L -30,109.636 M -30,114.954 L -30,115.704 M -30,121.022 L -30,121.772 M -30,127.09 L -30,127.84 M -30,133.158 L -30,133.908 M -30,139.227 L -30,139.977 M -30,145.295 L -30,146.045 M 0,30 L 0,30.75 M 0,35.957 L 0,36.707 M 0,41.914 L 0,42.664 M 0,47.871 L 0,48.621 M 0,53.828 L 0,54.578 M 0,59.784 L 0,60.534 M 0,65.741 L 0,66.491 M 0,71.698 L 0,72.448 M 0,77.655 L 0,78.405 M 0,83.612 L 0,84.362 M 0,89.569 L 0,90.319 M 0,95.526 L 0,96.276 M 0,101.483 L 0,102.233 M 0,107.439 L 0,108.189 M 0,113.396 L 0,114.146 M 0,119.353 L 0,120.103 M 0,125.31 L 0,126.06 M 0,131.267 L 0,132.017 M 0,137.224 L 0,137.974 M 0,143.181 L 0,143.931 M 0,149.138 L 0,149.888 M 30,30 L 30,30.75 M 30,36.495 L 30,37.245 M 30,42.991 L 30,43.741 M 30,49.486 L 30,50.236 M 30,55.982 L 30,56.732 M 30,62.477 L 30,63.227 M 30,68.973 L 30,69.723 M 30,75.468 L 30,76.218 M 30,81.964 L 30,82.714 M 30,88.459 L 30,89.209 M 30,94.955 L 30,95.705 M 30,101.45 L 30,102.2 M 30,107.946 L 30,108.696 M 30,114.441 L 30,115.191 M 30,120.937 L 30,121.687 M 30,127.432 L 30,128.182 M 30,133.928 L 30,134.678 M 30,140.423 L 30,141.173 M 30,146.919 L 30,147.669 M 60,30 L 60,30.75 M 60,35.712 L 60,36.462 M 60,41.424 L 60,42.174 M 60,47.135 L 60,47.885 M 60,52.847 L 60,53.597 M 60,58.559 L 60,59.309 M 60,64.271 L 60,65.021 M 60,69.982 L 60,70.732 M 60,75.694 L 60,76.444 M 60,81.406 L 60,82.156 M 60,87.118 L 60,87.868 M 60,92.83 L 60,93.58 M 60,98.541 L 60,99.291 M 60,104.253 L 60,105.003 M 60,109.965 L 60,110.715 M 60,115.677 L 60,116.427 M 60,121.388 L 60,122.138 M 60,127.1 L 60,127.85 M 60,132.812 L 60,133.562 M 60,138.524 L 60,139.274 M 60,144.236 L 60,144.986 M 60,149.947 L 60,150 M 120,30 L 120.75,30 M 125.78,30 L 126.53,30 M 131.561,30 L 132.311,30 M 137.341,30 L 138.091,30 M 143.122,30 L 143.872,30 M 148.902,30 L 149.652,30 M 154.683,30 L 155.433,30 M 160.463,30 L 161.213,30 M 166.243,30 L 166.993,30 M 172.024,30 L 172.774,30 M 177.804,30 L 178.554,30 M 183.585,30 L 184.335,30 M 189.365,30 L 190.115,30 M 195.145,30 L 195.895,30 M 200.926,30 L 201.676,30 M 206.706,30 L 207.456,30 M 212.487,30 L 213.237,30 M 218.267,30 L 219.017,30 M 224.048,30 L 224.798,30 M 229.828,30 L 230.578,30 M 235.608,30 L 236.358,30 M 241.389,30 L 242.139,30 M 247.169,30 L 247.919,30 M 252.95,30 L 253.7,30 M 258.73,30 L 259.48,30 M 264.511,30 L 265.261,30 M 270.291,30 L 271.041,30 M 276.071,30 L 276.821,30 M 281.852,30 L 282.602,30 M 287.632,30 L 288.382,30 M 293.413,30 L 294.163,30 M 299.193,30 L 299.943,30 M 120,60 L 120.75,60 M 125.75,60 L 126.5,60 M 131.5,60 L 132.25,60 M 137.249,60 L 137.999,60 M 142.999,60 L 143.749,60 M 148.749,60 L 149.499,60 M 154.499,60 L 155.249,60 M 160.249,60 L 160.999,60 M 165.999,60 L 166.749,60 M 171.748,60 L 172.498,60 M 177.498,60 L 178.248,60 M 183.248,60 L 183.998,60 M 188.998,60 L 189.748,60 M 194.748,60 L 195.498,60 M 200.498,60 L 201.248,60 M 206.247,60 L 206.997,60 M 211.997,60 L 212.747,60 M 217.747,60 L 218.497,60 M 223.497,60 L 224.247,60 M 229.247,60 L 229.997,60 M 234.996,60 L 235.746,60 M 240.746,60 L 241.496,60 M 246.496,60 L 247.246,60 M 252.246,60 L 252.996,60 M 257.996,60 L 258.746,60 M 263.746,60 L 264.496,60 M 269.495,60 L 270.245,60 M 275.245,60 L 275.995,60 M 280.995,60 L 281.745,60 M 286.745,60 L 287.495,60 M 292.495,60 L 293.245,60 M 298.244,60 L 298.994,60 M 120,90 L 120.75,90 M 126.174,90 L 126.924,90 M 132.347,90 L 133.097,90 M 138.521,90 L 139.271,90 M 144.694,90 L 145.444,90 M 150.868,90 L 151.618,90 M 157.041,90 L 157.791,90 M 163.215,90 L 163.965,90 M 169.388,90 L 170.138,90 M 175.562,90 L 176.312,90 M 181.735,90 L 182.485,90 M 187.909,90 L 188.659,90 M 194.082,90 L 194.832,90 M 200.256,90 L 201.006,90 M 206.429,90 L 207.179,90 M 212.603,90 L 213.353,90 M 218.776,90 L 219.526,90 M 224.95,90 L 225.7,90 M 231.123,90 L 231.873,90 M 237.297,90 L 238.047,90 M 243.47,90 L 244.22,90 M 249.644,90 L 250.394,90 M 255.817,90 L 256.567,90 M 261.991,90 L 262.741,90 M 268.165,90 L 268.915,90 M 274.338,90 L 275.088,90 M 280.512,90 L 281.262,90 M 286.685,90 L 287.435,90 M 292.859,90 L 293.609,90 M 299.032,90 L 299.782,90 M 120,120 L 120.75,120 M 126.034,120 L 126.784,120 M 132.068,120 L 132.818,120 M 138.102,120 L 138.852,120 M 144.136,120 L 144.886,120 M 150.17,120 L 150.92,120 M 156.204,120 L 156.954,120 M 162.238,120 L 162.988,120 M 168.272,120 L 169.022,120 M 174.306,120 L 175.056,120 M 180.34,120 L 181.09,120 M 186.374,120 L 187.124,120 M 192.408,120 L 193.158,120 M 198.442,120 L 199.192,120 M 204.476,120 L 205.226,120 M 210.51,120 L 211.26,120 M 216.544,120 L 217.294,120 M 222.578,120 L 223.328,120 M 228.612,120 L 229.362,120 M 234.646,120 L 235.396,120 M 240.68,120 L 241.43,120 M 246.714,120 L 247.464,120 M 252.748,120 L 253.498,120 M 258.782,120 L 259.532,120 M 264.816,120 L 265.566,120 M 270.85,120 L 271.6,120 M 276.884,120 L 277.634,120 M 282.918,120 L 283.668,120 M 288.952,120 L 289.702,120 M 294.986,120 L 295.736,120 M 150,0 L 150,0.75 M 150,6.062 L 150,6.812 M 150,12.124 L 150,12.874 M 150,18.186 L 150,18.936 M 150,24.248 L 150,24.998 M 150,30.31 L 150,31.06 M 150,36.373 L 150,37.123 M 150,42.435 L 150,43.185 M 150,48.497 L 150,49.247 M 150,54.559 L 150,55.309 M 150,60.621 L 150,61.371 M 150,66.683 L 150,67.433 M 150,72.745 L 150,73.495 M 150,78.807 L 150,79.557 M 150,84.869 L 150,85.619 M 150,90.931 L 150,91.681 M 150,96.993 L 150,97.743 M 150,103.056 L 150,103.806 M 150,109.118 L 150,109.868 M 150,115.18 L 150,115.93 M 150,121.242 L 150,121.992 M 150,127.304 L 150,128.054 M 150,133.366 L 150,134.116 M 150,139.428 L 150,140.178 M 150,145.49 L 150,146.24 M 180,0 L 180,0.75 M 180,6.076 L 180,6.826 M 180,12.151 L 180,12.901 M 180,18.227 L 180,18.977 M 180,24.302 L 180,25.052 M 180,30.378 L 180,31.128 M 180,36.454 L 180,37.204 M 180,42.529 L 180,43.279 M 180,48.605 L 180,49.355 M 180,54.681 L 180,55.431 M 180,60.756 L 180,61.506 M 180,66.832 L 180,67.582 M 180,72.907 L 180,73.657 M 180,78.983 L 180,79.733 M 180,85.059 L 180,85.809 M 180,91.134 L 180,91.884 M 180,97.21 L 180,97.96 M 180,103.286 L 180,104.036 M 180,109.361 L 180,110.111 M 180,115.437 L 180,116.187 M 180,121.512 L 180,122.262 M 180,127.588 L 180,128.338 M 180,133.664 L 180,134.414 M 180,139.739 L 180,140.489 M 180,145.815 L 180,146.565 M 210,0 L 210,0.75 M 210,5.284 L 210,6.034 M 210,10.568 L 210,11.318 M 210,15.852 L 210,16.602 M 210,21.136 L 210,21.886 M 210,26.42 L 210,27.17 M 210,31.704 L 210,32.454 M 210,36.988 L 210,37.738 M 210,42.272 L 210,43.022 M 210,47.556 L 210,48.306 M 210,52.84 L 210,53.59 M 210,58.124 L 210,58.874 M 210,63.407 L 210,64.157 M 210,68.691 L 210,69.441 M 210,73.975 L 210,74.725 M 210,79.259 L 210,80.009 M 210,84.543 L 210,85.293 M 210,89.827 L 210,90.577 M 210,95.111 L 210,95.861 M 210,100.395 L 210,101.145 M 210,105.679 L 210,106.429 M 210,110.963 L 210,111.713 M 210,116.247 L 210,116.997 M 210,121.531 L 210,122.281 M 210,126.815 L 210,127.565 M 210,132.099 L 210,132.849 M 210,137.383 L 210,138.133 M 210,142.667 L 210,143.417 M 210,147.951 L 210,148.701 M 240,0 L 240,0.75 M 240,6.428 L 240,7.178 M 240,12.856 L 240,13.606 M 240,19.284 L 240,20.034 M 240,25.711 L 240,26.461 M 240,32.139 L 240,32.889 M 240,38.567 L 240,39.317 M 240,44.995 L 240,45.745 M 240,51.423 L 240,52.173 M 240,57.851 L 240,58.601 M 240,64.279 L 240,65.029 M 240,70.707 L 240,71.457 M 240,77.134 L 240,77.884 M 240,83.562 L 240,84.312 M 240,89.99 L 240,90.74 M 240,96.418 L 240,97.168 M 240,102.846 L 240,103.596 M 240,109.274 L 240,110.024 M 240,115.702 L 240,116.452 M 240,122.13 L 240,122.88 M 240,128.557 L 240,129.307 M 240,134.985 L 240,135.735 M 240,141.413 L 240,142.163 M 240,147.841 L 240,148.591 M 270,0 L 270,0.75 M 270,6.209 L 270,6.959 M 270,12.419 L 270,13.169 M 270,18.628 L 270,19.378 M 270,24.837 L 270,25.587 M 270,31.047 L 270,31.797 M 270,37.256 L 270,38.006 M 270,43.465 L 270,44.215 M 270,49.675 L 270,50.425 M 270,55.884 L 270,56.634 M 270,62.093 L 270,62.843 M 270,68.302 L 270,69.052 M 270,74.512 L 270,75.262 M 270,80.721 L 270,81.471 M 270,86.93 L 270,87.68 M 270,93.14 L 270,93.89 M 270,99.349 L 270,100.099 M 270,105.558 L 270,106.308 M 270,111.768 L 270,112.518 M 270,117.977 L 270,118.727 M 270,124.186 L 270,124.936 M 270,130.396 L 270,131.146 M 270,136.605 L 270,137.355 M 270,142.814 L 270,143.564 M 270,149.024 L 270,149.774 M -150,90 L -149.25,90 M -144.249,90 L -143.499,90 M -138.497,90 L -137.747,90 M -132.746,90 L -131.996,90 M -126.994,90 L -126.244,90 M -121.243,90 L -120.493,90 M -115.491,90 L -114.741,90 M -109.74,90 L -108.99,90 M -103.988,90 L -103.238,90 M -98.237,90 L -97.487,90 M -92.485,90 L -91.735,90 M -150,120 L -149.25,120 M -143.36,120 L -142.61,120 M -136.721,120 L -135.971,120 M -130.081,120 L -129.331,120 M -123.441,120 L -122.691,120 M -116.802,120 L -116.052,120 M -110.162,120 L -109.412,120 M -103.522,120 L -102.772,120 M -96.883,120 L -96.133,120 M -90.243,120 L -90,120 M -120,60 L -120,60.75 M -120,65.831 L -120,66.581 M -120,71.661 L -120,72.411 M -120,77.492 L -120,78.242 M -120,83.322 L -120,84.072 M -120,89.153 L -120,89.903 M -120,94.984 L -120,95.734 M -120,100.814 L -120,101.564 M -120,106.645 L -120,107.395 M -120,112.475 L -120,113.225 M -120,118.306 L -120,119.056 M -120,124.137 L -120,124.887 M -120,129.967 L -120,130.717 M -120,135.798 L -120,136.548 M -120,141.628 L -120,142.378 M -120,147.459 L -120,148.209 M 30,30 L 29.25,30 M 24.291,30 L 23.541,30 M 18.582,30 L 17.832,30 M 12.873,30 L 12.123,30 M 7.164,30 L 6.414,30 M 1.455,30 L 0.705,30 M 120,60 L 120,60.75 M 120,66.412 L 120,67.162 M 120,72.825 L 120,73.575 M 120,79.237 L 120,79.987 M 120,85.65 L 120,86.4 M 90,90 L 90,89.25 M 90,83.572 L 90,82.822 M 90,77.144 L 90,76.394 M 90,70.716 L 90,69.966 M 90,64.288 L 90,63.538 M -90,120 L -90,119.25 M -90,113.716 L -90,112.966 M -90,107.432 L -90,106.682 M -90,101.148 L -90,100.398 M -90,94.864 L -90,94.114 M -60,90 L -60,90.75 M -60,95.545 L -60,96.295 M -60,101.091 L -60,101.841 M -60,106.636 L -60,107.386 M -60,112.181 L -60,112.931 M -60,117.727 L -60,118.477" stroke="#222022" stroke-width="1.5" stroke-linejoin="round" stroke-linecap="butt"/></g><g clip-path="url(#instance399)"><path d=" M 0,0"/><path d=" M 258.218,-27.324 L 260.431,-27.7 L 262.733,-28.059 L 265.125,-28.402 L 267.301,-28.427 L 269.261,-28.133 L 271.005,-27.52 L 272.533,-26.589 L 273.844,-25.339 L 274.939,-23.771 L 275.819,-21.884 L 276.482,-19.678 L 276.83,-17.495 L 276.861,-15.333 L 276.578,-13.193 L 275.978,-11.075 L 275.063,-8.979 L 273.832,-6.905 L 272.285,-4.853 L 270.423,-2.823 L 268.799,-0.856 L 267.415,1.05 L 266.27,2.893 L 265.364,4.674 L 264.696,6.392 L 264.268,8.048 L 264.079,9.642 L 264.13,11.174 L 264.193,12.804 L 264.269,14.532 L 264.359,16.358 L 264.461,18.282 L 264.577,20.305 L 264.706,22.426 L 264.848,24.645 L 265.003,26.963 L 264.836,28.951 L 264.346,30.61 L 263.534,31.939 L 262.399,32.938 L 260.942,33.609 L 259.163,33.95 L 257.061,33.961 L 254.637,33.643 L 252.559,33.069 L 250.827,32.241 L 249.44,31.157 L 248.4,29.818 L 247.706,28.224 L 247.357,26.374 L 247.355,24.269 L 247.699,21.909 L 247.931,19.651 L 248.053,17.494 L 248.062,15.44 L 247.961,13.487 L 247.748,11.637 L 247.424,9.888 L 246.989,8.241 L 246.443,6.696 L 245.821,5.113 L 245.123,3.493 L 244.35,1.835 L 243.502,0.139 L 242.578,-1.595 L 241.578,-3.366 L 240.504,-5.175 L 239.353,-7.021 L 238.344,-8.873 L 237.477,-10.73 L 236.751,-12.592 L 236.167,-14.46 L 235.725,-16.332 L 235.424,-18.21 L 235.264,-20.094 L 235.246,-21.982 L 235.321,-23.549 L 235.488,-24.793 L 235.748,-25.715 L 236.101,-26.315 L 236.546,-26.593 L 237.084,-26.549 L 237.715,-26.182 L 238.438,-25.493 L 239.28,-24.949 L 240.241,-24.551 L 241.32,-24.297 L 242.519,-24.189 L 243.836,-24.226 L 245.273,-24.407 L 246.828,-24.734 L 248.502,-25.206 L 250.266,-25.662 L 252.119,-26.102 L 254.062,-26.525 L 256.095,-26.933 L 258.218,-27.324 M 256.196,65.705 L 258.323,65.271 L 260.584,64.761 L 262.98,64.174 L 265.152,63.875 L 267.102,63.863 L 268.829,64.137 L 270.333,64.699 L 271.614,65.547 L 272.672,66.683 L 273.507,68.105 L 274.12,69.814 L 274.662,71.614 L 275.134,73.504 L 275.536,75.484 L 275.868,77.555 L 276.13,79.717 L 276.322,81.968 L 276.443,84.311 L 276.494,86.743 L 276.806,88.902 L 277.378,90.787 L 278.21,92.397 L 279.303,93.734 L 280.656,94.797 L 282.269,95.586 L 284.143,96.1 L 286.277,96.341 L 288.395,96.303 L 290.498,95.986 L 292.584,95.39 L 294.655,94.516 L 296.71,93.362 L 298.749,91.93 L 300.772,90.219 L 302.779,88.229 L 304.812,86.557 L 306.872,85.204 L 308.957,84.169 L 311.069,83.453 L 313.207,83.054 L 315.371,82.975 L 317.561,83.213 L 319.777,83.77 L 321.654,84.577 L 323.192,85.631 L 324.389,86.935 L 325.247,88.488 L 325.766,90.29 L 325.945,92.341 L 325.785,94.64 L 325.285,97.189 L 324.88,99.612 L 324.569,101.91 L 324.354,104.084 L 324.234,106.131 L 324.209,108.054 L 324.279,109.852 L 324.444,111.524 L 324.704,113.071 L 325.055,114.703 L 325.499,116.418 L 326.035,118.217 L 326.663,120.101 L 327.383,122.068 L 328.195,124.12 L 329.099,126.255 L 330.095,128.475 L 330.823,130.665 L 331.281,132.825 L 331.47,134.956 L 331.39,137.057 L 331.041,139.129 L 330.423,141.172 L 329.536,143.185 L 328.38,145.168 L 327.022,146.814 L 325.461,148.124 L 323.697,149.097 L 321.731,149.732 L 319.562,150.031 L 317.191,149.993 L 314.618,149.618 L 311.842,148.906 L 309.208,148.443 L 306.717,148.231 L 304.368,148.268 L 302.162,148.555 L 300.098,149.091 L 298.177,149.878 L 296.398,150.914 L 294.762,152.2 L 293.355,153.675 L 292.177,155.34 L 291.229,157.194 L 290.511,159.238 L 290.022,161.471 L 289.762,163.894 L 289.732,166.506 L 289.931,169.308 L 289.836,171.842 L 289.448,174.108 L 288.765,176.107 L 287.789,177.839 L 286.519,179.303 L 284.956,180.499 L 283.098,181.428 L 280.947,182.09 L 278.836,182.477 L 276.766,182.592 L 274.736,182.432 L 272.746,181.999 L 270.797,181.293 L 268.888,180.313 L 267.02,179.059 L 265.192,177.532 L 263.424,176.115 L 261.715,174.809 L 260.066,173.613 L 258.476,172.527 L 256.945,171.553 L 255.474,170.688 L 254.062,169.935 L 252.71,169.291 L 251.309,168.58 L 249.858,167.8 L 248.358,166.952 L 246.809,166.035 L 245.211,165.051 L 243.563,163.998 L 241.866,162.876 L 240.12,161.687 L 238.54,160.433 L 237.126,159.115 L 235.878,157.733 L 234.796,156.286 L 233.879,154.775 L 233.129,153.2 L 232.544,151.56 L 232.126,149.856 L 231.886,148.048 L 231.824,146.137 L 231.941,144.122 L 232.236,142.002 L 232.71,139.78 L 233.362,137.453 L 234.193,135.022 L 235.202,132.488 L 235.875,130.136 L 236.212,127.967 L 236.213,125.98 L 235.877,124.177 L 235.206,122.555 L 234.198,121.117 L 232.853,119.861 L 231.173,118.787 L 229.408,117.766 L 227.559,116.797 L 225.625,115.88 L 223.607,115.015 L 221.505,114.203 L 219.318,113.442 L 217.047,112.734 L 214.691,112.078 L 212.712,111.211 L 211.111,110.134 L 209.887,108.846 L 209.04,107.347 L 208.571,105.638 L 208.479,103.719 L 208.765,101.589 L 209.427,99.248 L 210.34,97.282 L 211.504,95.69 L 212.918,94.473 L 214.582,93.63 L 216.496,93.161 L 218.661,93.067 L 221.076,93.348 L 223.742,94.003 L 226.318,94.406 L 228.803,94.558 L 231.2,94.457 L 233.506,94.105 L 235.723,93.501 L 237.849,92.645 L 239.886,91.538 L 241.833,90.178 L 243.279,88.715 L 244.223,87.147 L 244.665,85.476 L 244.606,83.701 L 244.046,81.822 L 242.983,79.839 L 241.419,77.752 L 239.354,75.561 L 237.695,73.625 L 236.443,71.943 L 235.597,70.515 L 235.158,69.341 L 235.125,68.421 L 235.499,67.756 L 236.28,67.345 L 237.467,67.189 L 238.67,67.054 L 239.891,66.942 L 241.129,66.852 L 242.384,66.785 L 243.655,66.739 L 244.944,66.716 L 246.25,66.716 L 247.572,66.737 L 249.029,66.683 L 250.619,66.552 L 252.344,66.346 L 254.203,66.063 L 256.196,65.705" fill="#CCCECE" stroke="#222022" stroke-width="1.5" stroke-linejoin="round" stroke-linecap="butt"/><path d=" M 260.172,-22.065 L 262.03,-22.509 L 262.03,-22.509 L 263.885,-22.947 L 265.549,-23.16 L 267.022,-23.148 L 268.306,-22.912 L 269.399,-22.451 L 270.302,-21.764 L 271.014,-20.853 L 271.536,-19.717 L 271.868,-18.356 L 271.933,-16.929 L 271.78,-15.806 M 268.89,-9.69 L 268.24,-8.791 L 266.698,-6.963 L 265.316,-5.516 M 261.712,-0.898 L 260.795,0.627 L 259.876,2.53 L 259.626,3.212 M 259.54,21.861 L 259.742,22.856 L 260.151,24.571 L 260.341,26.044 L 260.313,27.276 L 260.067,28.267 L 259.603,29.017 L 258.921,29.525 L 258.021,29.792 L 256.903,29.818 L 255.567,29.603 L 254.46,29.172 L 253.583,28.526 L 252.936,27.664 L 252.71,27.082 M 253.693,16.529 L 253.721,16.282 L 253.8,14.38 L 253.738,12.489 L 253.535,10.611 L 253.191,8.745 L 253.11,8.433 M 246.286,-7.035 L 246.027,-7.468 L 244.922,-9.203 L 243.944,-10.882 L 243.093,-12.504 L 242.888,-12.949 M 241.039,-18.118 L 240.963,-18.43 L 240.748,-19.771 L 240.661,-21.056 L 240.586,-22.048 L 240.523,-22.748 L 240.472,-23.155 L 240.433,-23.269 L 240.406,-23.091 L 240.391,-22.621 L 240.391,-22.6 M 242.063,-18.72 L 242.783,-18.503 L 243.967,-18.409 L 245.386,-18.508 L 247.04,-18.799 L 248.929,-19.283 L 250.813,-19.76 L 252.694,-20.233 L 254.57,-20.699 L 256.441,-21.16 L 258.309,-21.615 M 258.231,71.102 L 260.173,70.556 L 260.173,70.556 L 262.193,69.931 L 263.978,69.525 L 265.527,69.338 L 266.84,69.369 L 267.917,69.619 L 268.759,70.088 L 269.365,70.776 L 269.735,71.682 L 269.869,72.807 L 270.013,74.141 L 270.167,75.682 L 270.18,75.82 M 270.771,82.621 L 270.877,83.925 L 271.078,86.506 L 271.199,88.107 M 272.657,93.749 L 272.76,93.998 L 274.019,95.912 L 275.469,97.374 M 293.464,100.718 L 293.79,100.662 L 296.271,99.905 L 298.622,98.845 L 300.841,97.481 L 302.928,95.814 L 304.885,93.843 L 306.429,92.445 M 315.823,87.703 L 316.348,87.679 L 317.667,87.889 L 318.747,88.34 L 319.588,89.033 L 320.19,89.967 L 320.554,91.143 L 320.678,92.56 L 320.66,92.826 M 318.37,109.563 L 318.398,110.289 L 318.584,112.157 L 318.881,113.985 L 319.261,115.829 L 319.379,116.303 M 320.94,121.575 L 321.606,123.362 L 322.399,125.285 L 323.173,126.999 M 325.044,131.218 L 325.551,132.838 L 325.911,134.546 L 326.071,136.172 L 326.032,137.716 L 325.794,139.179 L 325.356,140.559 L 324.719,141.857 L 323.831,142.9 L 322.692,143.688 L 321.303,144.221 L 319.664,144.499 L 317.773,144.522 L 317.69,144.513 M 302.275,142.874 L 300.524,143.246 L 298.129,144.081 L 295.783,145.231 L 293.486,146.697 L 292.649,147.36 M 287.122,153.285 L 286.373,154.496 L 285.376,156.727 L 284.692,159.071 L 284.32,161.528 L 284.261,164.098 L 284.514,166.78 L 284.569,169.164 L 284.533,169.683 M 282.472,176.026 L 281.856,176.611 L 280.716,177.206 L 279.378,177.503 L 278.011,177.586 L 277.387,177.527 M 271.923,175.558 L 270.754,174.793 L 269.218,173.593 L 268.273,172.74 M 252.536,162.465 L 251.628,161.967 L 250.168,161.136 L 248.691,160.264 L 247.197,159.352 L 245.687,158.399 L 244.159,157.406 L 242.788,156.393 L 241.574,155.36 L 240.516,154.308 L 239.834,153.497 M 237.834,143.364 L 238.065,142.115 L 238.589,139.949 L 239.273,137.58 L 239.955,135.5 M 239.469,119.359 L 238.937,118.6 L 237.205,116.831 L 235.083,115.205 L 234.467,114.777 M 229.814,111.848 L 228.809,111.296 L 226.749,110.315 L 224.704,109.496 L 224.479,109.423 M 220.022,108.233 L 218.663,108.005 L 216.958,107.548 L 215.547,106.971 L 214.428,106.272 L 213.604,105.453 L 213.072,104.513 L 212.834,103.452 L 212.889,102.27 L 213.238,100.968 L 213.848,99.919 L 214.719,99.123 L 215.852,98.582 L 217.246,98.294 L 218.902,98.26 L 219.2,98.295 M 234.556,99.252 L 235.376,99.024 L 237.906,97.968 L 240.454,96.556 L 243.019,94.786 L 243.877,94.081 M 249.133,87.958 L 249.831,86.056 L 250.067,83.779 L 249.715,81.464 L 248.777,79.111 L 247.251,76.72 L 245.139,74.291 L 244.001,73.004 M 239.462,68.512 L 239.582,68.784 L 240.107,69.639 L 240.74,70.389 L 241.483,71.034 L 242.334,71.573 L 243.293,72.008 L 243.461,72.06 M 249.259,72.649 L 249.693,72.629 L 251.244,72.483 L 252.874,72.258 L 253.84,72.085 M 259.912,-16.43 L 261.327,-16.958 L 261.327,-16.958 L 262.644,-17.491 L 263.106,-17.652 M 253.328,17.246 L 253.604,18.399 L 254.072,19.806 L 254.637,21.066 L 255.298,22.178 L 255.846,23.137 L 256.28,23.943 L 256.6,24.596 L 256.688,24.808 M 250.681,-11.094 L 250.491,-11.385 L 249.543,-12.89 L 248.709,-14.278 L 247.988,-15.548 L 247.82,-15.864 M 255.441,-14.982 L 256.787,-15.387 L 256.949,-15.439 M 258.139,76.932 L 259.762,76.352 L 259.762,76.352 L 261.335,75.718 M 281.498,105.302 L 284.839,105.882 L 288.471,106.227 L 289.751,106.234 M 313.394,101.114 L 313.394,101.115 L 312.964,102.944 L 312.662,104.819 L 312.5,106.596 M 319.837,132.892 L 320.351,134.137 L 320.427,134.353 M 288.764,143.921 L 287.717,144.755 L 285.254,147.067 L 283.188,149.414 L 281.517,151.797 L 280.462,153.799 M 278.82,160.841 L 278.79,161.689 L 279.097,164.242 M 249.406,153.86 L 248.198,153.125 L 247.036,152.353 L 246.021,151.605 L 245.153,150.883 L 244.432,150.185 L 243.857,149.512 L 243.43,148.864 L 243.242,148.449 M 239.057,111.677 L 238.993,111.623 L 236.544,109.715 L 234.599,108.351 M 225.296,104.696 L 226.778,105.231 M 255.526,83.834 L 255.385,81.105 L 254.57,78.382 L 253.083,75.688 L 250.923,73.021 L 250.296,72.33 M 244.596,68.062 L 243.917,68.188 L 243.274,68.922 L 242.884,70.222 L 242.855,70.617" stroke="#222022" stroke-width="1.5" stroke-linejoin="round" stroke-linecap="butt"/><clipPath id="instance399" fill="#FFFFFF"><path d=" M 0,0"/><path d=" M -60,150 L -60,30 L 90,30 L 90,150 L -60,150" fill="#FF0000"/><path d=" M 120,150 L 120,0 L 300,0 L 300,150 L 120,150" fill="#FF0000"/><path d=" M -150,150 L -150,60 L -90,60 L -90,150 L -150,150" fill="#FF0000"/><path d=" M 0,30 L 0,0 L 30,0 L 30,30 L 0,30" fill="#FF0000"/><path d=" M 97.5,90 L 90,90 L 90,60 L 97.5,60 L 97.5,66 L 112.5,66 L 112.5,60 L 120,60 L 120,90 L 112.5,90 L 112.5,84 L 97.5,84 L 97.5,90" fill="#FF0000"/><path d=" M -67.5,90 L -60,90 L -60,120 L -67.5,120 L -67.5,114 L -82.5,114 L -82.5,120 L -90,120 L -90,90 L -82.5,90 L -82.5,96 L -67.5,96 L -67.5,90" fill="#FF0000"/><path d=" M 300,90 L 300,60 L 330,60 L 330,90 L 300,90" fill="#FF0000"/></clipPath></g><g><path d=" M 0,0"/><path d=" M -48.203,31.594 L -48.015,31.781 L -49.434,32.063 L -52.461,32.438 L -54.824,33.644 L -56.525,35.682 L -57.562,38.552 L -57.937,42.253 L -58.219,44.01 L -58.406,43.823 L -58.5,40.672 L -58.5,31.5 L -50.847,31.5 L -48.203,31.594 M 88.406,40.91 L 88.219,41.098 L 87.938,39.826 L 87.563,37.096 L 86.573,34.954 L 84.97,33.401 L 82.752,32.438 L 79.92,32.063 L 78.598,31.781 L 78.786,31.594 L 81.285,31.5 L 88.5,31.5 L 88.5,38.488 L 88.406,40.91 M -58.406,144.353 L -58.219,144.166 L -57.937,144.56 L -57.562,145.536 L -56.422,146.362 L -54.516,147.037 L -51.844,147.563 L -48.407,147.938 L -46.782,148.219 L -46.97,148.406 L -49.923,148.5 L -58.5,148.5 L -58.5,145.46 L -58.406,144.353 M 76.481,148.406 L 76.293,148.219 L 78,147.938 L 81.6,147.563 L 84.394,146.353 L 86.381,144.309 L 87.563,141.43 L 87.938,137.717 L 88.219,135.954 L 88.406,136.142 L 88.5,139.302 L 88.5,148.5 L 79.556,148.5 L 76.481,148.406" fill="#222022"/><path d=" M 133.481,1.594 L 133.669,1.781 L 131.969,2.063 L 128.381,2.438 L 125.597,3.317 L 123.616,4.701 L 122.438,6.59 L 122.063,8.984 L 121.781,10.087 L 121.594,9.9 L 121.5,7.729 L 121.5,1.5 L 130.416,1.5 L 133.481,1.594 M 298.406,18.518 L 298.219,18.705 L 297.938,16.166 L 297.563,10.9 L 295.908,6.856 L 292.973,4.035 L 288.759,2.438 L 283.265,2.063 L 280.612,1.781 L 280.8,1.594 L 285.295,1.5 L 298.5,1.5 L 298.5,14.193 L 298.406,18.518 M 121.594,140.682 L 121.781,140.495 L 122.063,141.501 L 122.438,143.7 L 123.494,145.444 L 125.232,146.731 L 127.652,147.563 L 130.753,147.938 L 132.21,148.219 L 132.022,148.406 L 129.321,148.5 L 121.5,148.5 L 121.5,142.707 L 121.594,140.682 M 287.729,148.406 L 287.541,148.219 L 289.039,147.938 L 292.224,147.563 L 294.706,146.493 L 296.485,144.729 L 297.563,142.27 L 297.938,139.117 L 298.219,137.635 L 298.406,137.822 L 298.5,140.562 L 298.5,148.5 L 290.492,148.5 L 287.729,148.406" fill="#222022"/><path d=" M -140.735,61.594 L -140.547,61.781 L -141.545,62.063 L -143.727,62.438 L -145.457,63.616 L -146.736,65.597 L -147.562,68.381 L -147.937,71.968 L -148.219,73.667 L -148.406,73.48 L -148.5,70.415 L -148.5,61.5 L -142.746,61.5 L -140.735,61.594 M -91.594,78.851 L -91.781,79.039 L -92.062,76.444 L -92.437,71.066 L -93.207,66.939 L -94.37,64.063 L -95.928,62.438 L -97.881,62.063 L -98.763,61.781 L -98.576,61.594 L -96.736,61.5 L -91.5,61.5 L -91.5,74.443 L -91.594,78.851 M -148.406,132.089 L -148.219,131.901 L -147.937,134.34 L -147.562,139.404 L -146.324,143.296 L -144.222,146.015 L -141.257,147.563 L -137.429,147.938 L -135.609,148.219 L -135.796,148.406 L -139.042,148.5 L -148.5,148.5 L -148.5,136.262 L -148.406,132.089 M -105.138,148.406 L -105.326,148.219 L -103.349,147.938 L -99.21,147.563 L -96.011,146.298 L -93.754,144.144 L -92.437,141.1 L -92.062,137.167 L -91.781,135.295 L -91.594,135.482 L -91.5,138.807 L -91.5,148.5 L -101.658,148.5 L -105.138,148.406" fill="#222022"/></g><g><path d=" M 0,0"/><path d=" M -46.996,37.654 L -46.678,36.954 L -46,36.632 L -44.961,36.688 L -44.122,36.922 L -43.484,37.333 L -43.045,37.922 L -42.806,38.688 L -42.846,39.421 L -43.164,40.12 L -43.76,40.786 L -44.635,41.418 L -45.391,41.529 L -46.03,41.118 L -46.551,40.185 L -46.954,38.73 L -46.996,37.654" fill="#F8F8F4" stroke="#222022" stroke-width="1.5" stroke-linejoin="round" stroke-linecap="butt"/><path d=" M 281.255,127.945 L 280.817,127.816 L 280.418,127.416 L 280.058,126.746 L 279.929,126.185 L 280.032,125.735 L 280.366,125.395 L 280.933,125.165 L 281.435,125.115 L 281.873,125.244 L 282.247,125.553 L 282.557,126.042 L 282.661,126.511 L 282.558,126.961 L 282.249,127.392 L 281.733,127.804 L 281.255,127.945" fill="#F8F8F4" stroke="#222022" stroke-width="1.5" stroke-linejoin="round" stroke-linecap="butt"/><path d=" M 283.522,8.551 L 284.198,8.617 L 284.893,9.089 L 285.607,9.967 L 285.952,10.749 L 285.928,11.436 L 285.535,12.026 L 284.772,12.52 L 284.053,12.734 L 283.376,12.668 L 282.743,12.322 L 282.154,11.695 L 281.871,11.039 L 281.895,10.352 L 282.226,9.636 L 282.865,8.891 L 283.522,8.551" fill="#F8F8F4" stroke="#222022" stroke-width="1.5" stroke-linejoin="round" stroke-linecap="butt"/><path d=" M 287.58,49.514 L 287.819,49.224 L 288.209,49 L 288.749,48.841 L 289.18,48.861 L 289.501,49.059 L 289.713,49.434 L 289.815,49.988 L 289.747,50.41 L 289.508,50.7 L 289.098,50.857 L 288.518,50.882 L 288.067,50.796 L 287.746,50.599 L 287.554,50.29 L 287.492,49.869 L 287.58,49.514" fill="#F8F8F4" stroke="#222022" stroke-width="1.5" stroke-linejoin="round" stroke-linecap="butt"/><path d=" M 273.374,26.084 L 275.061,25.525 L 277.224,25.915 L 279.863,27.256 L 281.518,28.76 L 282.188,30.426 L 281.874,32.255 L 280.576,34.246 L 279.084,35.521 L 277.397,36.081 L 275.516,35.925 L 273.44,35.053 L 272.067,33.784 L 271.397,32.118 L 271.429,30.055 L 272.164,27.594 L 273.374,26.084" fill="#F8F8F4" stroke="#222022" stroke-width="1.5" stroke-linejoin="round" stroke-linecap="butt"/><path d=" M 253.354,126.343 L 253.406,125.878 L 253.739,125.564 L 254.351,125.401 L 254.88,125.378 L 255.328,125.496 L 255.693,125.754 L 255.975,126.153 L 256.091,126.585 L 256.038,127.05 L 255.818,127.548 L 255.431,128.079 L 255.013,128.285 L 254.566,128.167 L 254.088,127.725 L 253.581,126.959 L 253.354,126.343" fill="#F8F8F4" stroke="#222022" stroke-width="1.5" stroke-linejoin="round" stroke-linecap="butt"/><path d=" M 300,30 L 300,120 L 291.221,119.135 L 282.779,116.575 L 274.999,112.416 L 268.18,106.82 L 262.584,100.001 L 258.425,92.221 L 255.865,83.779 L 255,75 L 255.865,66.221 L 258.425,57.779 L 262.584,49.999 L 268.18,43.18 L 274.999,37.584 L 282.779,33.425 L 291.221,30.865 L 300,30" fill="#F8F8F4"/><path d=" M 300,120 L 291.221,119.135 L 282.779,116.575 L 274.999,112.416 L 268.18,106.82 L 262.584,100.001 L 258.425,92.221 L 255.865,83.779 L 255,75 L 255.865,66.221 L 258.425,57.779 L 262.584,49.999 L 268.18,43.18 L 274.999,37.584 L 282.779,33.425 L 291.221,30.865 L 300,30" stroke="#222022" stroke-width="1.5" stroke-linejoin="round" stroke-linecap="butt"/><path d=" M 300,112.5 L 292.684,111.779 L 285.649,109.645 L 279.166,106.18 L 273.483,101.517 L 268.82,95.834 L 265.355,89.351 L 263.221,82.316 L 262.5,75 L 263.221,67.684 L 265.355,60.649 L 268.82,54.166 L 273.483,48.483 L 279.166,43.82 L 285.649,40.355 L 292.684,38.221 L 300,37.5" stroke="#222022" stroke-width="1.5" stroke-linejoin="round" stroke-linecap="butt"/><path d=" M -146.548,139.027 L -146.305,138.151 L -145.523,137.345 L -144.202,136.607 L -143.093,136.333 L -142.194,136.523 L -141.508,137.177 L -141.032,138.296 L -140.916,139.292 L -141.159,140.168 L -141.762,140.922 L -142.723,141.554 L -143.653,141.775 L -144.551,141.585 L -145.418,140.984 L -146.253,139.971 L -146.548,139.027" fill="#F8F8F4" stroke="#222022" stroke-width="1.5" stroke-linejoin="round" stroke-linecap="butt"/><path d=" M -95.104,141.39 L -95.119,141.032 L -94.904,140.755 L -94.459,140.56 L -94.061,140.48 L -93.708,140.517 L -93.401,140.67 L -93.14,140.939 L -93.002,141.252 L -92.988,141.611 L -93.096,142.014 L -93.327,142.461 L -93.619,142.667 L -93.972,142.63 L -94.385,142.351 L -94.859,141.83 L -95.104,141.39" fill="#F8F8F4" stroke="#222022" stroke-width="1.5" stroke-linejoin="round" stroke-linecap="butt"/><path d=" M -133.997,128.832 L -122.902,127.137 L -121.207,138.233 L -132.303,139.928 L -133.997,128.832" fill="#F8F8F4" stroke="#222022" stroke-width="1.5" stroke-linejoin="round" stroke-linecap="butt"/><path d=" M -122.337,130.836 L -133.433,132.531" stroke="#222022" stroke-width="1.5" stroke-linejoin="round" stroke-linecap="butt"/><path d=" M -121.772,134.534 L -132.868,136.229" stroke="#222022" stroke-width="1.5" stroke-linejoin="round" stroke-linecap="butt"/></g><g transform="translate(5.438 2.536)" style="mix-blend-mode: multiply" clip-path="url(#instance400)"><path d=" M 0,0"/><path d=" M -60,150 L -60,30 L 90,30 L 90,150 L -60,150 M 120,150 L 120,0 L 300,0 L 300,150 L 120,150 M -150,150 L -150,60 L -90,60 L -90,150 L -150,150 M 0,30 L 0,0 L 30,0 L 30,30 L 0,30 M 97.5,90 L 90,90 L 90,60 L 97.5,60 L 97.5,66 L 112.5,66 L 112.5,60 L 120,60 L 120,90 L 112.5,90 L 112.5,84 L 97.5,84 L 97.5,90 M -67.5,90 L -60,90 L -60,120 L -67.5,120 L -67.5,114 L -82.5,114 L -82.5,120 L -90,120 L -90,90 L -82.5,90 L -82.5,96 L -67.5,96 L -67.5,90 M 300,90 L 300,60 L 330,60 L 330,90 L 300,90" stroke="#CCCCCC" stroke-width="13.2" stroke-linejoin="round" stroke-linecap="butt"/><path d=" M -60,150 L -60,30 L 90,30 L 90,150 L -60,150" fill="#FFFFFF"/><path d=" M 120,150 L 120,0 L 300,0 L 300,150 L 120,150" fill="#FFFFFF"/><path d=" M -150,150 L -150,60 L -90,60 L -90,150 L -150,150" fill="#FFFFFF"/><path d=" M 0,30 L 0,0 L 30,0 L 30,30 L 0,30" fill="#FFFFFF"/><path d=" M 97.5,90 L 90,90 L 90,60 L 97.5,60 L 97.5,66 L 112.5,66 L 112.5,60 L 120,60 L 120,90 L 112.5,90 L 112.5,84 L 97.5,84 L 97.5,90" fill="#FFFFFF"/><path d=" M -67.5,90 L -60,90 L -60,120 L -67.5,120 L -67.5,114 L -82.5,114 L -82.5,120 L -90,120 L -90,90 L -82.5,90 L -82.5,96 L -67.5,96 L -67.5,90" fill="#FFFFFF"/><path d=" M 300,90 L 300,60 L 330,60 L 330,90 L 300,90" fill="#FFFFFF"/><clipPath id="instance400" fill="#FFFFFF" transform="translate(-5.438 -2.536)"><path d=" M 0,0"/><path d=" M -60,150 L -60,30 L 90,30 L 90,150 L -60,150" fill="#FF0000"/><path d=" M 120,150 L 120,0 L 300,0 L 300,150 L 120,150" fill="#FF0000"/><path d=" M -150,150 L -150,60 L -90,60 L -90,150 L -150,150" fill="#FF0000"/><path d=" M 0,30 L 0,0 L 30,0 L 30,30 L 0,30" fill="#FF0000"/><path d=" M 97.5,90 L 90,90 L 90,60 L 97.5,60 L 97.5,66 L 112.5,66 L 112.5,60 L 120,60 L 120,90 L 112.5,90 L 112.5,84 L 97.5,84 L 97.5,90" fill="#FF0000"/><path d=" M -67.5,90 L -60,90 L -60,120 L -67.5,120 L -67.5,114 L -82.5,114 L -82.5,120 L -90,120 L -90,90 L -82.5,90 L -82.5,96 L -67.5,96 L -67.5,90" fill="#FF0000"/><path d=" M 300,90 L 300,60 L 330,60 L 330,90 L 300,90" fill="#FF0000"/></clipPath></g><g><path d=" M 0,0"/><path d=" M 3,6 L 27,6 M 6,12 L 24,12 M 9,18 L 21,18 M 12,24 L 18,24" stroke="#222022" stroke-width="1.5" stroke-linejoin="round" stroke-linecap="butt"/><path d=" M 101.25,64.5 L 108.75,64.5 L 108.75,85.5 L 101.25,85.5 L 101.25,64.5 M 101.25,75 L 108.75,75" fill="#F8F8F4" stroke="#222022" stroke-width="3" stroke-linejoin="round" stroke-linecap="butt"/><path d=" M -78.75,94.5 L -71.25,94.5 L -71.25,115.5 L -78.75,115.5 L -78.75,94.5" fill="#F8F8F4" stroke="#222022" stroke-width="3" stroke-linejoin="round" stroke-linecap="butt"/><path d=" M 306,63 L 306,87 M 312,66 L 312,84 M 318,69 L 318,81 M 324,72 L 324,78" stroke="#222022" stroke-width="1.5" stroke-linejoin="round" stroke-linecap="butt"/></g></g><text dominant-baseline="text-before-edge" style="font: bold 48px Grenze" fill="#222022" transform="translate(625.584 2)">Goblin Fortress</text><text dominant-baseline="text-before-edge" style="font: italic 24px Neuton" fill="#222022" transform="translate(458 77.04)"><tspan x="5.713">Long after the original lord's demise the fortress remained abandoned. Until </tspan><tspan x="12.41" dy="31">it was rediscovered by a goblin tribe, who made it their center of operation.</tspan></text><g transform="translate(668.83 505.804)"><path d=" M 0,0"/><text dominant-baseline="text-before-edge" style="font: bold 30px Neuton" fill="#222022" transform="translate(-6.541 -18.977)">1</text></g><g transform="translate(972.523 590.605)"><path d=" M 0,0"/><text dominant-baseline="text-before-edge" style="font: bold 30px Neuton" fill="#222022" transform="translate(-7.683 -18.977)">2</text></g><g transform="translate(456.035 454.089)"><path d=" M 0,0"/><text dominant-baseline="text-before-edge" style="font: bold 30px Neuton" fill="#222022" transform="translate(-7.734 -18.977)">3</text></g></g></svg>