<?xml version="1.0" encoding="UTF-8" standalone="no"?><svg width="861.93" height="789" xmlns="http://www.w3.org/2000/svg" stroke-linejoin="round" stroke-linecap="round" fill-rule="evenodd" fill="none"><rect x="0" y="0" width="861.93" height="789" fill="#FCF5E5"/><style><![CDATA[@import url("https://fonts.googleapis.com/css?family=IM+Fell+Great+Primer");]]></style><defs/><g><path d=" M 0,0"/><g transform="translate(496.358 409.377) scale(10.421 10.421)"><path d=" M 0,0"/><g><path d=" M 0,0"/><path d=" M 5.54,-13.221 L 6.825,-12.643 L 13.548,4.886 L 12.829,6.22 L -4.432,10.018 L -5.519,9.532 L -13.597,-4.811 L -13.077,-6.238 L 5.54,-13.221" fill="#FFFFFF"/></g><g><path d=" M 0,0"/><path d=" M -17.69,-7.363 L -25.404,-12.622 L -31.745,-25.323 L -36.814,-28.296 L -39.504,-29.563 L -41.505,-30.115 L -43.38,-30.282 L -45.128,-30.065 L -46.939,-29.573 L -48.811,-28.806 L -50.744,-27.765 L -52.74,-26.449 L -54.781,-25.323 L -56.867,-24.388 L -58.999,-23.643 L -61.177,-23.087 L -63.695,-22.748 L -66.553,-22.624 L -70.638,-22.793 L -78.602,-23.486" stroke="#888888" stroke-width="2.154" stroke-linejoin="round" stroke-linecap="butt"/><path d=" M -12.726,-5.301 L -17.69,-7.363 L -25.404,-12.622 L -31.745,-25.323 L -36.814,-28.296 L -39.504,-29.563 L -41.505,-30.115 L -43.38,-30.282 L -45.128,-30.065 L -46.939,-29.573 L -48.811,-28.806 L -50.744,-27.765 L -52.74,-26.449 L -54.781,-25.323 L -56.867,-24.388 L -58.999,-23.643 L -61.177,-23.087 L -63.695,-22.748 L -66.553,-22.624 L -70.638,-22.793 L -78.602,-23.486" stroke="#FFFFFF" stroke-width="1.846" stroke-linejoin="round" stroke-linecap="butt"/></g><g><path d=" M 0,0"/><path d=" M 12.614,5.244 L 16.628,21.097 L 20.623,24.617 L 22.703,26.352 L 24.198,27.474 L 25.554,28.375 L 26.769,29.055 L 27.992,29.644 L 29.224,30.143 L 30.463,30.55 L 31.71,30.867 L 32.979,31.222 L 34.269,31.613 L 35.581,32.042 L 36.915,32.508 L 38.27,33.012 L 39.647,33.552 L 41.045,34.13 L 42.465,34.745 L 44.024,35.322 L 45.722,35.861 L 47.56,36.362 L 49.536,36.825 L 51.652,37.25 L 53.907,37.637 L 56.301,37.985 L 58.834,38.296 L 61.339,38.883 L 63.816,39.747 L 66.264,40.887 L 68.685,42.303 L 71.365,44.311 L 74.306,46.911 L 78.372,51.049 L 86.16,59.561" stroke="#888888" stroke-width="2.154" stroke-linejoin="round" stroke-linecap="butt"/><path d=" M 12.614,5.244 L 16.628,21.097 L 20.623,24.617 L 22.703,26.352 L 24.198,27.474 L 25.554,28.375 L 26.769,29.055 L 27.992,29.644 L 29.224,30.143 L 30.463,30.55 L 31.71,30.867 L 32.979,31.222 L 34.269,31.613 L 35.581,32.042 L 36.915,32.508 L 38.27,33.012 L 39.647,33.552 L 41.045,34.13 L 42.465,34.745 L 44.024,35.322 L 45.722,35.861 L 47.56,36.362 L 49.536,36.825 L 51.652,37.25 L 53.907,37.637 L 56.301,37.985 L 58.834,38.296 L 61.339,38.883 L 63.816,39.747 L 66.264,40.887 L 68.685,42.303 L 71.365,44.311 L 74.306,46.911 L 78.372,51.049 L 86.16,59.561" stroke="#FFFFFF" stroke-width="1.846" stroke-linejoin="round" stroke-linecap="butt"/></g><g><path d=" M 0,0"/><path d=" M 1.521,-2.174 L 1.975,-1.078 L 1.521,0.017 L 0.426,0.471 L -0.669,0.017 L -1.123,-1.078 L -0.669,-2.174 L 0.426,-2.627 L 1.521,-2.174" fill="#CCCCCC" stroke="#000000" stroke-width="0.154" stroke-linejoin="miter" stroke-linecap="butt"/></g><g><path d=" M 0,0"/><path d=" M 4.737,-13.52 L 4.737,-12.92 L -1.539,-10.566 L -2.834,-14.019 L -2.834,-14.619 L -1.539,-11.166 L 4.737,-13.52" fill="#000000" stroke="#000000" stroke-width="0.154" stroke-linejoin="round" stroke-linecap="butt"/><path d=" M -7.365,-8.981 L -7.365,-8.381 L -8.936,-7.791 L -9.515,-7.574 L -10.412,-9.966 L -11.306,-10.461 L -11.306,-11.061 L -10.412,-10.566 L -9.515,-8.174 L -8.936,-8.391 L -7.365,-8.981" fill="#000000" stroke="#000000" stroke-width="0.154" stroke-linejoin="round" stroke-linecap="butt"/><path d=" M -7.693,-9.855 L -7.693,-9.255 L -9.19,-13.248 L -9.19,-13.848 L -7.693,-9.855" fill="#000000" stroke="#000000" stroke-width="0.154" stroke-linejoin="round" stroke-linecap="butt"/><path d=" M -4.487,-11.057 L -4.487,-10.457 L -7.693,-9.255 L -7.693,-9.855 L -4.487,-11.057" fill="#000000" stroke="#000000" stroke-width="0.154" stroke-linejoin="round" stroke-linecap="butt"/><path d=" M -1.539,-11.166 L -1.539,-10.566 L -4.159,-9.583 L -5.985,-14.451 L -5.985,-15.051 L -4.159,-10.183 L -1.539,-11.166" fill="#000000" stroke="#000000" stroke-width="0.154" stroke-linejoin="round" stroke-linecap="butt"/><path d=" M 2.223,-17.237 L 4.737,-13.52 L -1.539,-11.166 L -2.834,-14.619 L 2.223,-17.237" fill="#CCCCCC" stroke="#000000" stroke-width="0.154" stroke-linejoin="round" stroke-linecap="butt"/><path d=" M -8.978,-13.283 L -7.365,-8.981 L -8.936,-8.391 L -9.515,-8.174 L -10.412,-10.566 L -11.306,-11.061 L -8.978,-13.283" fill="#CCCCCC" stroke="#000000" stroke-width="0.154" stroke-linejoin="round" stroke-linecap="butt"/><path d=" M -4.487,-11.057 L -7.693,-9.855 L -9.19,-13.848 L -5.985,-15.051 L -4.487,-11.057" fill="#CCCCCC" stroke="#000000" stroke-width="0.154" stroke-linejoin="round" stroke-linecap="butt"/><path d=" M -5.985,-15.051 L -3.365,-16.033 L -1.539,-11.166 L -4.159,-10.183 L -5.985,-15.051" fill="#CCCCCC" stroke="#000000" stroke-width="0.154" stroke-linejoin="round" stroke-linecap="butt"/></g><g><path d=" M 0,0"/><path d=" M -9.14,3.704 L -9.14,4.304 L -10.138,5.486 L -15.247,2.208 L -15.247,1.608 L -10.138,4.886 L -9.14,3.704" fill="#000000" stroke="#000000" stroke-width="0.154" stroke-linejoin="round" stroke-linecap="butt"/><path d=" M -6.169,8.85 L -6.169,9.45 L -10.898,7.491 L -11.589,7.204 L -11.589,6.604 L -10.898,6.891 L -6.169,8.85" fill="#000000" stroke="#000000" stroke-width="0.154" stroke-linejoin="round" stroke-linecap="butt"/><path d=" M -6.295,8.873 L -6.295,9.473 L -6.346,9.606 L -7.368,12.274 L -10.859,10.884 L -10.859,10.284 L -7.368,11.674 L -6.346,9.006 L -6.295,8.873" fill="#000000" stroke="#000000" stroke-width="0.154" stroke-linejoin="round" stroke-linecap="butt"/><path d=" M -8.529,14.707 L -8.529,15.307 L -12.081,13.845 L -12.081,13.245 L -8.529,14.707" fill="#000000" stroke="#000000" stroke-width="0.154" stroke-linejoin="round" stroke-linecap="butt"/><path d=" M -7.367,11.674 L -7.367,12.274 L -8.529,15.307 L -8.529,14.707 L -7.367,11.674" fill="#000000" stroke="#000000" stroke-width="0.154" stroke-linejoin="round" stroke-linecap="butt"/><path d=" M -13.013,-3.172 L -9.14,3.704 L -10.138,4.886 L -15.247,1.608 L -13.013,-3.172" fill="#CCCCCC" stroke="#000000" stroke-width="0.154" stroke-linejoin="round" stroke-linecap="butt"/><path d=" M -9.096,3.653 L -6.169,8.85 L -10.898,6.891 L -11.589,6.604 L -9.096,3.653" fill="#CCCCCC" stroke="#000000" stroke-width="0.154" stroke-linejoin="round" stroke-linecap="butt"/><path d=" M -9.668,7.4 L -6.35,8.775 L -6.295,8.873 L -6.346,9.006 L -7.368,11.674 L -10.859,10.284 L -9.668,7.4" fill="#CCCCCC" stroke="#000000" stroke-width="0.154" stroke-linejoin="round" stroke-linecap="butt"/><path d=" M -7.367,11.674 L -8.529,14.707 L -12.081,13.245 L -10.859,10.284 L -7.367,11.674" fill="#CCCCCC" stroke="#000000" stroke-width="0.154" stroke-linejoin="round" stroke-linecap="butt"/></g><g><path d=" M 0,0"/><path d=" M 18.704,1.559 L 18.704,2.159 L 13.373,3.726 L 12.056,0.294 L 12.056,-0.306 L 13.373,3.126 L 18.704,1.559" fill="#000000" stroke="#000000" stroke-width="0.154" stroke-linejoin="round" stroke-linecap="butt"/><path d=" M 13.373,3.126 L 12.056,-0.306 L 17.594,-2.185 L 18.704,1.559 L 13.373,3.126" fill="#CCCCCC" stroke="#000000" stroke-width="0.154" stroke-linejoin="round" stroke-linecap="butt"/></g><g><path d=" M 0,0"/><path d=" M 1.973,13.727 L 1.973,14.327 L -1.625,15.229 L -2.785,10.269 L -2.785,9.669 L -1.625,14.629 L 1.973,13.727" fill="#000000" stroke="#000000" stroke-width="0.154" stroke-linejoin="round" stroke-linecap="butt"/><path d=" M 7.112,11.874 L 7.112,12.474 L 1.834,13.772 L 0.836,9.791 L 0.836,9.191 L 1.834,13.172 L 7.112,11.874" fill="#000000" stroke="#000000" stroke-width="0.154" stroke-linejoin="round" stroke-linecap="butt"/><path d=" M 13.1,15.228 L 13.1,15.828 L 11.071,16.338 L 9.82,11.31 L 9.82,10.71 L 11.071,15.738 L 13.1,15.228" fill="#000000" stroke="#000000" stroke-width="0.154" stroke-linejoin="round" stroke-linecap="butt"/><path d=" M 12.453,10.062 L 12.453,10.662 L 6.999,12.004 L 6.064,8.118 L 6.064,7.518 L 6.999,11.404 L 12.453,10.062" fill="#000000" stroke="#000000" stroke-width="0.154" stroke-linejoin="round" stroke-linecap="butt"/><path d=" M 14.25,17.708 L 14.25,18.308 L 10.414,19.31 L 9.706,16.682 L 9.706,16.082 L 10.414,18.71 L 14.25,17.708" fill="#000000" stroke="#000000" stroke-width="0.154" stroke-linejoin="round" stroke-linecap="butt"/><path d=" M -2.785,9.669 L 0.76,8.889 L 1.934,13.573 L 1.973,13.727 L -1.625,14.629 L -2.785,9.669" fill="#CCCCCC" stroke="#000000" stroke-width="0.154" stroke-linejoin="round" stroke-linecap="butt"/><path d=" M 0.836,9.191 L 6.184,8.015 L 7.112,11.874 L 1.834,13.172 L 0.836,9.191" fill="#CCCCCC" stroke="#000000" stroke-width="0.154" stroke-linejoin="round" stroke-linecap="butt"/><path d=" M 11.83,10.215 L 13.1,15.228 L 11.071,15.738 L 9.82,10.71 L 11.83,10.215" fill="#CCCCCC" stroke="#000000" stroke-width="0.154" stroke-linejoin="round" stroke-linecap="butt"/><path d=" M 11.505,6.321 L 12.453,10.062 L 6.999,11.404 L 6.064,7.518 L 11.505,6.321" fill="#CCCCCC" stroke="#000000" stroke-width="0.154" stroke-linejoin="round" stroke-linecap="butt"/><path d=" M 9.706,16.082 L 13.591,15.104 L 14.25,17.708 L 10.414,18.71 L 9.706,16.082" fill="#CCCCCC" stroke="#000000" stroke-width="0.154" stroke-linejoin="round" stroke-linecap="butt"/></g><g><path d=" M 0,0"/><path d=" M -18.297,4.602 L -18.297,5.202 L -19.635,8.064 L -22.532,6.71 L -22.532,6.11 L -19.635,7.464 L -18.297,4.602" fill="#000000" stroke="#000000" stroke-width="0.154" stroke-linejoin="round" stroke-linecap="butt"/><path d=" M -19.635,7.464 L -19.635,8.064 L -21.749,12.589 L -24.158,11.115 L -24.158,10.515 L -21.749,11.989 L -19.635,7.464" fill="#000000" stroke="#000000" stroke-width="0.154" stroke-linejoin="round" stroke-linecap="butt"/><path d=" M -19.194,4.183 L -19.194,4.783 L -22.883,3.059 L -22.883,2.459 L -19.194,4.183" fill="#000000" stroke="#000000" stroke-width="0.154" stroke-linejoin="round" stroke-linecap="butt"/><path d=" M -17.324,0.183 L -17.324,0.783 L -19.194,4.783 L -19.194,4.183 L -17.324,0.183" fill="#000000" stroke="#000000" stroke-width="0.154" stroke-linejoin="round" stroke-linecap="butt"/><path d=" M -16.448,0.645 L -16.448,1.245 L -20.27,-0.766 L -20.27,-1.366 L -16.448,0.645" fill="#000000" stroke="#000000" stroke-width="0.154" stroke-linejoin="round" stroke-linecap="butt"/><path d=" M -15.333,-1.741 L -15.333,-1.141 L -16.448,1.245 L -16.448,0.645 L -15.333,-1.741" fill="#000000" stroke="#000000" stroke-width="0.154" stroke-linejoin="round" stroke-linecap="butt"/><path d=" M -27.083,-3.851 L -27.083,-3.251 L -28.959,-1.075 L -31.987,-4.059 L -31.987,-4.659 L -28.959,-1.675 L -27.083,-3.851" fill="#000000" stroke="#000000" stroke-width="0.154" stroke-linejoin="round" stroke-linecap="butt"/><path d=" M -24.817,-6.48 L -24.817,-5.88 L -27.083,-3.251 L -29.883,-5.836 L -29.883,-6.436 L -27.083,-3.851 L -24.817,-6.48" fill="#000000" stroke="#000000" stroke-width="0.154" stroke-linejoin="round" stroke-linecap="butt"/><path d=" M -22.979,-10.359 L -22.979,-9.759 L -25.46,-6.391 L -28.401,-8.726 L -28.401,-9.326 L -25.46,-6.991 L -22.979,-10.359" fill="#000000" stroke="#000000" stroke-width="0.154" stroke-linejoin="round" stroke-linecap="butt"/><path d=" M -20.672,-8.027 L -20.672,-7.427 L -21.72,-5.597 L -21.848,-5.374 L -22.577,-4.101 L -25.46,-6.391 L -25.46,-6.991 L -22.577,-4.701 L -21.848,-5.974 L -21.72,-6.197 L -20.672,-8.027" fill="#000000" stroke="#000000" stroke-width="0.154" stroke-linejoin="round" stroke-linecap="butt"/><path d=" M -21.194,3.248 L -18.297,4.602 L -19.635,7.464 L -22.532,6.11 L -21.194,3.248" fill="#CCCCCC" stroke="#000000" stroke-width="0.154" stroke-linejoin="round" stroke-linecap="butt"/><path d=" M -21.938,6.388 L -19.635,7.464 L -21.749,11.989 L -24.158,10.515 L -21.938,6.388" fill="#CCCCCC" stroke="#000000" stroke-width="0.154" stroke-linejoin="round" stroke-linecap="butt"/><path d=" M -17.324,0.183 L -19.194,4.183 L -22.883,2.459 L -20.833,-1.662 L -17.324,0.183" fill="#CCCCCC" stroke="#000000" stroke-width="0.154" stroke-linejoin="round" stroke-linecap="butt"/><path d=" M -15.333,-1.741 L -16.448,0.645 L -20.27,-1.366 L -19.223,-3.572 L -15.333,-1.741" fill="#CCCCCC" stroke="#000000" stroke-width="0.154" stroke-linejoin="round" stroke-linecap="butt"/><path d=" M -28.959,-1.675 L -31.987,-4.659 L -31.962,-4.685 L -30.068,-6.607 L -27.083,-3.851 L -28.959,-1.675" fill="#CCCCCC" stroke="#000000" stroke-width="0.154" stroke-linejoin="round" stroke-linecap="butt"/><path d=" M -29.883,-6.436 L -27.634,-8.717 L -24.817,-6.48 L -27.083,-3.851 L -29.883,-6.436" fill="#CCCCCC" stroke="#000000" stroke-width="0.154" stroke-linejoin="round" stroke-linecap="butt"/><path d=" M -25.46,-6.991 L -28.401,-9.326 L -27.442,-10.3 L -27.258,-10.486 L -25.614,-12.155 L -22.979,-10.359 L -25.46,-6.991" fill="#CCCCCC" stroke="#000000" stroke-width="0.154" stroke-linejoin="round" stroke-linecap="butt"/><path d=" M -23.351,-9.854 L -20.672,-8.027 L -21.72,-6.197 L -21.848,-5.974 L -22.577,-4.701 L -25.46,-6.991 L -23.351,-9.854" fill="#CCCCCC" stroke="#000000" stroke-width="0.154" stroke-linejoin="round" stroke-linecap="butt"/></g><g><path d=" M 0,0"/><path d=" M -17.442,-15.616 L -17.442,-15.016 L -19.824,-11.369 L -23.072,-13.584 L -23.072,-14.184 L -19.824,-11.969 L -17.442,-15.616" fill="#000000" stroke="#000000" stroke-width="0.154" stroke-linejoin="round" stroke-linecap="butt"/><path d=" M -14.984,-14.09 L -14.984,-13.49 L -17.702,-8.581 L -20.43,-10.441 L -20.43,-11.041 L -17.702,-9.181 L -14.984,-14.09" fill="#000000" stroke="#000000" stroke-width="0.154" stroke-linejoin="round" stroke-linecap="butt"/><path d=" M -13.519,-18.059 L -13.519,-17.459 L -14.887,-18.216 L -14.887,-18.816 L -13.519,-18.059" fill="#000000" stroke="#000000" stroke-width="0.154" stroke-linejoin="round" stroke-linecap="butt"/><path d=" M -11.837,-24.327 L -11.837,-23.727 L -12.383,-27.371 L -12.383,-27.971 L -11.837,-24.327" fill="#000000" stroke="#000000" stroke-width="0.154" stroke-linejoin="round" stroke-linecap="butt"/><path d=" M -7.639,-28.682 L -7.639,-28.082 L -13.519,-17.459 L -13.519,-18.059 L -7.639,-28.682" fill="#000000" stroke="#000000" stroke-width="0.154" stroke-linejoin="round" stroke-linecap="butt"/><path d=" M -23.696,-13.268 L -23.696,-12.668 L -24.626,-13.302 L -27.086,-18.231 L -27.086,-18.831 L -24.626,-13.902 L -23.696,-13.268" fill="#000000" stroke="#000000" stroke-width="0.154" stroke-linejoin="round" stroke-linecap="butt"/><path d=" M -21.605,-16.335 L -21.605,-15.735 L -23.696,-12.668 L -23.696,-13.268 L -21.605,-16.335" fill="#000000" stroke="#000000" stroke-width="0.154" stroke-linejoin="round" stroke-linecap="butt"/><path d=" M -26.419,-19.059 L -26.419,-18.459 L -27.754,-21.133 L -27.754,-21.733 L -26.419,-19.059" fill="#000000" stroke="#000000" stroke-width="0.154" stroke-linejoin="round" stroke-linecap="butt"/><path d=" M -23.473,-20.066 L -23.473,-19.466 L -26.419,-18.459 L -26.419,-19.059 L -23.473,-20.066" fill="#000000" stroke="#000000" stroke-width="0.154" stroke-linejoin="round" stroke-linecap="butt"/><path d=" M -24.201,-23.032 L -24.201,-22.432 L -27.895,-21.081 L -29.646,-24.588 L -29.646,-25.188 L -27.895,-21.681 L -24.201,-23.032" fill="#000000" stroke="#000000" stroke-width="0.154" stroke-linejoin="round" stroke-linecap="butt"/><path d=" M -19.824,-11.969 L -23.072,-14.184 L -20.711,-17.647 L -17.442,-15.616 L -19.824,-11.969" fill="#CCCCCC" stroke="#000000" stroke-width="0.154" stroke-linejoin="round" stroke-linecap="butt"/><path d=" M -17.442,-15.616 L -14.984,-14.09 L -17.702,-9.181 L -20.43,-11.041 L -17.442,-15.616" fill="#CCCCCC" stroke="#000000" stroke-width="0.154" stroke-linejoin="round" stroke-linecap="butt"/><path d=" M -7.639,-28.682 L -13.519,-18.059 L -14.887,-18.816 L -11.837,-24.327 L -12.383,-27.971 L -7.639,-28.682" fill="#CCCCCC" stroke="#000000" stroke-width="0.154" stroke-linejoin="round" stroke-linecap="butt"/><path d=" M -21.605,-16.335 L -23.696,-13.268 L -24.626,-13.902 L -27.086,-18.831 L -24.041,-19.872 L -21.605,-16.335" fill="#CCCCCC" stroke="#000000" stroke-width="0.154" stroke-linejoin="round" stroke-linecap="butt"/><path d=" M -23.473,-20.066 L -26.419,-19.059 L -27.754,-21.733 L -24.201,-23.032 L -23.473,-20.066" fill="#CCCCCC" stroke="#000000" stroke-width="0.154" stroke-linejoin="round" stroke-linecap="butt"/><path d=" M -29.646,-25.188 L -24.905,-25.899 L -24.201,-23.032 L -27.895,-21.681 L -29.646,-25.188" fill="#CCCCCC" stroke="#000000" stroke-width="0.154" stroke-linejoin="round" stroke-linecap="butt"/></g><g><path d=" M 0,0"/><path d=" M -12.726,-5.301 L 5.891,-12.285 L 12.614,5.244 L -4.647,9.041 L -12.726,-5.301" fill="#000000" fill-opacity="0"/></g><g><path d=" M 0,0"/><path d=" M -5.578,-29.243 L 5.891,-12.285 L -12.726,-5.301 L -17.69,-7.363 L -5.578,-29.243" fill="#000000" fill-opacity="0"/></g><g><path d=" M 0,0"/><path d=" M -12.726,-5.301 L -4.647,9.041 L -8.071,17.971 L -23.407,17.552 L -12.726,-5.301" fill="#000000" fill-opacity="0"/></g><g><path d=" M 0,0"/><path d=" M 5.891,-12.285 L 18.902,-20.24 L 23.976,1.903 L 12.614,5.244 L 5.891,-12.285" fill="#000000" fill-opacity="0"/></g><g><path d=" M 0,0"/><path d=" M -4.647,9.041 L 12.614,5.244 L 16.628,21.097 L -1.573,26.302 L -8.071,17.971 L -4.647,9.041" fill="#000000" fill-opacity="0"/></g><g><path d=" M 0,0"/><path d=" M -17.69,-7.363 L -12.726,-5.301 L -23.407,17.552 L -36.594,-1.267 L -25.404,-12.622 L -17.69,-7.363" fill="#000000" fill-opacity="0"/></g><g><path d=" M 0,0"/><path d=" M -31.745,-25.323 L -5.578,-29.243 L -17.69,-7.363 L -25.404,-12.622 L -31.745,-25.323" fill="#000000" fill-opacity="0"/></g><g><path d=" M 0,0"/><path d=" M 18.322,-40.018 L 18.902,-20.24 L 5.891,-12.285 L -5.578,-29.243 L -4.237,-39.38 L 18.322,-40.018" fill="#000000" fill-opacity="0"/></g><g><path d=" M 0,0"/><path d=" M 18.902,-20.24 L 42.382,-17.791 L 43.858,4.656 L 23.976,1.903 L 18.902,-20.24" fill="#000000" fill-opacity="0"/></g><g><path d=" M 0,0"/><path d=" M 23.976,1.903 L 43.858,4.656 L 36.075,31.977 L 26.098,29.441 L 16.628,21.097 L 12.614,5.244 L 23.976,1.903" fill="#000000" fill-opacity="0"/></g><g><path d=" M 0,0"/><path d=" M -8.071,17.971 L -1.573,26.302 L -8.664,47.828 L -34.239,30.707 L -23.407,17.552 L -8.071,17.971" fill="#000000" fill-opacity="0"/></g><g><path d=" M 0,0"/><path d=" M 16.628,21.097 L 26.098,29.441 L 13.21,54.064 L -8.664,47.828 L -1.573,26.302 L 16.628,21.097" fill="#000000" fill-opacity="0"/></g><g><path d=" M 0,0"/><path d=" M -36.594,-1.267 L -23.407,17.552 L -34.239,30.707 L -57.828,10.427 L -50.264,-1.464 L -36.594,-1.267" fill="#000000" fill-opacity="0"/></g><g><path d=" M 0,0"/><path d=" M -31.745,-25.323 L -25.404,-12.622 L -36.594,-1.267 L -50.264,-1.464 L -59.723,-21.844 L -43.761,-32.37 L -31.745,-25.323" fill="#000000" fill-opacity="0"/></g><g><path d=" M 0,0"/><path d=" M 40.314,-52.818 L 50.064,-27.239 L 42.382,-17.791 L 18.902,-20.24 L 18.322,-40.018 L 30.76,-54.602 L 40.314,-52.818" fill="#000000" fill-opacity="0"/></g><g><path d=" M 0,0"/><path d=" M -4.237,-39.38 L -5.578,-29.243 L -31.745,-25.323 L -43.761,-32.37 L -42.494,-49.91 L -15.126,-64.714 L -4.237,-39.38" fill="#000000" fill-opacity="0"/></g><g><path d=" M 0,0"/><path d=" M 30.76,-54.602 L 18.322,-40.018 L -4.237,-39.38 L -15.126,-64.714 L 17.709,-73.992 L 30.76,-54.602" fill="#000000" fill-opacity="0"/></g><g><path d=" M 0,0"/><path d=" M 36.075,31.977 L 47.435,36.898 L 39.23,67.649 L 21.644,68.602 L 13.21,54.064 L 26.098,29.441 L 36.075,31.977" fill="#000000" fill-opacity="0"/></g><g><path d=" M 0,0"/><path d=" M 50.064,-27.239 L 71.738,-25.229 L 72.102,7.108 L 43.858,4.656 L 42.382,-17.791 L 50.064,-27.239" fill="#000000" fill-opacity="0"/></g><g><path d=" M 0,0"/><path d=" M 36.075,31.977 L 43.858,4.656 L 72.102,7.108 L 67.7,39.383 L 47.435,36.898 L 36.075,31.977" fill="#000000" fill-opacity="0"/></g><g><path d=" M 0,0"/><path d=" M -34.239,30.707 L -8.664,47.828 L -22.277,69.409 L -57.021,53.129 L -34.239,30.707" fill="#000000" fill-opacity="0"/></g><g><path d=" M 0,0"/><path d=" M -8.664,47.828 L 13.21,54.064 L 21.644,68.602 L 11.688,83.71 L -21.073,74.423 L -22.277,69.409 L -8.664,47.828" fill="#000000" fill-opacity="0"/></g><g><path d=" M 0,0"/><path d=" M -78.364,21.505 L -57.828,10.427 L -34.239,30.707 L -57.021,53.129 L -59.76,53.589 L -79.383,34.883 L -78.364,21.505" fill="#000000" fill-opacity="0"/></g><g><path d=" M 0,0"/><path d=" M -50.264,-1.464 L -57.828,10.427 L -78.364,21.505 L -91.933,1.967 L -78.602,-23.486 L -59.723,-21.844 L -50.264,-1.464" fill="#000000" fill-opacity="0"/></g><g><path d=" M 0,0"/><path d=" M -42.494,-49.91 L -43.761,-32.37 L -59.723,-21.844 L -78.602,-23.486 L -89.195,-42.354 L -67.06,-68.696 L -42.494,-49.91" fill="#000000" fill-opacity="0"/></g><g><path d=" M 0,0"/><path d=" M 39.23,67.649 L 47.435,36.898 L 67.7,39.383 L 86.16,59.561 L 85.833,60.556 L 46.724,72.2 L 39.23,67.649" fill="#000000" fill-opacity="0"/></g><g><path d=" M 0,0"/><path d=" M -20.067,-80.193 L -15.126,-64.714 L -42.494,-49.91 L -67.06,-68.696 L -67.094,-68.952 L -37.293,-95.337 L -20.067,-80.193" fill="#000000" fill-opacity="0"/></g><g><path d=" M 0,0"/><path d=" M 88.891,-40.53 L 71.738,-25.229 L 50.064,-27.239 L 40.314,-52.818 L 64.701,-68.492 L 84.287,-65.965 L 93.323,-49.795 L 88.891,-40.53" fill="#000000" fill-opacity="0"/></g><g><path d=" M 0,0"/><path d=" M 4.562,-108.523 L 17.709,-73.992 L -15.126,-64.714 L -20.067,-80.193 L 4.562,-108.523" fill="#000000" fill-opacity="0"/></g><g><path d=" M 0,0"/><path d=" M 45.524,-97.561 L 64.701,-68.492 L 40.314,-52.818 L 30.76,-54.602 L 17.709,-73.992 L 45.524,-97.561" fill="#000000" fill-opacity="0"/></g><g><path d=" M 0,0"/><path d=" M 72.102,7.108 L 71.738,-25.229 L 88.891,-40.53 L 105.12,2.244 L 96.763,8.955 L 72.102,7.108" fill="#000000" fill-opacity="0"/></g><g><path d=" M 0,0"/><path d=" M 67.7,39.383 L 72.102,7.108 L 96.763,8.955 L 102.116,47.635 L 86.16,59.561 L 67.7,39.383" fill="#000000" fill-opacity="0"/></g><g><path d=" M 0,0"/></g></g><g><path d=" M 0,0"/></g><g><path d=" M 0,0"/><g transform="translate(10 779)"><path d=" M 0,0"/><path d=" M 0,-12 L 261,-12 L 261,0 L 0,0 L 0,-12" fill="#FF0000" fill-opacity="0"/><path d=" M 0,-12 L 0,0 L 260.514,0 L 260.514,-12 M 65.129,0 L 65.129,-6 M 130.257,0 L 130.257,-12 M 195.386,0 L 195.386,-6" stroke="#000000" stroke-width="1.6" stroke-linejoin="miter" stroke-linecap="butt"/><text dominant-baseline="text-before-edge" transform="translate(-6.311 -38.076) scale(0.1 0.1)" style="font: 210px IM Fell Great Primer, serif" fill="#000000">0</text><text dominant-baseline="text-before-edge" transform="translate(119.065 -38.076) scale(0.1 0.1)" style="font: 210px IM Fell Great Primer, serif" fill="#000000">50</text><text dominant-baseline="text-before-edge" transform="translate(243.99 -38.076) scale(0.1 0.1)" style="font: 210px IM Fell Great Primer, serif" fill="#000000">100</text><text dominant-baseline="text-before-edge" transform="translate(277.039 -38.076) scale(0.1 0.1)" style="font: 210px IM Fell Great Primer, serif" fill="#000000">m</text></g></g><g><path d=" M 0,0"/><g transform="translate(771.93 699)"><path d=" M 0,0"/><path d=" M 80,0 Q 80,33.137 56.569,56.569 Q 33.137,80 0,80 L 0,80 Q -33.137,80 -56.569,56.569 Q -80,33.137 -80,0 L -80,0 Q -80,-33.137 -56.569,-56.569 Q -33.137,-80 0,-80 L 0,-80 Q 33.137,-80 56.569,-56.569 Q 80,-33.137 80,0 L 80,0" fill="#FF0000" fill-opacity="0"/><path d=" M 50.939,0 Q 50.939,21.1 36.019,36.019 Q 21.1,50.939 0,50.939 L 0,50.939 Q -21.1,50.939 -36.019,36.019 Q -50.939,21.1 -50.939,0 L -50.939,0 Q -50.939,-21.1 -36.019,-36.019 Q -21.1,-50.939 0,-50.939 L 0,-50.939 Q 21.1,-50.939 36.019,-36.019 Q 50.939,-21.1 50.939,0 L 50.939,0" stroke="#000000" stroke-width="1.6" stroke-linejoin="round" stroke-linecap="butt"/><path d=" M 0,0 L 52.153,52.153 L 0,8.107 L 0,0 M 0,0 L -52.153,52.153 L -8.107,0 L 0,0 M 0,0 L -52.153,-52.153 L 0,-8.107 L 0,0 M 0,0 L 52.153,-52.153 L 8.107,0 L 0,0" fill="#000000"/><path d=" M 0,0 L 0,8.107 L -52.153,52.153 L 0,0 M 0,0 L -8.107,0 L -52.153,-52.153 L 0,0 M 0,0 L 0,-8.107 L 52.153,-52.153 L 0,0 M 0,0 L 8.107,0 L 52.153,52.153 L 0,0" fill="#CCCCCC"/><path d=" M 8.107,0 L 52.153,52.153 L 0,8.107 L -52.153,52.153 L -8.107,0 L -52.153,-52.153 L 0,-8.107 L 52.153,-52.153 L 8.107,0" stroke="#000000" stroke-width="1.6" stroke-linejoin="round" stroke-linecap="butt"/><path d=" M 0,0 L 80,0 L 7.204,7.204 L 0,0 M 0,0 L 0,80 L -7.204,7.204 L 0,0 M 0,0 L -80,0 L -7.204,-7.204 L 0,0 M 0,0 L 0,-80 L 7.204,-7.204 L 0,0" fill="#000000"/><path d=" M 0,0 L 7.204,7.204 L 0,80 L 0,0 M 0,0 L -7.204,7.204 L -80,0 L 0,0 M 0,0 L -7.204,-7.204 L 0,-80 L 0,0 M 0,0 L 7.204,-7.204 L 80,0 L 0,0" fill="#CCCCCC"/><path d=" M 7.204,-7.204 L 80,0 L 7.204,7.204 L 0,80 L -7.204,7.204 L -80,0 L -7.204,-7.204 L 0,-80 L 7.204,-7.204" stroke="#000000" stroke-width="1.6" stroke-linejoin="round" stroke-linecap="butt"/><g transform="translate(0 -80)"><path d=" M 0,0"/><text dominant-baseline="text-before-edge" transform="translate(-11.65 -31.412) scale(0.1 0.1)" style="font: 270px IM Fell Great Primer, serif" fill="#000000">N</text></g></g></g><g><path d=" M 0,0"/><g transform="translate(430.965 45.012)" stroke="#FCF5E5" stroke-width="6.4"><path d=" M 0,0"/><text dominant-baseline="text-before-edge" transform="translate(-154.534 -35.012)" style="font: 54px IM Fell Great Primer, serif" fill="#000000">Mining Town</text></g><g transform="translate(430.965 45.012)"><path d=" M 0,0"/><text dominant-baseline="text-before-edge" transform="translate(-154.534 -35.012)" style="font: 54px IM Fell Great Primer, serif" fill="#000000">Mining Town</text></g></g></g></svg>