<?xml version="1.0" encoding="UTF-8" standalone="no"?><svg width="1536" height="1024" xmlns="http://www.w3.org/2000/svg" stroke-linejoin="round" stroke-linecap="round" fill-rule="evenodd" fill="none"><rect x="0" y="0" width="1536" height="1024" fill="#FCF5E5"/><style><![CDATA[@import url("https://fonts.googleapis.com/css2?family=Grenze:wght@700&display=swap");@import url("https://fonts.googleapis.com/css2?family=Neuton:ital@1&display=swap");@import url("https://fonts.googleapis.com/css2?family=Neuton:wght@800&display=swap");]]></style><defs/><g><path d=" M 0,0"/><g transform="translate(745.953 491.378) rotate(-80 0 0) scale(1.812 1.812)"><path d=" M 0,0"/><g><path d=" M 0,0"/><path d=" M 15,60 Q 15,66.213 10.607,70.607 Q 6.213,75 0,75 L -120,75 Q -126.213,75 -130.607,70.607 Q -135,66.213 -135,60 L -135,-30 Q -135,-36.213 -130.607,-40.607 Q -126.213,-45 -120,-45 L 0,-45 Q 6.213,-45 10.607,-40.607 Q 15,-36.213 15,-30 L 15,60" fill="#CCCECE" stroke="#CCCECE" stroke-width="3" stroke-linejoin="round" stroke-linecap="butt" stroke-opacity="0.4"/><path d=" M 45,-60 Q 45,-53.787 40.607,-49.393 Q 36.213,-45 30,-45 L -60,-45 Q -66.213,-45 -70.607,-49.393 Q -75,-53.787 -75,-60 L -75,-150 Q -75,-156.213 -70.607,-160.607 Q -66.213,-165 -60,-165 L 30,-165 Q 36.213,-165 40.607,-160.607 Q 45,-156.213 45,-150 L 45,-60" fill="#CCCECE" stroke="#CCCECE" stroke-width="3" stroke-linejoin="round" stroke-linecap="butt" stroke-opacity="0.4"/><path d=" M 45,180 Q 45,186.213 40.607,190.607 Q 36.213,195 30,195 L -60,195 Q -66.213,195 -70.607,190.607 Q -75,186.213 -75,180 L -75,90 Q -75,83.787 -70.607,79.393 Q -66.213,75 -60,75 L 30,75 Q 36.213,75 40.607,79.393 Q 45,83.787 45,90 L 45,180" fill="#CCCECE" stroke="#CCCECE" stroke-width="3" stroke-linejoin="round" stroke-linecap="butt" stroke-opacity="0.4"/><path d=" M 45,30 Q 45,36.213 40.607,40.607 Q 36.213,45 30,45 L 0,45 Q -6.213,45 -10.607,40.607 Q -15,36.213 -15,30 L -15,0 Q -15,-6.213 -10.607,-10.607 Q -6.213,-15 0,-15 L 30,-15 Q 36.213,-15 40.607,-10.607 Q 45,-6.213 45,0 L 45,30" fill="#CCCECE" stroke="#CCCECE" stroke-width="3" stroke-linejoin="round" stroke-linecap="butt" stroke-opacity="0.4"/><path d=" M 15,-30 Q 15,-23.787 10.607,-19.393 Q 6.213,-15 0,-15 L -30,-15 Q -36.213,-15 -40.607,-19.393 Q -45,-23.787 -45,-30 L -45,-60 Q -45,-66.213 -40.607,-70.607 Q -36.213,-75 -30,-75 L 0,-75 Q 6.213,-75 10.607,-70.607 Q 15,-66.213 15,-60 L 15,-30" fill="#CCCECE" stroke="#CCCECE" stroke-width="3" stroke-linejoin="round" stroke-linecap="butt" stroke-opacity="0.4"/><path d=" M 15,90 Q 15,96.213 10.607,100.607 Q 6.213,105 0,105 L -30,105 Q -36.213,105 -40.607,100.607 Q -45,96.213 -45,90 L -45,60 Q -45,53.787 -40.607,49.393 Q -36.213,45 -30,45 L 0,45 Q 6.213,45 10.607,49.393 Q 15,53.787 15,60 L 15,90" fill="#CCCECE" stroke="#CCCECE" stroke-width="3" stroke-linejoin="round" stroke-linecap="butt" stroke-opacity="0.4"/><path d=" M -59.179,67.691 L -49.401,51.393 M -54.135,67.702 L -45.123,52.681 M -51.62,71.93 L -41.871,55.68 M -78.002,71.382 L -67.656,57.309 M -72.992,71.879 L -62.556,57.684 M -70.3,75.529 L -59.043,60.218 M -47.221,72.352 L -64.44,76.044 M -49.511,68.413 L -67.98,72.374 M -52.257,64.572 L -58.054,65.816 M -77.713,78.604 L -94.315,76.687 M -70.009,75.134 L -91.835,72.613 M -76.965,69.971 L -93.911,68.014 M -57.77,74.614 L -65.761,85.215 M -64.24,76.002 L -71.801,86.032 M -66.727,72.105 L -72.954,80.366 M -85.537,50.565 L -72.726,64.205 M -87.949,54.322 L -75.335,67.753 M -93.341,54.909 L -77.944,71.302 M -88.792,63.214 L -104.528,62.858 M -89.627,58.862 L -105.59,58.501 M -87.713,54.573 L -102.278,54.244 M -99.041,79.042 L -107.819,64.644 M -95.502,76.526 L -103.825,62.874 M -90.029,77.182 L -98.682,62.99 M -72.62,79.923 L -85.672,75.523 M -74.964,74.562 L -84.616,71.309 M -72.271,70.899 L -76.58,69.447 M -118.856,68.379 L -107.342,54.073 M -116.268,72.071 L -105.351,58.507 M -113.122,75.07 L -106.488,66.827 M -62.384,97.315 L -75.629,84.748 M -59.74,93.853 L -70.209,83.92 M -56.297,91.149 L -64.423,83.439 M -123.8,39.355 L -115.113,28.719 M -121.84,43.802 L -110.319,29.696 M -119.021,47.198 L -107.907,33.59 M -115.491,49.588 L -118.364,67.767 M -119.795,49.078 L -122.514,66.285 M -124.165,48.985 L -126.788,65.582 M -125.325,56.324 L -130.249,36.925 M -120.908,56.122 L -125.582,37.705 M -118.779,46.902 L -120.105,41.678 M -25.003,67.905 L -45.292,61.381 M -24.861,63.401 L -43.003,57.567 M -24.516,58.962 L -41.235,53.586 M -30.944,82.583 L -56.849,74.417 M -29.74,78.421 L -48.275,72.578 M -28.527,74.262 L -45.201,69.006 M -109.063,27.767 L -125.045,25.849 M -108.638,23.455 L -125.293,21.457 M -105.983,19.411 L -124.672,17.169 M -138.897,37.557 L -136.156,23.085 M -134.728,38.821 L -131.201,20.2 M -130.625,40.433 L -127.233,22.525 M -48.963,76.902 L -55.489,92.814 M -53.108,75.596 L -58.594,88.97 M -57.35,74.524 L -61.964,85.773 M -51.389,90.045 L -57.666,102.587 M -56.628,90.835 L -62.339,102.247 M -61.938,91.768 L -63.964,95.816 M -24.899,63.389 L -21.924,47.779 M -20.925,65.672 L -17.8,49.279 M -16.689,66.582 L -13.118,47.845 M -31.44,82.426 L -30.803,78.086 M -28.13,89.698 L -25.273,70.236 M -23.595,88.626 L -20.81,69.651 M -21.133,71.852 L -30.888,61.463 M -14.015,73.106 L -24.602,61.83 M -16.269,64.378 L -19.934,60.474 M -31.243,95.168 L -48.456,94.41 M -29.66,90.902 L -47.728,90.107 M -27.683,86.654 L -47.414,85.785 M -131.68,22.73 L -143.938,11.763 M -121.181,26.312 L -139.411,10.001 M -124.855,17.213 L -137.807,5.624 M -110.714,16.167 L -123.84,7.762 M -108.202,12.633 L -120.654,4.659 M -105.092,9.481 L -117.213,1.719 M -109.312,72.926 L -123.225,83.148 M -110.093,68.126 L -125.103,79.154 M -106.848,60.367 L -127.01,75.18 M -46.808,105.695 L -65.628,113.134 M -51.114,102.74 L -67.346,109.156 M -56.471,100.2 L -66.384,104.119 M -76.084,111.262 L -69.967,99.452 M -73.083,114.885 L -66.35,101.886 M -69.733,117.835 L -64.695,108.108 M -124.794,73.552 L -133.533,67.258 M -121.126,70.857 L -133.427,61.997 M -122.264,64.699 L -126.201,61.864 M -32.508,95.112 L -32.655,90.77 M -28.068,98.211 L -28.463,86.619 M -23.735,98.19 L -24.273,82.409 M -43.088,-39.313 L -47.249,-23.754 M -47.232,-40.583 L -51.138,-25.976 M -51.682,-40.707 L -55.983,-24.623 M -20.988,-25.457 L -38.669,-29.297 M -22.38,-30.192 L -44.257,-34.942 M -22.677,-34.688 L -43.137,-39.131 M -63.105,-15.638 L -63.442,-32.061 M -58.838,-18.813 L -59.122,-32.644 M -54.448,-15.996 L -54.722,-29.34 M 11.136,60.974 L 0.206,73.396 M 8.264,57.681 L -2.221,69.598 M 5.463,54.307 L -5.791,67.099 M -4.525,88.616 L -10.356,71.124 M -0.931,85.701 L -5.874,70.872 M 3.49,85.266 L -1.867,69.196 M -4.246,65.343 L -14.849,56.931 M -1.381,62.087 L -13.934,52.128 M 1.483,58.831 L -10.18,49.578 M -125.856,59.684 L -139.283,57.432 M -125.575,55.339 L -140.929,52.765 M -126.74,50.752 L -138.744,48.739 M -79.858,-24.926 L -84.438,-39.239 M -74.555,-22.564 L -80.763,-41.966 M -71.383,-26.864 L -75.762,-40.549 M -87.921,-17.156 L -93.568,-36.104 M -83.927,-18.918 L -88.368,-33.823 M -79.616,-19.62 L -84.619,-36.408 M -102.222,-18.733 L -104.625,-34.716 M -97.515,-16.562 L -100.412,-35.822 M -93.221,-17.133 L -95.925,-35.112 M -128.251,44.795 L -144.267,43.786 M -130.602,40.307 L -141.447,39.624 M -134.146,35.744 L -138.502,35.47 M -11.225,7.509 L 0.58,-3.774 M -8.084,10.499 L 4.76,-1.778 M -2.902,11.537 L 7.129,1.949 M -6.943,19.862 L 7.973,19.837 M -8.87,24.196 L 6.706,24.171 M -8.2,28.526 L 8.877,28.498 M 0.482,-3.681 L -10.916,-2.529 M 5.951,-8.587 L -9.226,-7.053 M 4.07,-12.75 L -11.054,-11.222 M -7.67,51.569 L -9.504,29.591 M -3.016,55.261 L -5.247,28.521 M 0.543,45.828 L -0.901,28.514 M -59.961,-45.163 L -46.062,-60.074 M -56.293,-42.746 L -44.727,-55.153 M -52.542,-40.418 L -40.946,-52.857 M -54.269,-31.032 L -66.586,-47.82 M -52.835,-36.398 L -59.572,-45.581 M -51.35,-41.696 L -53.958,-45.251 M -70.354,-29.012 L -73.731,-48.406 M -66.164,-30.199 L -69.056,-46.81 M -62.123,-32.24 L -64.291,-44.692 M -13.875,-23.379 L -18.567,-38.602 M -9.147,-22.743 L -15.042,-41.873 M -5.095,-24.303 L -9.84,-39.697 M -5.235,-11.81 L -0.112,-26.935 M -0.5,-12.288 L 4.199,-26.161 M 2.708,-8.259 L 8.177,-24.404 M -0.513,-25.75 L -0.724,-37.271 M 3.831,-25.075 L 3.603,-37.551 M 8.175,-24.4 L 7.941,-37.219 M 9.925,-44.376 L -0.669,-34.265 M 6.161,-46.77 L -7.887,-33.363 M 2.262,-49.037 L -9.313,-37.989 M -117.206,-10.148 L -132.864,-14.926 M -118.339,-15.022 L -133.112,-19.53 M -113.632,-18.115 L -129.444,-22.939 M -113.256,3.03 L -128.63,-3.848 M -112.015,-1.16 L -126.72,-7.739 M -110.851,-5.384 L -123.616,-11.095 M -106.524,-20.609 L -123.303,-24.669 M -106.447,-25.047 L -122.588,-28.952 M -104.273,-28.977 L -123.068,-33.525 M -72.745,131.314 L -70.142,117.443 M -68.509,132.228 L -66.059,119.17 M -64.831,136.107 L -61.547,118.611 M -71.609,125.263 L -82.87,113.061 M -70.613,119.956 L -80.404,109.348 M -68.634,115.714 L -71.759,112.328 M -127.72,0.479 L -141.862,-11.998 M -123.453,-1.532 L -136.8,-13.308 M -121.082,-5.217 L -131.677,-14.563 M -137.772,11.467 L -138.376,-8.922 M -133.498,9.48 L -133.927,-4.997 M -129.047,13.462 L -129.477,-1.071 M -126.839,15.438 L -129.232,7.212 M -121.722,17.523 L -126.445,1.289 M -119.183,10.744 L -122.452,-0.491 M -19.757,-63.325 L -9.884,-71.515 M -17.251,-59.776 L -5.206,-69.768 M -16.784,-54.536 L -1.022,-67.611 M -18.451,-49.149 L -27.541,-61.345 M -15.274,-52.134 L -24.081,-63.95 M -13.619,-57.162 L -16.211,-60.639 M 5.831,-46.456 L 1.662,-48.464 M 15.772,-46.474 L 0.314,-53.921 M 18.645,-49.897 L 2.116,-57.861 M -61.987,120.953 L -49.083,120.232 M -62.809,125.337 L -46.834,124.444 M -63.632,129.721 L -47.755,128.833 M -51.361,-54.389 L -73.569,-47.478 M -51.477,-58.889 L -70.085,-53.098 M -55.577,-62.149 L -68.721,-58.059 M -37.27,-37.857 L -45.951,-47.488 M -30.02,-36.283 L -42.987,-50.668 M -28.931,-41.544 L -40.728,-54.632 M -118.292,-20.117 L -136.487,-26.681 M -116.925,-24.229 L -135.249,-30.839 M -118.419,-29.372 L -130.614,-33.771 M 17.97,-2.786 L 2.706,-5.369 M 22.288,-6.448 L 6.462,-9.127 M 22.114,-10.871 L 4.597,-13.835 M 20.603,-28.431 L 11.719,-18.54 M 18.496,-32.568 L 6.367,-19.063 M 15.685,-35.919 L 8.119,-27.494 M -114.267,-35.364 L -124.415,-45.21 M -109.183,-36.467 L -122.937,-49.811 M -106.251,-39.656 L -118.211,-51.26 M -28.142,-50.663 L -38.692,-52.373 M -22.123,-54.075 L -47.778,-58.233 M -25.843,-59.066 L -42.511,-61.767 M 3.497,-57.195 L -3.455,-50.147 M 7.087,-67.002 L -5.784,-53.954 M 3.829,-69.868 L -9.79,-56.06 M -35.394,-60.614 L -40.531,-72.026 M -30.27,-59.784 L -37.119,-74.998 M -24.214,-56.88 L -33.246,-76.944 M 11.408,11.863 L 5.632,3.38 M 15.356,9.965 L 5.201,-4.947 M 18.092,6.288 L 11.124,-3.945 M -131.319,-29.421 L -135.712,-42.971 M -127.854,-32.776 L -131.691,-44.615 M -122.698,-30.916 L -127.936,-47.076 M -105.435,-29.258 L -116.429,-33.939 M -104.45,-33.546 L -118.603,-39.571 M -95.847,-34.591 L -116.166,-43.241 M -16.78,101.158 L -16.62,82.738 M -12.433,99.418 L -12.299,83.869 M -8.121,101.579 L -7.92,78.43 M -70.555,-69.556 L -55.022,-76.14 M -71.643,-64.39 L -55.246,-71.341 M -69.431,-60.623 L -53.581,-67.342 M -50.598,-105.501 L -52.995,-88.098 M -54.707,-107.408 L -57.452,-87.479 M -59.095,-107.294 L -61.568,-89.339 M -70.14,-69.731 L -79.856,-78.307 M -65.718,-71.606 L -77.386,-81.904 M -61.296,-73.48 L -73.635,-84.37 M -62.952,-82.517 L -76.808,-85.429 M -59.225,-86.16 L -76.115,-89.709 M -61.335,-91.029 L -76.264,-94.166 M 31.209,15.886 L 18.759,3.937 M 35.64,14.135 L 24.382,3.331 M 37.4,9.821 L 20.054,-6.826 M 30.305,-13.163 L 25.619,-1.485 M 26.578,-15.504 L 22.25,-4.719 M 20.183,-11.197 L 18.532,-7.084 M 36.207,30.961 L 20.346,25.633 M 37.404,26.794 L 22.919,21.928 M 42.329,23.879 L 23.79,17.652 M 39.293,6.396 L 26.657,-4.07 M 44.101,4.754 L 28.351,-8.292 M 43.758,-1.154 L 33.661,-9.517 M 42.816,3.69 L 38.821,22.701 M 37.152,9.583 L 34.687,21.312 M 32.419,11.044 L 30.553,19.924 M -73.499,-47.073 L -84.725,-47.036 M -60.816,-51.447 L -83.085,-51.372 M -61.481,-55.776 L -84.594,-55.699 M -90.73,-26.582 L -92.557,-47.492 M -86.454,-27.398 L -87.973,-44.792 M -82.653,-33.662 L -83.822,-47.039 M 13.055,-52.59 L 13.139,-66.068 M 17.373,-50.51 L 17.474,-66.608 M 21.698,-49.368 L 21.788,-63.927 M 21.716,-52.259 L 33.434,-57.196 M 19.431,-46.596 L 35.298,-53.281 M 20.094,-42.176 L 35.335,-48.597 M -59.261,-106.089 L -74.349,-106.501 M -58.151,-110.391 L -74.439,-110.837 M -57.237,-114.699 L -73.359,-115.14 M 3.617,-36.781 L 14.351,-47.159 M 7.982,-34.976 L 17.938,-44.602 M 8.09,-29.056 L 20.765,-41.311 M 15.635,47.69 L -3.282,52.067 M 12.067,44.07 L -3.646,47.705 M 13.905,39.199 L 0.254,42.357 M 21.36,55.789 L 6.848,59.29 M 20.539,51.532 L 4.501,55.401 M 20.599,47.062 L 5.255,50.764 M -107.717,-41.079 L -99.266,-50.385 M -104.437,-38.248 L -95.701,-47.868 M -100.217,-36.451 L -92.349,-45.116 M -4.669,88.184 L -3.307,78.572 M -1.221,94.726 L 1.124,78.169 M 2.957,96.114 L 5.275,79.75 M 32.294,-5.026 L 35.22,-20.222 M 37.032,-6.725 L 39.731,-20.742 M 40.836,-3.574 L 43.815,-19.044 M 24.343,46.436 L 11.068,39.856 M 25.276,42.065 L 10.153,34.568 M 27.665,38.415 L 7.665,28.5 M 3.77,41.544 L 0.059,28.513 M 7.995,40.566 L 4.561,28.506 M 10.895,34.936 L 9.293,29.307 M 2.141,81.22 L 12.889,74.577 M 4.557,84.819 L 18.191,76.392 M 3.767,90.399 L 20.576,80.009 M -77.869,-109.613 L -76.678,-125.334 M -73.107,-115.133 L -72.178,-127.4 M -68.772,-115.015 L -67.823,-127.55 M -53.389,-132.669 L -46.412,-113.287 M -57.479,-131.243 L -50.654,-112.284 M -61.36,-129.236 L -55.858,-113.951 M -63.667,-91.519 L -75.953,-103.157 M -60.818,-94.786 L -73.151,-106.469 M -60.091,-100.064 L -66.665,-106.291 M -67.884,-126.748 L -58.712,-132.358 M -68.287,-121.424 L -60.305,-126.307 M -68.69,-116.1 L -58.807,-122.145 M -47.36,-115.922 L -55.308,-103.049 M -52.143,-116.42 L -59.474,-104.547 M -58.278,-114.728 L -60.909,-110.467 M -56.269,148.811 L -61.887,135.775 M -50.936,150.24 L -57.567,134.856 M -47.836,146.49 L -55.265,129.253 M 35.796,-65.763 L 21.764,-60.093 M 32.535,-69.117 L 17.451,-63.022 M 32.343,-73.711 L 13.138,-65.951 M 7.185,28.501 L 17.997,18.643 M 11.519,30.411 L 19.604,23.04 M 15.683,32.475 L 22.423,26.331 M -50.402,-133.83 L -63.926,-134.517 M -48.573,-138.073 L -63.888,-138.852 M -50.325,-142.499 L -64.941,-143.243 M -67.372,164.663 L -64.194,147.527 M -63.424,167.128 L -60.026,148.803 M -58.573,164.723 L -56.127,151.535 M 40.745,-78.281 L 25.784,-74.216 M 39.349,-82.39 L 24.892,-78.462 M 39.555,-86.934 L 24.942,-82.964 M 46.099,-86.02 L 46.586,-69.313 M 41.854,-82.982 L 42.276,-68.539 M 37.683,-77.449 L 37.988,-66.992 M 34.821,-53.081 L 40.864,-69.081 M 38.867,-51.534 L 46.514,-71.783 M 42.814,-49.728 L 49.758,-68.114 M -61.607,176.955 L -72.899,162.315 M -59.524,172.563 L -67.032,162.83 M -55.856,170.227 L -62.421,161.717 M -65.017,151.964 L -74.322,150.536 M -64.227,147.704 L -71.107,146.648 M -58.238,144.241 L -72.1,142.113 M -78.878,169.385 L -74.315,153.89 M -72.452,162.896 L -69.051,151.345 M -69.184,167.132 L -65.525,154.705 M 31.295,88.504 L 13.683,91.192 M 32.763,83.898 L 15.221,86.576 M 28.885,80.109 L 17.638,81.825 M 5.934,78.876 L 14.384,57.472 M 12.094,75.069 L 16.941,62.791 M 15.594,77.997 L 21.763,62.372 M 25.105,-78.52 L 15.979,-94.353 M 27.19,-83.575 L 20.886,-94.512 M 31.513,-84.749 L 23.029,-99.469 M 19.324,-39.918 L 15.192,-41.948 M 22.494,-43.187 L 9.175,-49.729 M 22.631,-47.945 L 17.373,-50.527 M 19.882,80.438 L 24.132,65.577 M 24.28,80.812 L 27.821,68.432 M 27.68,84.674 L 31.737,70.49 M -71.686,142.177 L -75.294,132.385 M -66.793,142.928 L -72.181,128.308 M -61.9,143.679 L -64.783,135.856 M -78.515,-59.555 L -73.365,-72.578 M -75.37,-55.729 L -69.771,-69.887 M -68.645,-60.956 L -66.411,-66.608 M -122.445,25.181 L -123.961,25.979 M -124.784,21.518 L -125.89,22.099 M -125.243,16.866 L -129.335,19.017 M -17.429,177.89 L -28.525,192.344 M -21.421,175.977 L -33.389,191.568 M -25.756,174.512 L -35.062,186.633 M -20.858,188.631 L -15.027,171.398 M -17.176,191.263 L -11.079,173.242 M -13.03,192.524 L -7.728,176.854 M -30.435,168.15 L -30.685,180.932 M -34.779,168.791 L -35.051,182.676 M -39.054,165.87 L -39.421,184.611 M 13.823,186.505 L -2.995,183.302 M 13.209,181.979 L -1.659,179.148 M 12.757,177.484 L -3.613,174.367 M 24.549,171.239 L 26.025,154.616 M 28.699,173.481 L 30.225,156.284 M 33.201,171.748 L 34.587,156.126 M -9.144,199.133 L -24.708,195.572 M -11.352,194.185 L -27.161,190.567 M -16.28,188.614 L -20.524,187.643 M -23.366,200.411 L -41.39,194.78 M -23.298,195.894 L -36.917,191.64 M -26.902,190.231 L -31.307,188.855 M 7.444,195.622 L -9.056,192.999 M 6.932,191.155 L -11.572,188.213 M 7.534,186.865 L -10.164,184.052 M 17.572,196.118 L 5.946,186.612 M 18.709,191.453 L 12.303,186.215 M 21.048,187.771 L 10.629,179.252 M 40.248,183.595 L 28.889,171.338 M 41.3,178.358 L 33.373,169.805 M 44.804,175.767 L 33.889,163.99 M 34.184,177.052 L 27.066,192.163 M 31.01,173.627 L 23.726,189.09 M 29.258,167.182 L 19.973,186.892 M -26.123,-138.542 L -39.453,-147.153 M -25.361,-143.206 L -38.444,-151.657 M -23.497,-147.159 L -37.532,-156.225 M -54.755,-142.725 L -61.336,-157.746 M -50.437,-143.663 L -56.02,-156.406 M -45.6,-143.416 L -52.708,-159.639 M -51.064,-155.888 L -39.095,-160.565 M -49.325,-151.917 L -36.78,-156.819 M -47.585,-147.947 L -38.31,-151.571 M -64.111,-130.509 L -72.276,-126.105 M -58.292,-138.568 L -80.653,-126.509 M -66.338,-139.15 L -81.621,-130.908 M 30.06,121.768 L 25.933,134.538 M 26.312,119.28 L 21.47,134.263 M 22.913,115.713 L 17.779,131.601 M -53.759,-172.445 L -51.86,-157.703 M -58.138,-172.538 L -55.57,-152.604 M -62.192,-170.103 L -60.293,-155.364 M -17.751,-166.413 L -28.195,-150.193 M -21.515,-168.567 L -29.949,-155.47 M -26.119,-169.418 L -35.471,-154.894 M -46.685,-157.599 L -37.493,-171.746 M -39.762,-160.304 L -32.551,-171.403 M -36.889,-156.776 L -29.77,-167.733 M -39.322,179.524 L -53.699,175.661 M -39.234,175.062 L -62.396,168.841 M -39.147,170.601 L -59.859,165.037 M -36.47,191.78 L -48.868,198.414 M -36.347,186.801 L -53.634,196.052 M -39.4,183.523 L -55.44,192.107 M -45.224,181.752 L -54.902,190.862 M -46.989,177.464 L -60.004,189.716 M -51.905,176.143 L -63.067,186.651 M -58.848,188.627 L -60.893,203.527 M -62.93,186.522 L -64.908,200.927 M -66.87,183.373 L -69.088,199.532 M 27.829,201.492 L 28.775,188.534 M 32.172,201.501 L 33.914,177.625 M 36.56,200.876 L 37.759,184.444 M 52.899,183.676 L 37.565,187.111 M 52.682,179.286 L 39.079,182.333 M 50.791,175.271 L 40.563,177.563 M 28.486,192.495 L 18.394,202.689 M 31.011,183.789 L 14.134,200.836 M 21.007,187.737 L 17.946,190.829 M 31.893,84.031 L 35.059,68.439 M 36.175,84.707 L 39.278,69.425 M 40.621,84.581 L 43.97,68.084 M 31.077,88.537 L 31.851,84.037 M 34.361,94.991 L 37.014,79.577 M 38.58,96.011 L 41.729,77.72 M 24.622,38.539 L 32.443,29.697 M 27.759,41.53 L 39.453,28.309 M 30.389,45.094 L 42.746,31.124 M -78.381,-143.117 L -76.955,-160.899 M -74.099,-142.329 L -72.465,-162.71 M -69.666,-143.426 L -68.386,-159.379 M 29.836,-87.659 L 33.668,-99.001 M 33.617,-85.321 L 37.738,-97.516 M 38.651,-86.688 L 42.414,-97.825 M -70.916,177.251 L -83.929,170.95 M -67.518,174.085 L -78.671,168.684 M -67.542,169.261 L -77.431,164.472 M 36.155,118.749 L 26.479,107.437 M 38.54,114.873 L 28.111,102.682 M 41.334,111.476 L 33.008,101.743 M -60.724,-158.715 L -72.58,-161.275 M -61.312,-163.273 L -73.642,-165.935 M -61.899,-167.831 L -75.597,-170.789 M 13.3,-120.224 L 28.389,-127.779 M 17.672,-117.57 L 32.063,-124.775 M 17.345,-112.562 L 33.994,-120.898 M 37.447,188.722 L 51.555,188.704 M 37.131,193.054 L 51.612,193.035 M 36.815,197.386 L 50.297,197.368 M 34.412,158.101 L 46.05,153.458 M 33.983,162.935 L 45.735,158.247 M 36.356,166.652 L 46.168,162.737 M 45.371,152.204 L 25.982,154.51 M 42.166,148.224 L 27.285,149.993 M 42.39,143.835 L 25.888,145.798 M -60.992,184.698 L -73.485,179.274 M -57.559,181.467 L -68.942,176.524 M -54.127,178.235 L -63.888,173.997 M 11.526,-150.426 L 3.847,-162.179 M 17.264,-149.563 L 6.731,-165.684 M 20.783,-152.095 L 11.716,-165.972 M 25.634,-146.197 L 11.49,-144.28 M 24.78,-150.452 L 9.527,-148.385 M 19.471,-154.103 L 14.718,-153.459 M -0.825,-143.559 L -7.189,-159.028 M 4.271,-142.556 L -2.281,-158.481 M 7.305,-146.565 L 1.336,-161.073 M -14.157,-137.862 L -20.91,-153.144 M -10.223,-139.675 L -20.293,-162.464 M -7.154,-143.444 L -13.972,-158.875 M 23.107,-112.381 L 38.405,-116.923 M 22.929,-107.811 L 38.691,-112.49 M 23.693,-103.519 L 42.953,-109.237 M -13.215,-157.162 L -7.699,-166.624 M -11.054,-152.271 L -7.158,-158.952 M -5.084,-153.91 L -1.24,-160.504 M -7.411,-163.048 L 5.527,-173.918 M -6.746,-157.95 L 7.311,-169.76 M 1.944,-159.594 L 4.263,-161.542 M 39.086,135.924 L 30.521,112.162 M 41.996,131.224 L 34.327,109.948 M 46.836,131.88 L 40.779,115.076 M 34.487,103.473 L 47.479,93.519 M 37.307,106.769 L 48.478,98.21 M 40.127,110.065 L 50.887,101.821 M 31.889,-124.688 L 23.11,-145.855 M 35.125,-128.19 L 27.902,-145.607 M 39.093,-129.929 L 31.993,-147.05 M -68.473,195.052 L -81.909,185.153 M -67.803,190.166 L -79.354,181.655 M -67.132,185.28 L -75.665,178.993 M 54.282,-95.785 L 42.362,-85.847 M 52.865,-100.243 L 39.453,-89.061 M 47.772,-101.636 L 42.106,-96.912 M 29.441,145.375 L 26.354,133.235 M 33.779,144.859 L 28.855,125.495 M 38.117,144.343 L 34.714,130.961 M -62.714,-138.793 L -69.292,-148.086 M -60.394,-143.011 L -68.752,-154.82 M -54.889,-142.732 L -63.602,-155.041 M 52.417,137.294 L 36.984,139.885 M 50.467,133.229 L 38.819,135.185 M 46.009,129.586 L 41.668,130.315 M 23.448,-98.742 L 25.585,-104.081 M 26.201,-93.965 L 30.88,-105.653 M 28.954,-89.188 L 36.174,-107.225 M 40.682,-92.698 L 40.112,-108.394 M 44.782,-99.143 L 44.279,-113.02 M 49.188,-97.177 L 48.623,-112.747 M 40.785,-119.545 L 30.013,-123.749 M 43.815,-123.013 L 30.415,-128.241 M 45.404,-127.042 L 33.709,-131.605 M 23.999,-154.14 L 19.097,-168.849 M 28.317,-154.882 L 23.024,-170.765 M 32.974,-154.609 L 26.917,-172.783 M 36.403,-144.881 L 19.313,-149.711 M 39.554,-148.491 L 21.164,-153.689 M 32.885,-154.877 L 27.844,-156.302 M 52.023,-122.581 L 44.368,-110.552 M 48.871,-125.695 L 37.336,-107.57 M 42.385,-123.571 L 40.015,-119.846 M 36.075,-149.474 L 44.066,-165.652 M 41.034,-149.734 L 48.857,-165.571 M 44.216,-146.397 L 52.532,-163.232 M 54.032,-135.011 L 38.1,-132.323 M 52.917,-139.215 L 36.398,-136.428 M 51.021,-143.288 L 36.644,-140.862 M 40.466,-141.507 L 31.643,-150.727 M 45.628,-142.378 L 37.015,-151.378 M 45.428,-148.851 L 42.242,-152.18 M 39.753,99.439 L 26.522,102.236 M 38.714,95.232 L 24.202,98.3 M 34.944,91.602 L 25.184,93.665 M 37.568,118.942 L 40.967,111.048 M 42.223,119.083 L 49.049,103.229 M 44.372,125.044 L 50.835,110.032 M 42.082,20.163 L 48.571,34.359 M 38.418,22.566 L 42.472,31.434 M 35.26,26.074 L 37.362,30.673 M 34.475,42.714 L 20.899,51.885 M 33.55,38.112 L 22.546,45.545 M 26.338,37.757 L 22.211,40.545 M -76.827,-133.493 L -80.79,-149.642 M -72.888,-135.617 L -77.481,-154.332 M -68.95,-137.741 L -73.108,-154.684 M 53.627,39.237 L 40.48,44.677 M 51.83,35.293 L 37.409,41.261 M 47.647,32.337 L 38.224,36.236 M 39.445,-156.297 L 28.586,-167.774 M 41.49,-160.438 L 32.258,-170.195 M 43.535,-164.578 L 34.702,-173.914 M 39.719,-53.791 L 42.84,-49.795 M 34.788,-53.067 L 43.696,-41.662 M 33.415,-47.788 L 38.793,-40.904" fill="#CCCECE" stroke="#222022" stroke-width="0.8" stroke-linejoin="round" stroke-linecap="butt"/></g><g><path d=" M 0,0"/><path d=" M -120,60 L -120,-30 L 0,-30 L 0,60 L -120,60 M -60,-60 L -60,-150 L 30,-150 L 30,-60 L -60,-60 M -60,180 L -60,90 L 30,90 L 30,180 L -60,180 M 0,30 L 0,0 L 30,0 L 30,30 L 0,30 M -30,-30 L -30,-60 L 0,-60 L 0,-30 L -30,-30 M -30,67.5 L -30,60 L 0,60 L 0,67.5 L -6,67.5 L -6,82.5 L 0,82.5 L 0,90 L -30,90 L -30,82.5 L -24,82.5 L -24,67.5 L -30,67.5" stroke="#222022" stroke-width="6" stroke-linejoin="round" stroke-linecap="butt"/><path d=" M -120,60 L -120,-30 L 0,-30 L 0,60 L -120,60" fill="#F8F8F4"/><path d=" M -60,-60 L -60,-150 L 30,-150 L 30,-60 L -60,-60" fill="#F8F8F4"/><path d=" M -60,180 L -60,90 L 30,90 L 30,180 L -60,180" fill="#F8F8F4"/><path d=" M 0,30 L 0,0 L 30,0 L 30,30 L 0,30" fill="#F8F8F4"/><path d=" M -30,-30 L -30,-60 L 0,-60 L 0,-30 L -30,-30" fill="#F8F8F4"/><path d=" M -30,67.5 L -30,60 L 0,60 L 0,67.5 L -6,67.5 L -6,82.5 L 0,82.5 L 0,90 L -30,90 L -30,82.5 L -24,82.5 L -24,67.5 L -30,67.5" fill="#F8F8F4"/><path d=" M 0,30 L 0,0 M -30,-60 L 0,-60 M -30,-30 L 0,-30 M 0,90 L -30,90 M 0,60 L -30,60" stroke="#F8F8F4" stroke-width="1" stroke-linejoin="round" stroke-linecap="butt"/></g><g><path d=" M 0,0"/><path d=" M -120,0 L -119.25,0 M -113.56,0 L -112.81,0 M -107.119,0 L -106.369,0 M -100.679,0 L -99.929,0 M -94.239,0 L -93.489,0 M -87.798,0 L -87.048,0 M -81.358,0 L -80.608,0 M -74.918,0 L -74.168,0 M -68.477,0 L -67.727,0 M -62.037,0 L -61.287,0 M -55.597,0 L -54.847,0 M -49.156,0 L -48.406,0 M -42.716,0 L -41.966,0 M -36.276,0 L -35.526,0 M -29.835,0 L -29.085,0 M -23.395,0 L -22.645,0 M -16.955,0 L -16.205,0 M -10.514,0 L -9.764,0 M -4.074,0 L -3.324,0 M -120,30 L -119.25,30 M -114.078,30 L -113.328,30 M -108.157,30 L -107.407,30 M -102.235,30 L -101.485,30 M -96.313,30 L -95.563,30 M -90.392,30 L -89.642,30 M -84.47,30 L -83.72,30 M -78.549,30 L -77.799,30 M -72.627,30 L -71.877,30 M -66.705,30 L -65.955,30 M -60.784,30 L -60.034,30 M -54.862,30 L -54.112,30 M -48.94,30 L -48.19,30 M -43.019,30 L -42.269,30 M -37.097,30 L -36.347,30 M -31.176,30 L -30.426,30 M -25.254,30 L -24.504,30 M -19.332,30 L -18.582,30 M -13.411,30 L -12.661,30 M -7.489,30 L -6.739,30 M -1.567,30 L -0.817,30 M -90,-30 L -90,-29.25 M -90,-23.879 L -90,-23.129 M -90,-17.757 L -90,-17.007 M -90,-11.636 L -90,-10.886 M -90,-5.514 L -90,-4.764 M -90,0.607 L -90,1.357 M -90,6.729 L -90,7.479 M -90,12.85 L -90,13.6 M -90,18.972 L -90,19.722 M -90,25.093 L -90,25.843 M -90,31.215 L -90,31.965 M -90,37.336 L -90,38.086 M -90,43.457 L -90,44.207 M -90,49.579 L -90,50.329 M -90,55.7 L -90,56.45 M -60,-30 L -60,-29.25 M -60,-23.429 L -60,-22.679 M -60,-16.858 L -60,-16.108 M -60,-10.287 L -60,-9.537 M -60,-3.716 L -60,-2.966 M -60,2.856 L -60,3.606 M -60,9.427 L -60,10.177 M -60,15.998 L -60,16.748 M -60,22.569 L -60,23.319 M -60,29.14 L -60,29.89 M -60,35.711 L -60,36.461 M -60,42.282 L -60,43.032 M -60,48.853 L -60,49.603 M -60,55.424 L -60,56.174 M -30,-30 L -30,-29.25 M -30,-24.562 L -30,-23.812 M -30,-19.125 L -30,-18.375 M -30,-13.687 L -30,-12.937 M -30,-8.25 L -30,-7.5 M -30,-2.812 L -30,-2.062 M -30,2.626 L -30,3.376 M -30,8.063 L -30,8.813 M -30,13.501 L -30,14.251 M -30,18.939 L -30,19.689 M -30,24.376 L -30,25.126 M -30,29.814 L -30,30.564 M -30,35.251 L -30,36.001 M -30,40.689 L -30,41.439 M -30,46.127 L -30,46.877 M -30,51.564 L -30,52.314 M -30,57.002 L -30,57.752 M -60,-120 L -59.25,-120 M -53.953,-120 L -53.203,-120 M -47.905,-120 L -47.155,-120 M -41.858,-120 L -41.108,-120 M -35.81,-120 L -35.06,-120 M -29.763,-120 L -29.013,-120 M -23.715,-120 L -22.965,-120 M -17.668,-120 L -16.918,-120 M -11.621,-120 L -10.871,-120 M -5.573,-120 L -4.823,-120 M 0.474,-120 L 1.224,-120 M 6.522,-120 L 7.272,-120 M 12.569,-120 L 13.319,-120 M 18.617,-120 L 19.367,-120 M 24.664,-120 L 25.414,-120 M -60,-90 L -59.25,-90 M -53.251,-90 L -52.501,-90 M -46.502,-90 L -45.752,-90 M -39.753,-90 L -39.003,-90 M -33.004,-90 L -32.254,-90 M -26.255,-90 L -25.505,-90 M -19.506,-90 L -18.756,-90 M -12.757,-90 L -12.007,-90 M -6.008,-90 L -5.258,-90 M 0.741,-90 L 1.491,-90 M 7.49,-90 L 8.24,-90 M 14.239,-90 L 14.989,-90 M 20.988,-90 L 21.738,-90 M 27.737,-90 L 28.487,-90 M -30,-150 L -30,-149.25 M -30,-144.058 L -30,-143.308 M -30,-138.115 L -30,-137.365 M -30,-132.173 L -30,-131.423 M -30,-126.23 L -30,-125.48 M -30,-120.288 L -30,-119.538 M -30,-114.346 L -30,-113.596 M -30,-108.403 L -30,-107.653 M -30,-102.461 L -30,-101.711 M -30,-96.519 L -30,-95.769 M -30,-90.576 L -30,-89.826 M -30,-84.634 L -30,-83.884 M -30,-78.691 L -30,-77.941 M -30,-72.749 L -30,-71.999 M -30,-66.807 L -30,-66.057 M -30,-60.864 L -30,-60.114 M 0,-150 L 0,-149.25 M 0,-144.011 L 0,-143.261 M 0,-138.022 L 0,-137.272 M 0,-132.033 L 0,-131.283 M 0,-126.045 L 0,-125.295 M 0,-120.056 L 0,-119.306 M 0,-114.067 L 0,-113.317 M 0,-108.078 L 0,-107.328 M 0,-102.089 L 0,-101.339 M 0,-96.1 L 0,-95.35 M 0,-90.112 L 0,-89.362 M 0,-84.123 L 0,-83.373 M 0,-78.134 L 0,-77.384 M 0,-72.145 L 0,-71.395 M 0,-66.156 L 0,-65.406 M 0,-60.167 L 0,-60 M -60,120 L -59.25,120 M -54.138,120 L -53.388,120 M -48.277,120 L -47.527,120 M -42.415,120 L -41.665,120 M -36.553,120 L -35.803,120 M -30.692,120 L -29.942,120 M -24.83,120 L -24.08,120 M -18.968,120 L -18.218,120 M -13.107,120 L -12.357,120 M -7.245,120 L -6.495,120 M -1.383,120 L -0.633,120 M 4.478,120 L 5.228,120 M 10.34,120 L 11.09,120 M 16.201,120 L 16.951,120 M 22.063,120 L 22.813,120 M 27.925,120 L 28.675,120 M -60,150 L -59.25,150 M -54.192,150 L -53.442,150 M -48.384,150 L -47.634,150 M -42.576,150 L -41.826,150 M -36.768,150 L -36.018,150 M -30.96,150 L -30.21,150 M -25.152,150 L -24.402,150 M -19.344,150 L -18.594,150 M -13.536,150 L -12.786,150 M -7.728,150 L -6.978,150 M -1.92,150 L -1.17,150 M 3.889,150 L 4.639,150 M 9.697,150 L 10.447,150 M 15.505,150 L 16.255,150 M 21.313,150 L 22.063,150 M 27.121,150 L 27.871,150 M -30,90 L -30,90.75 M -30,95.845 L -30,96.595 M -30,101.69 L -30,102.44 M -30,107.534 L -30,108.284 M -30,113.379 L -30,114.129 M -30,119.224 L -30,119.974 M -30,125.069 L -30,125.819 M -30,130.914 L -30,131.664 M -30,136.759 L -30,137.509 M -30,142.603 L -30,143.353 M -30,148.448 L -30,149.198 M -30,154.293 L -30,155.043 M -30,160.138 L -30,160.888 M -30,165.983 L -30,166.733 M -30,171.827 L -30,172.577 M -30,177.672 L -30,178.422 M 0,90 L 0,90.75 M 0,96.131 L 0,96.881 M 0,102.262 L 0,103.012 M 0,108.393 L 0,109.143 M 0,114.524 L 0,115.274 M 0,120.655 L 0,121.405 M 0,126.786 L 0,127.536 M 0,132.917 L 0,133.667 M 0,139.048 L 0,139.798 M 0,145.179 L 0,145.929 M 0,151.31 L 0,152.06 M 0,157.441 L 0,158.191 M 0,163.572 L 0,164.322 M 0,169.703 L 0,170.453 M 0,175.833 L 0,176.583 M 0,30 L 0,29.25 M 0,23.353 L 0,22.603 M 0,16.706 L 0,15.956 M 0,10.059 L 0,9.309 M 0,3.413 L 0,2.663 M -30,-60 L -29.25,-60 M -23.851,-60 L -23.101,-60 M -17.701,-60 L -16.951,-60 M -11.552,-60 L -10.802,-60 M -5.403,-60 L -4.653,-60 M 0,-30 L -0.75,-30 M -6.239,-30 L -6.989,-30 M -12.478,-30 L -13.228,-30 M -18.716,-30 L -19.466,-30 M -24.955,-30 L -25.705,-30 M 0,90 L -0.75,90 M -6.656,90 L -7.406,90 M -13.311,90 L -14.061,90 M -19.967,90 L -20.717,90 M -26.622,90 L -27.372,90 M -30,60 L -29.25,60 M -24.382,60 L -23.632,60 M -18.763,60 L -18.013,60 M -13.145,60 L -12.395,60 M -7.527,60 L -6.777,60 M -1.909,60 L -1.159,60" stroke="#222022" stroke-width="1.5" stroke-linejoin="round" stroke-linecap="butt"/></g><g clip-path="url(#instance365)"><path d=" M 0,0"/><clipPath id="instance365" fill="#FFFFFF"><path d=" M 0,0"/><path d=" M -120,60 L -120,-30 L 0,-30 L 0,60 L -120,60" fill="#FF0000"/><path d=" M -60,-60 L -60,-150 L 30,-150 L 30,-60 L -60,-60" fill="#FF0000"/><path d=" M -60,180 L -60,90 L 30,90 L 30,180 L -60,180" fill="#FF0000"/><path d=" M 0,30 L 0,0 L 30,0 L 30,30 L 0,30" fill="#FF0000"/><path d=" M -30,-30 L -30,-60 L 0,-60 L 0,-30 L -30,-30" fill="#FF0000"/><path d=" M -30,67.5 L -30,60 L 0,60 L 0,67.5 L -6,67.5 L -6,82.5 L 0,82.5 L 0,90 L -30,90 L -30,82.5 L -24,82.5 L -24,67.5 L -30,67.5" fill="#FF0000"/></clipPath></g><g><path d=" M 0,0"/><path d=" M -105.397,-28.406 L -105.209,-28.219 L -107.096,-27.937 L -111.058,-27.562 L -114.123,-26.457 L -116.291,-24.621 L -117.562,-22.054 L -117.937,-18.757 L -118.219,-17.203 L -118.406,-17.39 L -118.5,-20.238 L -118.5,-28.5 L -108.743,-28.5 L -105.397,-28.406 M -118.406,44.844 L -118.219,44.656 L -117.937,46.635 L -117.562,50.781 L -116.884,53.984 L -115.903,56.245 L -114.619,57.563 L -113.032,57.938 L -112.332,58.219 L -112.52,58.406 L -114.085,58.5 L -118.5,58.5 L -118.5,48.328 L -118.406,44.844" fill="#222022"/><path d=" M -46.16,-148.406 L -45.973,-148.219 L -47.733,-147.937 L -51.44,-147.562 L -54.314,-146.803 L -56.355,-145.66 L -57.562,-144.132 L -57.937,-142.22 L -58.219,-141.357 L -58.406,-141.545 L -58.5,-143.354 L -58.5,-148.5 L -49.316,-148.5 L -46.16,-148.406 M 28.406,-135.626 L 28.219,-135.438 L 27.938,-137.287 L 27.563,-141.172 L 25.991,-144.18 L 23.222,-146.31 L 19.256,-147.562 L 14.094,-147.937 L 11.606,-148.219 L 11.794,-148.406 L 16.041,-148.5 L 28.5,-148.5 L 28.5,-138.915 L 28.406,-135.626 M -58.406,-77.524 L -58.219,-77.712 L -57.937,-75.338 L -57.562,-70.403 L -56.643,-66.608 L -55.178,-63.953 L -53.168,-62.437 L -50.613,-62.062 L -49.429,-61.781 L -49.617,-61.594 L -51.908,-61.5 L -58.5,-61.5 L -58.5,-73.448 L -58.406,-77.524 M 13.85,-61.594 L 13.662,-61.781 L 15.807,-62.062 L 20.284,-62.437 L 23.736,-63.411 L 26.162,-64.983 L 27.563,-67.154 L 27.938,-69.923 L 28.219,-71.214 L 28.406,-71.026 L 28.5,-68.574 L 28.5,-61.5 L 17.583,-61.5 L 13.85,-61.594" fill="#222022"/><path d=" M -44.91,91.594 L -44.723,91.781 L -46.691,92.063 L -50.814,92.438 L -54.001,93.69 L -56.25,95.82 L -57.562,98.827 L -57.937,102.712 L -58.219,104.561 L -58.406,104.374 L -58.5,101.085 L -58.5,91.5 L -48.378,91.5 L -44.91,91.594 M 28.406,105.181 L 28.219,105.368 L 27.938,103.385 L 27.563,99.231 L 26.558,96.022 L 24.923,93.757 L 22.658,92.438 L 19.763,92.063 L 18.409,91.781 L 18.597,91.594 L 21.143,91.5 L 28.5,91.5 L 28.5,101.69 L 28.406,105.181 M -58.406,165.66 L -58.219,165.472 L -57.937,167.315 L -57.562,171.189 L -56.477,174.188 L -54.68,176.313 L -52.172,177.563 L -48.953,177.938 L -47.437,178.219 L -47.625,178.406 L -50.414,178.5 L -58.5,178.5 L -58.5,168.94 L -58.406,165.66 M 15.067,178.406 L 14.879,178.219 L 16.821,177.938 L 20.893,177.563 L 24.04,175.951 L 26.263,173.103 L 27.563,169.018 L 27.938,163.696 L 28.219,161.129 L 28.406,161.316 L 28.5,165.683 L 28.5,178.5 L 18.495,178.5 L 15.067,178.406" fill="#222022"/></g><g><path d=" M 0,0"/><path d=" M -7.949,52.377 L -8.189,52.031 L -8.241,51.611 L -8.103,51.119 L -7.851,50.77 L -7.486,50.566 L -7.007,50.506 L -6.415,50.591 L -5.998,50.806 L -5.758,51.153 L -5.694,51.63 L -5.806,52.239 L -6.045,52.646 L -6.41,52.85 L -6.902,52.851 L -7.52,52.651 L -7.949,52.377" fill="#F8F8F4" stroke="#222022" stroke-width="1.5" stroke-linejoin="round" stroke-linecap="butt"/><path d=" M -85.06,54.754 L -84.944,54.399 L -84.658,54.061 L -84.2,53.741 L -83.812,53.657 L -83.492,53.811 L -83.241,54.202 L -83.058,54.83 L -83.024,55.322 L -83.14,55.677 L -83.406,55.895 L -83.82,55.978 L -84.188,55.942 L -84.507,55.788 L -84.78,55.516 L -85.005,55.127 L -85.06,54.754" fill="#F8F8F4" stroke="#222022" stroke-width="1.5" stroke-linejoin="round" stroke-linecap="butt"/><path d=" M -8.478,-66.873 L -8.936,-68.689 L -8.494,-70.513 L -7.152,-72.345 L -5.563,-73.401 L -3.726,-73.679 L -1.641,-73.181 L 0.691,-71.905 L 2.086,-70.359 L 2.544,-68.544 L 2.064,-66.457 L 0.647,-64.101 L -0.981,-62.784 L -2.818,-62.505 L -4.865,-63.266 L -7.121,-65.065 L -8.478,-66.873" fill="#F8F8F4" stroke="#222022" stroke-width="1.5" stroke-linejoin="round" stroke-linecap="butt"/><path d=" M -46.071,-84.955 L -36.168,-92.627 L -28.496,-82.724 L -38.399,-75.052 L -46.071,-84.955" fill="#F8F8F4" stroke="#222022" stroke-width="1.5" stroke-linejoin="round" stroke-linecap="butt"/><path d=" M -33.611,-89.326 L -43.514,-81.654" stroke="#222022" stroke-width="1.5" stroke-linejoin="round" stroke-linecap="butt"/><path d=" M -31.054,-86.025 L -40.956,-78.353" stroke="#222022" stroke-width="1.5" stroke-linejoin="round" stroke-linecap="butt"/><path d=" M 8.909,99.052 L 10.562,99.652 L 11.984,101.152 L 13.175,103.55 L 13.745,105.609 L 13.693,107.328 L 13.02,108.708 L 11.725,109.748 L 10.251,109.968 L 8.599,109.367 L 6.768,107.946 L 4.758,105.704 L 3.778,103.724 L 3.83,102.004 L 4.913,100.546 L 7.026,99.35 L 8.909,99.052" fill="#F8F8F4" stroke="#222022" stroke-width="1.5" stroke-linejoin="round" stroke-linecap="butt"/><path d=" M 27.684,173.455 L 27.332,173.317 L 27.007,173.008 L 26.709,172.528 L 26.648,172.131 L 26.821,171.816 L 27.231,171.585 L 27.876,171.436 L 28.374,171.431 L 28.727,171.568 L 28.932,171.849 L 28.992,172.273 L 28.934,172.642 L 28.76,172.956 L 28.47,173.216 L 28.063,173.421 L 27.684,173.455" fill="#F8F8F4" stroke="#222022" stroke-width="1.5" stroke-linejoin="round" stroke-linecap="butt"/><path d=" M 30,180 L -60,180 L -59.135,171.221 L -56.575,162.779 L -52.416,154.999 L -46.82,148.18 L -40.001,142.584 L -32.221,138.425 L -23.779,135.865 L -15,135 L -6.221,135.865 L 2.221,138.425 L 10.001,142.584 L 16.82,148.18 L 22.416,154.999 L 26.575,162.779 L 29.135,171.221 L 30,180" fill="#F8F8F4"/><path d=" M -60,180 L -59.135,171.221 L -56.575,162.779 L -52.416,154.999 L -46.82,148.18 L -40.001,142.584 L -32.221,138.425 L -23.779,135.865 L -15,135 L -6.221,135.865 L 2.221,138.425 L 10.001,142.584 L 16.82,148.18 L 22.416,154.999 L 26.575,162.779 L 29.135,171.221 L 30,180" stroke="#222022" stroke-width="1.5" stroke-linejoin="round" stroke-linecap="butt"/><path d=" M -52.5,180 L -51.779,172.684 L -49.645,165.649 L -46.18,159.166 L -41.517,153.483 L -35.834,148.82 L -29.351,145.355 L -22.316,143.221 L -15,142.5 L -7.684,143.221 L -0.649,145.355 L 5.834,148.82 L 11.517,153.483 L 16.18,159.166 L 19.645,165.649 L 21.779,172.684 L 22.5,180" stroke="#222022" stroke-width="1.5" stroke-linejoin="round" stroke-linecap="butt"/><path d=" M -22.5,159 L -7.5,159 L -7.5,171 L -22.5,171 L -22.5,159" fill="#F8F8F4" stroke="#222022" stroke-width="1.5" stroke-linejoin="round" stroke-linecap="butt"/><path d=" M -19.5,157.5 L -10.5,157.5 L -10.5,166.5 L -19.5,166.5 L -19.5,157.5" fill="#F8F8F4" stroke="#222022" stroke-width="1.5" stroke-linejoin="round" stroke-linecap="butt"/></g><g transform="translate(-3.441 4.915)" style="mix-blend-mode: multiply" clip-path="url(#instance366)"><path d=" M 0,0"/><path d=" M -120,60 L -120,-30 L 0,-30 L 0,60 L -120,60 M -60,-60 L -60,-150 L 30,-150 L 30,-60 L -60,-60 M -60,180 L -60,90 L 30,90 L 30,180 L -60,180 M 0,30 L 0,0 L 30,0 L 30,30 L 0,30 M -30,-30 L -30,-60 L 0,-60 L 0,-30 L -30,-30 M -30,67.5 L -30,60 L 0,60 L 0,67.5 L -6,67.5 L -6,82.5 L 0,82.5 L 0,90 L -30,90 L -30,82.5 L -24,82.5 L -24,67.5 L -30,67.5" stroke="#CCCCCC" stroke-width="13.2" stroke-linejoin="round" stroke-linecap="butt"/><path d=" M -120,60 L -120,-30 L 0,-30 L 0,60 L -120,60" fill="#FFFFFF"/><path d=" M -60,-60 L -60,-150 L 30,-150 L 30,-60 L -60,-60" fill="#FFFFFF"/><path d=" M -60,180 L -60,90 L 30,90 L 30,180 L -60,180" fill="#FFFFFF"/><path d=" M 0,30 L 0,0 L 30,0 L 30,30 L 0,30" fill="#FFFFFF"/><path d=" M -30,-30 L -30,-60 L 0,-60 L 0,-30 L -30,-30" fill="#FFFFFF"/><path d=" M -30,67.5 L -30,60 L 0,60 L 0,67.5 L -6,67.5 L -6,82.5 L 0,82.5 L 0,90 L -30,90 L -30,82.5 L -24,82.5 L -24,67.5 L -30,67.5" fill="#FFFFFF"/><clipPath id="instance366" fill="#FFFFFF" transform="translate(3.441 -4.915)"><path d=" M 0,0"/><path d=" M -120,60 L -120,-30 L 0,-30 L 0,60 L -120,60" fill="#FF0000"/><path d=" M -60,-60 L -60,-150 L 30,-150 L 30,-60 L -60,-60" fill="#FF0000"/><path d=" M -60,180 L -60,90 L 30,90 L 30,180 L -60,180" fill="#FF0000"/><path d=" M 0,30 L 0,0 L 30,0 L 30,30 L 0,30" fill="#FF0000"/><path d=" M -30,-30 L -30,-60 L 0,-60 L 0,-30 L -30,-30" fill="#FF0000"/><path d=" M -30,67.5 L -30,60 L 0,60 L 0,67.5 L -6,67.5 L -6,82.5 L 0,82.5 L 0,90 L -30,90 L -30,82.5 L -24,82.5 L -24,67.5 L -30,67.5" fill="#FF0000"/></clipPath></g><g><path d=" M 0,0"/><path d=" M 24,27 L 24,3 M 18,24 L 18,6 M 12,21 L 12,9 M 6,18 L 6,12" stroke="#222022" stroke-width="1.5" stroke-linejoin="round" stroke-linecap="butt"/><path d=" M -25.5,71.25 L -4.5,71.25 L -4.5,78.75 L -25.5,78.75 L -25.5,71.25 M -15,71.25 L -15,78.75" fill="#F8F8F4" stroke="#222022" stroke-width="3" stroke-linejoin="round" stroke-linecap="butt"/></g></g><text dominant-baseline="text-before-edge" style="font: bold 48px Grenze" fill="#222022" transform="translate(577.248 2)">Goblin Throne Room</text><text dominant-baseline="text-before-edge" style="font: italic 24px Neuton" fill="#222022" transform="translate(488 77.04)"><tspan x="3.984">A once awe inspiring and elaborately decorated throne room now sits </tspan><tspan x="5.162" dy="31">in ruin. Its majestic legacy made a mockery by its goblin inhabitants.</tspan></text><g transform="translate(753.841 603.166)"><path d=" M 0,0"/><text dominant-baseline="text-before-edge" style="font: bold 30px Neuton" fill="#222022" transform="translate(-6.541 -18.977)">1</text></g><g transform="translate(553.864 485.107)"><path d=" M 0,0"/><text dominant-baseline="text-before-edge" style="font: bold 30px Neuton" fill="#222022" transform="translate(-7.683 -18.977)">2</text></g><g transform="translate(982.136 560.623)"><path d=" M 0,0"/><text dominant-baseline="text-before-edge" style="font: bold 30px Neuton" fill="#222022" transform="translate(-7.734 -18.977)">3</text></g></g></svg>